<?xml version="1.0" encoding="utf-8"?>
<!-- Generator: Adobe Illustrator 25.0.1, SVG Export Plug-In . SVG Version: 6.00 Build 0)  -->
<svg version="1.1" id="Calque_1" xmlns="http://www.w3.org/2000/svg" xmlns:xlink="http://www.w3.org/1999/xlink" x="0px" y="0px"
	 viewBox="0 0 534.4 479.5" style="enable-background:new 0 0 534.4 479.5;" xml:space="preserve">
<style type="text/css">
	.st0{fill:#F0C418;}
	.st1{fill:#FFFFFF;}
	.st2{fill:#F1C518;}
	.st3{fill:#374279;}
</style>
<g>
	<path class="st1" d="M266.7,62.4c97.9,0,177.3,79.4,177.3,177.3S364.6,417,266.7,417c-97.9,0-177.3-79.4-177.3-177.3
		S168.7,62.4,266.7,62.4 M266.7,39.4c-27,0-53.3,5.3-78,15.8c-23.9,10.1-45.3,24.5-63.7,42.9s-32.8,39.8-42.9,63.7
		c-10.5,24.7-15.8,50.9-15.8,78s5.3,53.3,15.8,78c10.1,23.9,24.5,45.3,42.9,63.7s39.8,32.8,63.7,42.9c24.7,10.5,50.9,15.8,78,15.8
		s53.3-5.3,78-15.8c23.9-10.1,45.3-24.5,63.7-42.9c18.4-18.4,32.8-39.8,42.9-63.7c10.5-24.7,15.8-50.9,15.8-78s-5.3-53.3-15.8-78
		c-10.1-23.9-24.5-45.3-42.9-63.7c-18.4-18.4-39.8-32.8-63.7-42.9C319.9,44.7,293.7,39.4,266.7,39.4L266.7,39.4z"/>
	<g>
		<path d="M495.3,106.3h-54.4c-40.1-52.3-103.2-86-174.2-86S132.5,54,92.4,106.3h-54l32.5,34.1c-15.2,29.8-23.7,63.6-23.7,99.4
			c0,121.2,98.3,219.5,219.5,219.5S486.2,361,486.2,239.7c0-35.9-8.6-69.8-23.9-99.7L495.3,106.3z"/>
		<path class="st2" d="M266.7,20.2c71,0,134.1,33.7,174.2,86h54.4L462.3,140c15.3,29.9,23.9,63.8,23.9,99.7
			c0,121.2-98.3,219.5-219.5,219.5S47.2,361,47.2,239.7c0-35.8,8.6-69.5,23.7-99.4l-32.5-34.1h54C132.5,54,195.7,20.2,266.7,20.2
			 M266.7,7.2c-36.8,0-72,8.3-104.6,24.8c-29.2,14.7-55.3,35.8-76,61.2H38.4H8.1l20.9,22l26.3,27.6c-14,30.4-21.1,63-21.1,96.9
			c0,31.4,6.1,61.8,18.3,90.5c11.7,27.7,28.5,52.6,49.8,73.9c21.3,21.3,46.2,38.1,73.9,49.8c28.7,12.1,59.1,18.3,90.5,18.3
			s61.8-6.1,90.5-18.3c27.7-11.7,52.6-28.5,73.9-49.8c21.3-21.3,38.1-46.2,49.8-73.9c12.1-28.7,18.3-59.1,18.3-90.5
			c0-34-7.1-66.7-21.2-97.2l26.7-27.2l21.7-22.1h-31h-48.1c-20.7-25.4-46.8-46.5-76-61.2C338.6,15.6,303.4,7.2,266.7,7.2L266.7,7.2z
			"/>
	</g>
	<path class="st3" d="M266.7,84.4C352.5,84.4,422,154,422,239.7s-69.5,155.3-155.3,155.3c-85.8,0-155.3-69.5-155.3-155.3
		S180.9,84.4,266.7,84.4 M266.7,62.4c-23.9,0-47.2,4.7-69,13.9c-21.1,8.9-40.1,21.7-56.4,38c-16.3,16.3-29.1,35.2-38,56.4
		c-9.3,21.9-13.9,45.1-13.9,69s4.7,47.2,13.9,69c8.9,21.1,21.7,40.1,38,56.4c16.3,16.3,35.2,29.1,56.4,38
		c21.9,9.3,45.1,13.9,69,13.9c23.9,0,47.2-4.7,69-13.9c21.1-8.9,40.1-21.7,56.4-38c16.3-16.3,29.1-35.2,38-56.4
		c9.3-21.9,13.9-45.1,13.9-69s-4.7-47.2-13.9-69c-8.9-21.1-21.7-40.1-38-56.4c-16.3-16.3-35.2-29.1-56.4-38
		C313.8,67.1,290.6,62.4,266.7,62.4L266.7,62.4z"/>
	<path class="st1" d="M266.7,62.4c97.9,0,177.3,79.4,177.3,177.3S364.6,417,266.7,417c-97.9,0-177.3-79.4-177.3-177.3
		S168.7,62.4,266.7,62.4 M266.7,40.4c-26.9,0-53,5.3-77.6,15.7c-23.7,10-45,24.4-63.3,42.7c-18.3,18.3-32.7,39.6-42.7,63.3
		c-10.4,24.6-15.7,50.7-15.7,77.6s5.3,53,15.7,77.6c10,23.7,24.4,45,42.7,63.3c18.3,18.3,39.6,32.7,63.3,42.7
		c24.6,10.4,50.7,15.7,77.6,15.7s53-5.3,77.6-15.7c23.7-10,45-24.4,63.3-42.7c18.3-18.3,32.7-39.6,42.7-63.3
		c10.4-24.6,15.7-50.7,15.7-77.6s-5.3-53-15.7-77.6c-10-23.7-24.4-45-42.7-63.3c-18.3-18.3-39.6-32.7-63.3-42.7
		C319.7,45.7,293.6,40.4,266.7,40.4L266.7,40.4z"/>
	<g>
		<path d="M495.3,106.3H346.1c-23.2-13.9-50.4-21.8-79.5-21.8s-56.2,8-79.5,21.8H38.4l80.8,84.5c-5.1,15.4-7.9,31.9-7.9,49
			c0,85.8,69.5,155.3,155.3,155.3S422,325.5,422,239.7c0-17.6-2.9-34.5-8.3-50.3L495.3,106.3z"/>
	</g>
	<g>
		<g>
			<path class="st2" d="M391.7,195.7c-14,0.2-28,0.2-42,0c-3.7-0.1-5.6,1.1-7.4,4.3c-24.4,42.6-48.8,85.2-73.3,127.7
				c-1,1.7-1.5,3.7-3.5,5c-9.8-17.1-19.6-34.1-29.4-51.1c-12.9-22.3-25.8-44.6-38.8-66.9c-3-6.2-6.5-12.2-10.3-18c0,0,0,0,0,0
				c0,0,0,0,0,0c-1.3-1.7-3.1-0.8-4.6-0.9c-14.2-0.1-28.3,0.1-42.5-0.1c-3.7-0.1-4.8,0.9-4.7,4.7c0.2,22.5,0.9,45-0.2,67.5
				c-0.7,15.6,3.9,29.1,11.6,42c3.7,6.2,7.6,12.1,12.2,17.7c7.6,9.3,16,17.6,26.7,25.1c0-19.7,0-38.5,0-57.3c0.3,0,0.5-0.1,0.8-0.1
				c26.4,45.9,52.8,91.8,79.6,138.3c26.8-46.6,53.2-92.5,79.6-138.3c0.3,0.1,0.7,0.2,1,0.4c0,18.7,0,37.5,0,56.1
				c1.3,0.4,1.9-0.4,2.5-0.8c21.7-16.6,37.3-37.8,46.6-63.5c0.6-1.6,0.7-3.2,0.7-4.9c0-27.5-0.1-55,0-82.5
				C396.3,196.3,395.1,195.7,391.7,195.7z"/>
		</g>
		<g>
			<path class="st2" d="M85.4,128c16.8,16.6,32.6,32.3,48.4,48c1.7,1.7,3.5,1.6,5.5,1.6c17.8,0,35.6,0.1,53.5-0.1c3.4,0,5.3,0.9,7,4
				c14,24.7,28.3,49.4,42.5,74c7.8,13.5,15.6,27,23.6,40.9c1.2-2,2.2-3.5,3.1-5c20.9-36.3,41.8-72.7,62.6-109.1
				c2.1-3.7,4.4-4.9,8.6-4.8c17.3,0.3,34.6,0,52,0.2c3.1,0,5.2-1,7.4-3.1c14.4-14.6,28.9-29.1,43.3-43.6c0.9-0.9,2.1-1.5,2.3-3
				C325.4,128,206.1,128,85.4,128z"/>
		</g>
	</g>
</g>
</svg>
