<svg width="29" height="20" viewBox="0 0 29 20" fill="none" xmlns="http://www.w3.org/2000/svg">
<g clip-path="url(#clip0_1118_21110)">
<path d="M6.27008 4.41272C10.7822 -0.501872 18.0971 -0.501872 22.6093 4.41272L23.1496 5.00501C23.2031 5.06275 23.2457 5.13185 23.2747 5.20823C23.3038 5.2846 23.3188 5.36669 23.3188 5.44963C23.3188 5.53257 23.3038 5.61466 23.2747 5.69103C23.2457 5.76741 23.2031 5.83651 23.1496 5.89425L21.2939 7.91725C21.239 7.9761 21.1657 8.00898 21.0894 8.00898C21.0132 8.00898 20.9399 7.9761 20.8849 7.91725L20.1384 7.10344C16.9909 3.67514 11.8878 3.67514 8.74026 7.10344L7.94018 7.9768C7.88543 8.03602 7.81207 8.06915 7.7357 8.06915C7.65934 8.06915 7.58598 8.03602 7.53122 7.9768L5.67555 5.95379C5.622 5.89599 5.57943 5.82682 5.55036 5.75038C5.52129 5.67394 5.50631 5.59178 5.50631 5.50878C5.50631 5.42578 5.52129 5.34362 5.55036 5.26718C5.57943 5.19074 5.622 5.12157 5.67555 5.06377L6.27008 4.41272ZM26.4505 8.59688L28.1035 10.3976C28.157 10.4553 28.1996 10.5244 28.2287 10.6008C28.2577 10.6772 28.2727 10.7592 28.2727 10.8422C28.2727 10.9251 28.2577 11.0072 28.2287 11.0836C28.1996 11.16 28.157 11.2291 28.1035 11.2868L20.6516 19.4066C20.542 19.5246 20.3955 19.5906 20.2429 19.5906C20.0904 19.5906 19.9439 19.5246 19.8343 19.4066L14.5435 13.6441C14.5302 13.6289 14.5144 13.6169 14.4968 13.6087C14.4793 13.6005 14.4605 13.5963 14.4415 13.5963C14.4225 13.5963 14.4036 13.6005 14.3861 13.6087C14.3686 13.6169 14.3527 13.6289 14.3394 13.6441L9.04931 19.4066C8.93974 19.5246 8.79321 19.5906 8.6407 19.5906C8.48819 19.5906 8.34166 19.5246 8.2321 19.4066L0.775141 11.2868C0.721614 11.2291 0.679057 11.16 0.649995 11.0836C0.620932 11.0072 0.605957 10.9251 0.605957 10.8422C0.605957 10.7592 0.620932 10.6772 0.649995 10.6008C0.679057 10.5244 0.721614 10.4553 0.775141 10.3976L2.42812 8.59688C2.53751 8.47849 2.68411 8.41225 2.83672 8.41225C2.98934 8.41225 3.13594 8.47849 3.24533 8.59688L8.53614 14.3594C8.56354 14.3888 8.60013 14.4052 8.6382 14.4052C8.67627 14.4052 8.71286 14.3888 8.74026 14.3594L14.0311 8.59688C14.1403 8.47854 14.2868 8.41232 14.4393 8.41232C14.5918 8.41232 14.7383 8.47854 14.8476 8.59688L20.1384 14.3594C20.1659 14.3889 20.2026 14.4053 20.2408 14.4053C20.279 14.4053 20.3157 14.3889 20.3432 14.3594L25.6333 8.59688C25.7427 8.47849 25.8893 8.41225 26.0419 8.41225C26.1945 8.41225 26.3411 8.47849 26.4505 8.59688Z" fill="white"/>
</g>
<defs>
<clipPath id="clip0_1118_21110">
<rect width="27.6667" height="18.8638" fill="white" transform="translate(0.605957 0.726776)"/>
</clipPath>
</defs>
</svg>
