<svg width="19" height="19" viewBox="0 0 19 19" fill="none" xmlns="http://www.w3.org/2000/svg">
<path d="M13.1014 9.5L18.5029 4.09849C19.1657 3.43565 19.1657 2.36097 18.5029 1.69759L17.3024 0.497131C16.6396 -0.16571 15.5649 -0.16571 14.9015 0.497131L9.5 5.89864L4.09849 0.497131C3.43565 -0.16571 2.36097 -0.16571 1.69759 0.497131L0.497131 1.69759C-0.16571 2.36043 -0.16571 3.43511 0.497131 4.09849L5.89864 9.5L0.497131 14.9015C-0.16571 15.5643 -0.16571 16.639 0.497131 17.3024L1.69759 18.5029C2.36043 19.1657 3.43565 19.1657 4.09849 18.5029L9.5 13.1014L14.9015 18.5029C15.5643 19.1657 16.6396 19.1657 17.3024 18.5029L18.5029 17.3024C19.1657 16.6396 19.1657 15.5649 18.5029 14.9015L13.1014 9.5Z" fill="white"/>
</svg>
