<?xml version="1.0" encoding="utf-8"?>
<!-- Generator: Adobe Illustrator 26.0.1, SVG Export Plug-In . SVG Version: 6.00 Build 0)  -->
<svg version="1.1" id="Calque_1" xmlns="http://www.w3.org/2000/svg" xmlns:xlink="http://www.w3.org/1999/xlink" x="0px" y="0px"
	 viewBox="0 0 1000 1000" style="enable-background:new 0 0 1000 1000;" xml:space="preserve">
<style type="text/css">
	.st0{fill:url(#SVGID_1_);}
	.st1{fill:#EFB30C;}
	.st2{fill:#FFEA85;}
</style>
<g>
	<radialGradient id="SVGID_1_" cx="500" cy="500" r="490.2584" gradientUnits="userSpaceOnUse">
		<stop  offset="0.7294" style="stop-color:#FFC94E"/>
		<stop  offset="1" style="stop-color:#FFE95E"/>
	</radialGradient>
	<circle class="st0" cx="500" cy="500" r="490.3"/>
	<circle class="st1" cx="500" cy="500" r="370.3"/>
	<g>
		<path class="st2" d="M676.2,429.6H571.8c-14.4-26-40.9-39.8-76.2-39.8c-60.7,0-101,43.1-101,110.4c0,71.8,40.9,113.7,108.8,113.7
			c46.9,0,79.5-24.8,93.9-68.5H477.4V476h205.4v87.8c-19.9,66.8-84.5,133.6-186.6,133.6c-116,0-197.7-81.2-197.7-197.1
			s81.2-197.7,197.1-197.7C588.4,302.6,655.8,350.1,676.2,429.6z"/>
	</g>
</g>
</svg>
