<svg width="55" height="55" viewBox="0 0 55 55" fill="none" xmlns="http://www.w3.org/2000/svg">
<g clip-path="url(#clip0_204_2077)">
<g clip-path="url(#clip1_204_2077)">
<path fill-rule="evenodd" clip-rule="evenodd" d="M26.7288 10.1203C25.1115 10.2029 22.8996 10.6459 21.7683 11.1139C21.7374 11.1265 21.6299 11.1656 21.5295 11.2005C21.429 11.2355 21.3341 11.2725 21.3187 11.2828C21.3032 11.2931 21.2273 11.3243 21.1501 11.3523C21.0727 11.3801 20.9527 11.4275 20.883 11.4575C20.7206 11.5275 20.5748 11.5897 20.5036 11.6196C20.2424 11.7292 19.2045 12.2607 18.972 12.4041C18.9178 12.4373 18.8387 12.4798 18.7963 12.4983C18.7538 12.5169 18.719 12.5418 18.719 12.554C18.719 12.5659 18.7079 12.5759 18.6942 12.5759C18.6708 12.5759 18.1184 12.911 18.0585 12.9615C18.0432 12.9745 17.9799 13.016 17.918 13.0536C17.8562 13.0914 17.7929 13.1329 17.7776 13.146C17.7621 13.1592 17.6418 13.2459 17.5105 13.3388C17.1543 13.5902 17.1472 13.5956 17.0513 13.6786C17.0024 13.7209 16.9548 13.7556 16.9456 13.7558C16.9361 13.7561 16.8965 13.7848 16.8575 13.8195C16.8184 13.8543 16.7388 13.9207 16.6805 13.9671C16.5146 14.0991 16.2134 14.3509 16.092 14.459C16.0311 14.5129 15.9176 14.6141 15.8397 14.6838C15.4704 15.0138 14.6328 15.8792 14.3325 16.2414C14.2951 16.2866 14.2455 16.3438 14.2222 16.3684C14.1991 16.3932 14.1109 16.5016 14.0263 16.6095C13.9416 16.7174 13.8646 16.812 13.855 16.8198C13.8352 16.8358 13.499 17.2861 13.4354 17.3817C13.4122 17.4164 13.3801 17.4593 13.3643 17.4766C13.2398 17.6127 12.5107 18.7693 12.2641 19.2219C12.0335 19.6454 11.5972 20.5545 11.4544 20.9091C11.3984 21.0482 11.3343 21.2018 11.3121 21.2506C11.2896 21.2993 11.2713 21.3568 11.2713 21.3784C11.2713 21.4 11.2598 21.4298 11.2458 21.4445C11.2001 21.492 10.8268 22.6348 10.6907 23.1434C10.4735 23.9551 10.2789 25.0311 10.2025 25.8415C10.1873 26.0037 10.1622 26.2604 10.1469 26.4117C10.1152 26.7245 10.1088 28.5956 10.1389 28.7398C10.1541 28.8124 10.1669 28.7524 10.1936 28.4833C10.2438 27.9757 10.386 27.0968 10.4823 26.6987C10.4973 26.6368 10.5551 26.3965 10.6108 26.1646C10.6666 25.9327 10.7232 25.7115 10.7367 25.6729C10.7502 25.6343 10.7883 25.5078 10.8215 25.3918C10.8548 25.2759 10.8915 25.1557 10.9035 25.1248C10.9153 25.0938 10.9534 24.98 10.988 24.8719C11.0227 24.7636 11.0613 24.6498 11.074 24.6189C11.0865 24.5879 11.1377 24.4488 11.1875 24.3097C11.2374 24.1706 11.295 24.0188 11.3156 23.9724C11.3362 23.926 11.3777 23.8249 11.4079 23.7476C11.4379 23.6704 11.5028 23.5186 11.5519 23.4104C11.6011 23.3021 11.6608 23.1694 11.6849 23.1153C11.7822 22.8954 12.2279 22.0178 12.2555 21.991C12.2636 21.9834 12.2852 21.9455 12.3038 21.9067C12.3552 21.7991 12.5004 21.5495 12.5785 21.4345C12.6169 21.378 12.6484 21.3214 12.6484 21.3089C12.6484 21.2963 12.6611 21.2708 12.6766 21.2521C12.6921 21.2335 12.8461 21.0032 13.0189 20.7405C13.1918 20.4776 13.3467 20.2484 13.3633 20.2309C13.3798 20.2135 13.4122 20.171 13.4354 20.1364C13.5025 20.0361 13.6693 19.8143 13.6892 19.7988C13.699 19.7911 13.7187 19.7643 13.7329 19.739C13.7612 19.6884 13.8445 19.5847 14.1801 19.1816C14.6605 18.6049 15.2639 17.9758 15.7981 17.4943C15.9439 17.3628 16.0694 17.2475 16.0771 17.2377C16.0849 17.2279 16.224 17.1099 16.3864 16.9753C16.5486 16.8407 16.7068 16.7094 16.7377 16.6834C16.7685 16.6576 16.8382 16.6055 16.8923 16.5677C16.9462 16.5301 16.9968 16.4917 17.0046 16.4822C17.0208 16.4628 17.2479 16.2927 17.3422 16.2296C17.3767 16.2063 17.4192 16.1743 17.4366 16.1584C17.7865 15.8384 19.8239 14.6723 20.5481 14.3777C20.6576 14.333 20.8699 14.2431 20.9533 14.206C21.2002 14.0961 21.2789 14.0654 21.3155 14.0654C21.3386 14.0654 21.3644 14.0543 21.373 14.0404C21.3815 14.0268 21.4233 14.0071 21.466 13.9969C21.5388 13.9794 21.9536 13.8347 22.0776 13.7835C22.1084 13.7706 22.2287 13.7332 22.3445 13.7C22.4605 13.6668 22.587 13.629 22.6256 13.616C22.69 13.5941 22.8222 13.556 23.1173 13.4737C26.0336 12.6619 29.5778 12.6981 32.5324 13.5701C32.6097 13.5931 32.7235 13.6258 32.7854 13.6432C32.8471 13.6605 32.923 13.685 32.954 13.6975C32.9849 13.7101 33.086 13.7431 33.1788 13.771C33.2715 13.799 33.3854 13.8371 33.4317 13.856C33.4781 13.8749 33.6488 13.9381 33.8111 13.9966C33.9735 14.0549 34.1189 14.1113 34.1344 14.1214C34.1497 14.1317 34.2256 14.1629 34.303 14.1909C34.3803 14.2187 34.513 14.2728 34.5981 14.3111C34.6831 14.3494 34.8664 14.4318 35.0055 14.4946C35.2951 14.6249 36.0116 14.9905 36.1664 15.0868C36.2235 15.1225 36.2906 15.1591 36.3154 15.1682C36.3744 15.19 37.3193 15.7721 37.3523 15.8072C37.3601 15.8153 37.4675 15.8901 37.5913 15.9733C37.8982 16.1797 38.0663 16.2967 38.083 16.3156C38.0907 16.3244 38.211 16.4176 38.3501 16.523C38.4892 16.6282 38.6093 16.7223 38.617 16.7321C38.6248 16.7417 38.7256 16.8252 38.8411 16.9174C38.9566 17.0099 39.0713 17.1046 39.0957 17.1282C39.1204 17.1518 39.2219 17.2402 39.3214 17.3247C39.5171 17.491 40.5382 18.5041 40.6975 18.6904C40.8478 18.8661 41.0995 19.1552 41.1464 19.2061C41.1695 19.2314 41.2579 19.3402 41.3425 19.4481C41.4272 19.556 41.5036 19.6506 41.5125 19.6584C41.5213 19.6661 41.559 19.7167 41.5965 19.7708C41.6339 19.8248 41.6776 19.8835 41.6936 19.9012C41.7246 19.9354 41.7287 19.941 41.9855 20.3047C42.0784 20.4361 42.1651 20.5563 42.1782 20.5718C42.1914 20.5872 42.2329 20.6504 42.2707 20.7123C42.3083 20.7742 42.3497 20.8374 42.3627 20.8528C42.4133 20.9126 42.7484 21.4651 42.7484 21.4885C42.7484 21.5022 42.761 21.5133 42.7765 21.5133C42.7919 21.5133 42.8045 21.5275 42.8045 21.5448C42.8045 21.562 42.8472 21.6473 42.8995 21.7345C43.1549 22.1608 43.5182 22.8812 43.7869 23.4947C43.9072 23.7692 43.9222 23.8055 43.9733 23.9444C44.0018 24.0217 44.0412 24.1166 44.061 24.1552C44.0809 24.1938 44.0971 24.2414 44.0972 24.2609C44.0974 24.2805 44.1097 24.3185 44.1249 24.3453C44.1519 24.3935 44.4566 25.3006 44.5188 25.5183C44.8066 26.525 44.9847 27.4147 45.0953 28.399C45.1189 28.6077 45.1424 28.791 45.1478 28.8065C45.2051 28.9733 45.1963 26.6681 45.1378 26.1931C45.1225 26.0693 45.0973 25.8415 45.082 25.6869C45.0309 25.1754 44.9281 24.5512 44.7765 23.832C44.7331 23.6264 44.5763 23.0003 44.5478 22.9185C44.5341 22.8799 44.4957 22.7534 44.4623 22.6375C44.39 22.3873 44.1615 21.6917 44.1254 21.6116C44.1114 21.5807 44.0358 21.391 43.9574 21.19C43.879 20.9892 43.8033 20.7995 43.7891 20.7684C43.7748 20.7376 43.736 20.6491 43.7026 20.5718C43.6323 20.4088 43.4043 19.9189 43.3671 19.8511C43.3532 19.8256 43.2733 19.6739 43.1895 19.5138C42.9364 19.03 42.4754 18.2466 42.4341 18.2297C42.4214 18.2245 42.4111 18.2032 42.4111 18.1825C42.4111 18.1618 42.3948 18.128 42.3749 18.1076C42.355 18.0871 42.3081 18.0198 42.2707 17.9581C42.233 17.8962 42.1894 17.8302 42.1734 17.8114C42.1177 17.7464 42.0872 17.7039 41.9344 17.4802C41.8501 17.3566 41.7678 17.24 41.7518 17.2211C41.6965 17.1566 41.6646 17.1146 41.5967 17.0164C41.5592 16.9623 41.5213 16.9117 41.5125 16.9041C41.5036 16.8964 41.4272 16.8016 41.3425 16.6935C41.166 16.468 41.0936 16.3792 41.0339 16.3151C41.0108 16.2901 40.9223 16.189 40.8373 16.0901C40.3992 15.581 39.7175 14.8981 39.2369 14.487C39.1374 14.402 39.036 14.3131 39.0114 14.2895C38.987 14.2661 38.8723 14.1711 38.7568 14.0789C38.6413 13.9867 38.5405 13.9037 38.5327 13.8944C38.3712 13.7035 36.2994 12.3229 36.1743 12.3229C36.1601 12.3229 36.1443 12.3135 36.1392 12.3019C36.134 12.2902 36.0159 12.2226 35.8768 12.1514C35.7377 12.0803 35.548 11.9832 35.4553 11.9354C35.0296 11.7167 34.3169 11.4064 33.8251 11.2258C33.686 11.1747 33.5596 11.124 33.5442 11.1129C33.5287 11.1019 33.4717 11.0835 33.4177 11.0722C33.3636 11.0609 33.3066 11.042 33.2913 11.0301C33.2758 11.0183 33.2193 10.999 33.1656 10.9876C33.112 10.9761 33.0488 10.9564 33.0252 10.9437C33.0014 10.9311 32.8872 10.8933 32.7712 10.8599C32.6554 10.8264 32.4972 10.7807 32.42 10.7582C32.3427 10.736 32.2352 10.7063 32.181 10.6925C32.1269 10.6786 32.0132 10.6486 31.9281 10.6255C31.8431 10.6026 31.6472 10.5571 31.4925 10.5245C31.3379 10.4918 31.1672 10.4535 31.1131 10.4392C31.059 10.4248 30.9263 10.3989 30.818 10.3815C30.7098 10.3641 30.5138 10.3324 30.3825 10.3109C30.1332 10.2702 29.5928 10.2026 29.1599 10.1582C28.8899 10.1306 27.0807 10.1023 26.7288 10.1203ZM27.9092 19.738C27.9092 19.7508 27.7588 19.7761 27.575 19.7939C27.2521 19.8256 26.7764 19.9309 26.6023 20.0091C26.5017 20.0545 26.2172 20.158 26.0894 20.196C26.0391 20.211 25.9981 20.2337 25.9981 20.2469C25.9981 20.2599 25.9634 20.2793 25.9209 20.2899C25.8331 20.312 25.0425 21.0888 25.0425 21.1533C25.0425 21.1754 25.0179 21.22 24.9879 21.2522C24.9577 21.2846 24.8869 21.4071 24.8304 21.5246C24.7739 21.642 24.7194 21.7381 24.7093 21.7381C24.6705 21.7381 24.5373 22.0706 24.5029 22.2536L24.4667 22.4458L24.3682 22.4306C24.3141 22.4224 24.1874 22.4069 24.0869 22.3961C23.9864 22.3853 23.8981 22.3674 23.8903 22.3564C23.8826 22.3453 23.7122 22.2887 23.5117 22.2305C23.3112 22.1721 23.1279 22.1138 23.1042 22.101C23.0806 22.088 23.0042 22.0514 22.9347 22.0197C22.8652 21.988 22.7892 21.9516 22.7661 21.9387C22.7428 21.9259 22.6924 21.8984 22.6536 21.8774C22.3533 21.7146 22.2884 21.6745 22.2884 21.6517C22.2884 21.6374 22.2722 21.6258 22.2524 21.6258C22.2327 21.6258 22.1959 21.6035 22.171 21.5765C22.1459 21.5495 22.0356 21.4588 21.9258 21.3748C21.816 21.291 21.7261 21.2087 21.7261 21.1919C21.7261 21.1752 21.7009 21.1457 21.67 21.1263C21.6391 21.1071 21.6138 21.0794 21.6138 21.0647C21.6138 21.027 21.4609 20.8055 21.3914 20.7426C21.3592 20.7135 21.3327 20.674 21.3327 20.6551C21.3327 20.6362 21.312 20.6035 21.2865 20.5824C21.2459 20.5487 21.2422 20.5509 21.2562 20.6002C21.265 20.6308 21.2805 20.7826 21.2908 20.9371C21.3117 21.2543 21.3445 21.42 21.4191 21.5836C21.4472 21.6453 21.4902 21.7688 21.5147 21.8576C21.5391 21.9465 21.5715 22.0192 21.5865 22.0192C21.6015 22.0192 21.6138 22.0564 21.6138 22.1021C21.6138 22.1477 21.6305 22.1951 21.6509 22.2075C21.6715 22.2198 21.7189 22.2736 21.7563 22.3269C21.7939 22.3804 21.8501 22.4499 21.8813 22.4816C21.9123 22.5133 21.9752 22.5944 22.0207 22.6618C22.0663 22.7293 22.1199 22.7907 22.1398 22.7982C22.1597 22.8058 22.1759 22.8283 22.1759 22.8478C22.1759 22.8676 22.1961 22.9004 22.2209 22.921C22.2457 22.9416 22.2771 22.9873 22.2905 23.0227C22.3049 23.0606 22.3384 23.0871 22.372 23.0871C22.4032 23.0871 22.4288 23.0976 22.4288 23.11C22.4288 23.1227 22.4826 23.1628 22.5482 23.1993C22.614 23.2357 22.6779 23.2822 22.6902 23.3028C22.7025 23.3234 22.731 23.3401 22.7534 23.3401C22.7759 23.3401 22.7942 23.3527 22.7942 23.3682C22.7942 23.3837 22.8087 23.3964 22.8264 23.3964C22.8441 23.3964 22.9106 23.4385 22.974 23.4903C23.0374 23.5419 23.1526 23.6188 23.2298 23.6611C23.307 23.7033 23.3844 23.7561 23.4018 23.7782C23.419 23.8004 23.5266 23.8461 23.6406 23.88C23.7547 23.9139 23.8544 23.9497 23.8621 23.9598C23.8699 23.9699 23.9328 23.9856 24.0021 23.9945C24.0712 24.0036 24.1325 24.0245 24.1379 24.0409C24.1434 24.0574 24.1736 24.0709 24.205 24.0709C24.2663 24.0709 24.2577 25.4201 24.1962 25.4434C24.1825 25.4484 24.1714 25.5243 24.1717 25.612C24.1723 25.8766 24.05 27.0907 24.0207 27.1108C23.9537 27.1563 22.8475 27.2648 22.1899 27.2902C21.9116 27.301 21.6713 27.3192 21.656 27.3307C21.6405 27.3422 21.299 27.3599 20.8972 27.37C20.4952 27.3801 19.6858 27.4064 19.0984 27.4282C18.5111 27.4501 17.4885 27.4752 16.8262 27.484C15.7208 27.4986 15.2455 27.5285 15.206 27.5857C15.1983 27.5968 15.0401 27.6342 14.8546 27.6688C14.6691 27.7034 14.5047 27.741 14.4893 27.7523C14.4738 27.7637 14.4234 27.7819 14.3772 27.7931C14.331 27.8042 14.2867 27.8226 14.2787 27.8339C14.218 27.9212 13.9357 27.9823 13.6806 27.9632C13.4577 27.9464 13.4103 27.9504 13.3717 27.9889C13.3467 28.014 13.2879 28.0421 13.2408 28.0514C13.194 28.0609 13.1412 28.086 13.1235 28.1072C13.1058 28.1286 13.0749 28.146 13.055 28.146C12.9491 28.146 12.4517 28.6506 12.4517 28.758C12.4517 28.7701 12.4264 28.8017 12.3955 28.8281C12.3646 28.8546 12.3394 28.9 12.3394 28.929C12.3394 28.958 12.3016 29.0244 12.2554 29.0767C12.2093 29.1291 12.1714 29.1876 12.1711 29.207C12.1709 29.2264 12.1503 29.2421 12.1254 29.2421C12.0749 29.2421 12.0916 29.4709 12.1464 29.5338C12.1616 29.5512 12.1994 29.608 12.2304 29.6603L12.2867 29.7554L12.4776 29.7418C12.6213 29.7315 12.683 29.7136 12.727 29.6694C12.7592 29.6372 12.8591 29.5755 12.9489 29.5323C13.0386 29.4892 13.1184 29.4458 13.1262 29.4362C13.1339 29.4266 13.2225 29.3898 13.323 29.3546C13.4235 29.3193 13.512 29.2812 13.5197 29.2698C13.5403 29.2392 13.8661 29.2089 13.8992 29.2345C13.9329 29.2607 13.9879 29.3463 14.0238 29.4286C14.0381 29.4617 14.101 29.5123 14.1634 29.5411C14.2959 29.6021 14.3047 29.623 14.2082 29.6472C14.1696 29.6569 14.1379 29.6772 14.1379 29.6924C14.1379 29.7075 14.1239 29.72 14.1069 29.72C14.0899 29.72 14.0197 29.758 13.9509 29.8043C13.8823 29.8507 13.8197 29.8886 13.812 29.8886C13.7766 29.8886 13.6041 30.0819 13.6041 30.1217C13.6041 30.1461 13.5914 30.1741 13.5759 30.1837C13.5091 30.2249 13.5627 30.3148 13.7305 30.4433C13.9044 30.5763 14.5877 30.5805 14.5877 30.4485C14.5877 30.4343 14.6111 30.4225 14.6396 30.4225C14.7064 30.4225 14.9249 30.265 14.9249 30.217C14.9249 30.1967 14.9623 30.1525 15.008 30.1188C15.0537 30.0849 15.1259 29.9972 15.1686 29.9237C15.2735 29.7428 15.307 29.7219 15.4923 29.7209C15.5804 29.7203 15.6601 29.7074 15.6697 29.6918C15.6792 29.6763 15.7203 29.6637 15.761 29.6637C15.8421 29.6637 16.5616 29.4785 16.6355 29.4387C16.7065 29.4003 16.9493 29.3301 17.082 29.3096C17.1476 29.2994 17.2014 29.2821 17.2014 29.2709C17.2014 29.26 17.368 29.243 17.5717 29.2332C17.7754 29.2234 17.9499 29.2027 17.9597 29.187C18.0533 29.0354 22.3453 29.0349 22.457 29.1863C22.4646 29.1969 22.5396 29.2134 22.6234 29.2231C22.7072 29.2328 22.7831 29.2511 22.792 29.2635C22.801 29.2762 22.8826 29.3113 22.9737 29.3416C23.0645 29.372 23.1617 29.4165 23.1897 29.4406C23.2175 29.4649 23.3175 29.5091 23.4117 29.5391L23.5832 29.5935L23.5642 29.8605C23.5536 30.0074 23.5367 30.1338 23.5264 30.1416C23.4542 30.1961 23.3143 32.6513 23.3541 33.1628C23.3856 33.5668 23.4765 34.1133 23.5222 34.1739C23.5342 34.1897 23.5664 34.3165 23.594 34.4557C23.6338 34.6575 23.6682 34.7455 23.7638 34.8912C23.8298 34.9917 23.9141 35.1281 23.9512 35.1944C24.0213 35.3199 24.3872 35.7344 24.4279 35.7344C24.4407 35.7344 24.5469 35.8293 24.664 35.9452C24.7812 36.0612 24.8916 36.1559 24.9097 36.1559C24.9832 36.1559 25.183 36.2505 25.183 36.2855C25.183 36.306 25.2209 36.3511 25.2673 36.3853C25.3354 36.4355 25.3516 36.4683 25.3516 36.5548C25.3516 36.6136 25.3643 36.6618 25.3798 36.6618C25.3978 36.6618 25.408 36.9268 25.408 37.4001C25.408 38.2451 25.4262 38.319 25.645 38.3601C25.9607 38.4193 26.2209 38.1765 26.2246 37.8193C26.2255 37.7315 26.2366 37.6026 26.2492 37.5331C26.2619 37.4635 26.2948 37.277 26.3221 37.1187C26.3496 36.9601 26.3828 36.8305 26.3959 36.8305C26.4089 36.8305 26.4197 36.7989 26.4197 36.7603C26.4197 36.6715 26.4072 36.6699 26.6909 36.7924C26.7502 36.818 26.8981 36.8305 27.1396 36.8305C27.3377 36.8305 27.6709 36.8443 27.8802 36.8612C28.1972 36.8866 28.3132 36.8843 28.5776 36.847C28.752 36.8225 28.955 36.8025 29.0287 36.8025C29.1024 36.8025 29.1747 36.7913 29.1894 36.7777C29.2041 36.7642 29.325 36.7467 29.4584 36.7389L29.7005 36.7247L29.7631 37.0797C29.7975 37.275 29.8351 37.538 29.8469 37.6642C29.8739 37.9541 30.0444 38.1795 30.2366 38.1795C30.2705 38.1795 30.2981 38.1922 30.2981 38.2077C30.2981 38.251 30.46 38.2409 30.5155 38.1942C30.5428 38.1712 30.5899 38.1347 30.6202 38.1129C30.6723 38.0753 30.6759 38.0315 30.6834 37.3183C30.6878 36.9031 30.6983 36.5113 30.7067 36.4472L30.7222 36.3308L31.0387 36.2293C31.2129 36.1735 31.3652 36.128 31.3773 36.128C31.4058 36.128 31.6472 35.8796 31.6472 35.8501C31.6472 35.8376 31.6913 35.7818 31.7455 35.7261C31.7996 35.6703 31.8438 35.6114 31.8438 35.5953C31.8438 35.5791 31.8637 35.5437 31.8878 35.5167C31.9986 35.3926 32.1003 35.2389 32.1861 35.0656C32.2375 34.962 32.2943 34.8646 32.3126 34.8491C32.3812 34.7909 32.5754 34.3627 32.6299 34.1496C32.6611 34.0275 32.6977 33.9137 32.7112 33.8966C32.7248 33.8794 32.7426 33.8025 32.7508 33.7258C32.7591 33.6491 32.7796 33.5816 32.7967 33.5759C32.835 33.5631 32.8377 33.4098 32.7997 33.397C32.7837 33.3916 32.764 33.1729 32.7533 32.8818C32.7431 32.6036 32.7262 32.3695 32.7157 32.3618C32.6979 32.3486 32.5727 30.7928 32.5739 30.5982C32.5743 30.548 32.5636 30.5068 32.5503 30.5068C32.5368 30.5068 32.5174 30.3583 32.5068 30.1767C32.4964 29.995 32.4749 29.7731 32.4594 29.6836C32.4272 29.4984 32.4444 29.4111 32.5132 29.4102C32.5392 29.4101 32.626 29.3736 32.706 29.3295C32.7861 29.2854 32.8871 29.2404 32.9306 29.2295C32.9741 29.2185 33.0161 29.2005 33.024 29.1895C33.0429 29.1629 33.3306 29.0455 33.3769 29.0455C33.3968 29.0455 33.4172 29.0327 33.4225 29.017C33.4277 29.0013 33.5395 28.9804 33.6707 28.9706C33.802 28.9607 33.9164 28.9421 33.925 28.9293C34.0187 28.7871 38.3641 28.7917 38.3641 28.934C38.3641 28.9445 38.4609 28.9603 38.5791 28.9693C38.6973 28.9782 38.8017 28.9978 38.8109 29.0128C38.8202 29.0278 38.9406 29.0667 39.0787 29.0996C39.2167 29.1323 39.3463 29.1731 39.3671 29.1903C39.3878 29.2075 39.493 29.2279 39.6011 29.2357C39.709 29.2435 39.7974 29.2607 39.7974 29.274C39.7974 29.2875 39.9163 29.2984 40.0616 29.2984H40.3259L40.3539 29.3787C40.3692 29.4229 40.4368 29.516 40.5041 29.5858C40.5714 29.6554 40.6613 29.7522 40.7039 29.8006C40.7466 29.849 40.7984 29.8886 40.8191 29.8886C40.8399 29.8886 40.8859 29.9138 40.9213 29.9446C41.225 30.208 41.9774 30.002 41.9201 29.6711C41.9025 29.5703 41.6383 29.3264 41.5466 29.3264C41.5312 29.3264 41.5041 29.3089 41.486 29.2873C41.4682 29.2657 41.4098 29.2397 41.3562 29.2298C41.2459 29.2091 41.2292 29.1566 41.3198 29.1153C41.3533 29.1001 41.3945 29.0624 41.4112 29.0313C41.4279 29.0005 41.4574 28.9651 41.4766 28.9527C41.496 28.9403 41.5118 28.9165 41.5118 28.8996C41.5118 28.829 41.6585 28.7302 41.7197 28.7598C41.7521 28.7755 41.8641 28.8156 41.9685 28.849C42.0729 28.8823 42.1582 28.921 42.1582 28.9354C42.1582 28.9495 42.1951 28.9612 42.2403 28.9612C42.2855 28.9612 42.3582 28.991 42.402 29.0276C42.4457 29.064 42.5082 29.1023 42.541 29.1126C42.5737 29.1227 42.6231 29.1561 42.6507 29.1866C42.7231 29.2667 43.0418 29.2677 43.0844 29.1882C43.1003 29.1585 43.1355 29.1119 43.1627 29.0848C43.2919 28.9556 43.1077 28.4836 42.928 28.4833C42.9057 28.4833 42.7863 28.318 42.7047 28.1743C42.6693 28.1121 42.3373 27.7808 42.3105 27.7808C42.2764 27.7808 41.9196 27.5997 41.91 27.5774C41.896 27.5454 41.7648 27.5513 41.7648 27.584C41.7648 27.6194 41.3525 27.6217 41.3306 27.5863C41.3056 27.5459 40.8935 27.3971 40.7459 27.3754C40.6726 27.3646 40.6124 27.3462 40.6124 27.3347C40.6124 27.2376 40.0139 27.214 37.299 27.204C35.8212 27.1987 34.3718 27.1867 34.0781 27.1776C33.344 27.155 32.4903 27.1012 32.4903 27.0776C32.4903 27.0668 32.3864 27.0494 32.2596 27.0388C31.9768 27.0152 32.0193 27.0987 31.949 26.4275C31.9161 26.113 31.8807 25.8493 31.8706 25.8415C31.8605 25.8338 31.8436 25.4925 31.8331 25.0832C31.8224 24.6687 31.8019 24.3269 31.7868 24.3117C31.6854 24.2104 31.7814 23.9866 31.9262 23.9866C31.9583 23.9866 31.9844 23.9768 31.9844 23.9652C31.9844 23.9534 32.0697 23.9198 32.1741 23.8906C32.2783 23.8613 32.4372 23.795 32.5269 23.7434C32.6166 23.6917 32.7019 23.6493 32.7166 23.6493C32.7313 23.6493 32.7432 23.6367 32.7432 23.6212C32.7432 23.6057 32.7626 23.593 32.7862 23.593C32.8098 23.593 32.8366 23.5736 32.8458 23.5498C32.8549 23.5261 32.8957 23.4878 32.9363 23.4647C32.9769 23.4416 33.0425 23.4009 33.082 23.3745C33.1216 23.3478 33.2486 23.2628 33.3644 23.1856C33.501 23.0944 33.6231 22.9824 33.7125 22.8664C33.788 22.7682 33.8665 22.6814 33.8867 22.6736C33.9069 22.6659 33.924 22.6387 33.9243 22.6134C33.9248 22.588 33.9627 22.5303 34.0086 22.4853C34.0546 22.4402 34.0922 22.3868 34.0922 22.3667C34.0922 22.3467 34.1175 22.3168 34.1484 22.3003C34.1793 22.2838 34.2045 22.2529 34.2045 22.232C34.2045 22.2109 34.2212 22.1875 34.2415 22.1797C34.2617 22.172 34.3022 22.0853 34.3314 21.987C34.3607 21.8888 34.3936 21.802 34.4047 21.7941C34.4843 21.7376 34.6759 20.6261 34.6163 20.5666C34.6103 20.5605 34.5853 20.598 34.5609 20.6496C34.5364 20.7012 34.4873 20.775 34.4518 20.8136C34.4163 20.8523 34.3695 20.9179 34.3477 20.9592C34.3258 21.0007 34.2848 21.0595 34.2563 21.09C34.2278 21.1205 34.2045 21.1566 34.2045 21.1701C34.2045 21.1836 34.1445 21.2337 34.0712 21.2816C33.9976 21.3293 33.8941 21.4136 33.8408 21.4689C33.7875 21.5242 33.7329 21.5694 33.7192 21.5694C33.7057 21.5694 33.6771 21.5853 33.6555 21.6047C33.5535 21.6961 33.5139 21.7244 33.4213 21.7716C33.3665 21.7995 33.311 21.8414 33.298 21.8645C33.285 21.8878 33.2447 21.9067 33.2085 21.9067C33.1722 21.9067 33.136 21.9241 33.1279 21.9453C33.1198 21.9666 33.079 21.9924 33.0375 22.0028C32.9958 22.0133 32.9095 22.0463 32.8454 22.0762C32.6609 22.1623 32.1198 22.3273 32.0195 22.3278C31.9692 22.3281 31.9281 22.3394 31.9281 22.3527C31.9281 22.3908 31.5925 22.4209 31.551 22.3865C31.5316 22.3703 31.4996 22.2843 31.4799 22.1952C31.4418 22.0232 31.4058 21.9384 31.3517 21.8927C31.3335 21.8772 31.3015 21.8204 31.2806 21.7662C31.2596 21.7121 31.1817 21.5644 31.1075 21.4379C31.0333 21.3113 30.9726 21.1939 30.9726 21.177C30.9726 21.1458 30.8851 21.043 30.6705 20.8221C30.6047 20.7545 30.5511 20.6867 30.5511 20.6715C30.5511 20.6561 30.5131 20.6157 30.4668 20.5814C30.4204 20.547 30.3825 20.5025 30.3825 20.4821C30.3825 20.4619 30.3649 20.4454 30.3435 20.4454C30.3221 20.4454 30.2986 20.4224 30.2914 20.3944C30.275 20.3319 30.0604 20.2258 29.7079 20.1062C29.5611 20.0563 29.4282 20.0064 29.4128 19.9951C29.3471 19.9472 28.7852 19.8253 28.4861 19.7941C28.308 19.7756 28.1621 19.7501 28.1621 19.7374C28.1621 19.725 28.1051 19.7145 28.0357 19.7145C27.9662 19.7145 27.9092 19.7251 27.9092 19.738Z" fill="#FCF9E5"/>
<path fill-rule="evenodd" clip-rule="evenodd" d="M26.0262 6.26737C18.624 6.7488 11.9185 10.3985 7.43508 16.3857C7.17505 16.733 7.01958 16.9732 6.89581 17.2192C2.39414 26.162 4.14094 36.9889 11.2278 44.0686C20.9758 53.807 36.9292 52.9861 45.6603 42.2972C51.0038 35.7557 52.3496 26.8328 49.1853 18.9279C48.7759 17.9047 48.3563 17.0583 48.0533 16.6438C43.5469 10.4792 36.7487 6.7365 29.2033 6.26602C28.4057 6.21627 26.8014 6.21695 26.0262 6.26737ZM28.5978 10.1035C37.9114 10.6133 45.1902 18.2937 45.2042 27.6264C45.2057 28.5533 45.1954 28.7385 45.0921 29.6639C44.2309 37.3705 38.2423 43.6724 30.5512 44.9652C21.0539 46.5618 12.0195 40.162 10.3446 30.6513C10.293 30.3587 10.2412 29.9734 10.142 29.144C10.008 28.023 10.1233 25.7684 10.3855 24.3856C12.0238 15.7476 19.8325 9.62395 28.5978 10.1035Z" fill="#F3C314"/>
<path fill-rule="evenodd" clip-rule="evenodd" d="M26.7706 0.520004C26.1413 0.538891 25.3393 0.586445 25.1125 0.618484C25.0506 0.627253 24.823 0.653222 24.6067 0.675987C23.514 0.791499 22.333 0.998409 21.2481 1.26451C21.1631 1.28525 21.0366 1.31577 20.967 1.33213C20.8365 1.36282 20.7903 1.37513 20.4331 1.47479C20.3171 1.50717 20.1527 1.55303 20.0677 1.57664C19.9827 1.60025 19.8815 1.6301 19.8429 1.64308C19.8043 1.65607 19.6209 1.71306 19.4354 1.76989C19.2499 1.82672 19.0728 1.88338 19.042 1.89603C19.0109 1.90851 18.9035 1.94645 18.803 1.98051C18.7025 2.01441 18.5951 2.05218 18.5641 2.06466C18.5332 2.07697 18.3941 2.12789 18.255 2.17781C17.8467 2.32452 17.3348 2.52654 17.0464 2.65503C17.0156 2.66869 16.927 2.70714 16.8498 2.74036C16.7724 2.77358 16.6459 2.82973 16.5687 2.86514C16.4915 2.90056 16.365 2.95772 16.2876 2.99196C15.9151 3.15738 14.877 3.68739 14.4749 3.91757C14.3899 3.9663 14.2887 4.0211 14.2501 4.03965C14.2115 4.05803 14.1735 4.07979 14.1658 4.08771C14.1511 4.10306 14.1024 4.13139 13.8869 4.24994C13.8162 4.28889 13.7039 4.35702 13.6375 4.40137C13.5708 4.44555 13.5046 4.4818 13.4899 4.4818C13.4752 4.4818 13.4631 4.4931 13.4631 4.50693C13.4631 4.52059 13.4316 4.53981 13.3929 4.54959C13.3543 4.5592 13.3226 4.57961 13.3226 4.59478C13.3226 4.60996 13.3095 4.62227 13.2935 4.62227C13.2773 4.62227 13.2299 4.64622 13.1881 4.67556C13.1461 4.7049 12.864 4.89326 12.5609 5.0941C12.2579 5.29494 11.9023 5.53979 11.7706 5.6381C11.6391 5.73641 11.5031 5.83573 11.4686 5.85901C11.434 5.88211 11.366 5.93573 11.3173 5.97789C11.2686 6.02022 11.2202 6.05496 11.2097 6.05529C11.1993 6.05546 11.174 6.07165 11.1536 6.09121C11.1332 6.11077 11.0279 6.19576 10.9197 6.28024C10.8114 6.36473 10.7167 6.44061 10.7089 6.44921C10.7011 6.45764 10.6065 6.53386 10.4986 6.61852C10.3907 6.70317 10.2823 6.79136 10.2575 6.81447C10.2329 6.83774 10.1757 6.88715 10.1305 6.92441C9.26697 7.63704 7.55372 9.33481 7.10753 9.92013C7.07212 9.9665 7.03486 10.0107 7.02457 10.0184C7.01428 10.0262 6.89574 10.1653 6.76117 10.3277C6.62661 10.4899 6.48951 10.6543 6.45646 10.693C6.38665 10.7747 5.57201 11.8621 5.50962 11.9568C5.48635 11.9921 5.45414 12.0351 5.43796 12.0525C5.29766 12.203 4.23413 13.8936 3.95066 14.4167C3.90024 14.5096 3.8301 14.6362 3.79468 14.6979C3.75927 14.7598 3.5952 15.076 3.43011 15.4006C3.15778 15.9362 3.05627 16.149 2.82693 16.6653C2.78579 16.7581 2.74093 16.8593 2.72711 16.8901C2.71345 16.9211 2.67534 17.0097 2.64245 17.0869C2.60957 17.1641 2.56623 17.2653 2.546 17.3117C2.52593 17.3581 2.48681 17.4592 2.45899 17.5366C2.43116 17.6139 2.39997 17.6898 2.38968 17.7053C2.37956 17.7206 2.32324 17.8662 2.2649 18.0284C2.20638 18.1908 2.14231 18.3614 2.12258 18.4078C2.08042 18.5061 1.80876 19.3229 1.71585 19.6304C1.68077 19.7464 1.64216 19.8664 1.63002 19.8975C1.61788 19.9283 1.59326 20.0105 1.57521 20.0801C1.55734 20.1496 1.52446 20.2728 1.50203 20.354C1.42328 20.6398 1.38163 20.7998 1.30979 21.0919C1.26983 21.2541 1.22531 21.4312 1.21098 21.4853C1.17877 21.6072 1.11048 21.9217 1.06748 22.1458C1.04977 22.2386 1.01739 22.403 0.99581 22.5112C0.814198 23.4197 0.662603 24.5653 0.592285 25.5606C0.518595 26.6046 0.506791 26.8914 0.50696 27.6258C0.50696 28.3585 0.519607 28.6689 0.591779 29.7202C0.658218 30.6885 0.815885 31.8854 0.999014 32.8117C1.02498 32.943 1.06259 33.1328 1.08248 33.2333C1.11908 33.4174 1.184 33.7068 1.25297 33.9921C1.27354 34.0771 1.30372 34.2036 1.32008 34.2732C1.35077 34.4037 1.36308 34.4499 1.46274 34.8071C1.49511 34.9231 1.54098 35.0875 1.56459 35.1725C1.5882 35.2575 1.61821 35.3587 1.63137 35.3973C1.64435 35.4361 1.68212 35.5625 1.71534 35.6784C1.74856 35.7944 1.78583 35.9145 1.79814 35.9453C1.81062 35.9764 1.84957 36.0964 1.88481 36.2124C1.92006 36.3283 1.958 36.4359 1.96946 36.4512C1.98076 36.4667 1.99897 36.5214 2.00993 36.5726C2.02089 36.6239 2.04754 36.6998 2.06929 36.7413C2.09087 36.7828 2.10858 36.8296 2.10875 36.8453C2.10892 36.8779 2.25815 37.276 2.32088 37.4111C2.34331 37.4598 2.36186 37.5138 2.36186 37.531C2.36186 37.5482 2.37417 37.5841 2.38918 37.6111C2.40418 37.6379 2.46152 37.7736 2.51649 37.9127C2.57163 38.0519 2.62829 38.191 2.64229 38.2218C2.65645 38.2529 2.6949 38.3414 2.72778 38.4186C2.90568 38.8368 2.94042 38.9109 3.32944 39.6974C3.75168 40.5516 3.86669 40.7631 4.33766 41.5523C4.65215 42.0794 5.40238 43.228 5.52362 43.3679C5.53913 43.3858 5.57067 43.4291 5.59394 43.4642C5.66189 43.5673 6.32999 44.4598 6.35057 44.4753C6.36102 44.4829 6.40031 44.5333 6.43791 44.5873C6.47569 44.6413 6.5256 44.7055 6.54904 44.7301C6.57248 44.7546 6.61683 44.8055 6.64786 44.8433C6.67871 44.8809 6.74009 44.9558 6.78444 45.0097C6.9927 45.2637 7.07465 45.3606 7.13957 45.4293C7.17836 45.4701 7.24598 45.5471 7.29016 45.6006C7.70768 46.106 8.97238 47.37 9.69579 48.0051C9.76459 48.0655 9.84149 48.1338 9.86661 48.157C9.92057 48.2068 9.94519 48.2274 10.3865 48.5934C10.5723 48.7476 10.7661 48.9054 10.8168 48.944C10.8678 48.9826 10.9495 49.0487 10.9988 49.0911C11.048 49.1334 11.0969 49.1681 11.1074 49.1683C11.1178 49.1686 11.1465 49.1889 11.1709 49.2133C11.2128 49.2552 11.7259 49.6398 11.8616 49.7309C11.896 49.7541 11.9385 49.7862 11.9559 49.8022C12.0451 49.8843 13.4891 50.8222 13.702 50.9364C13.7484 50.9612 13.7926 50.9878 13.8003 50.9956C13.8152 51.0104 13.8683 51.0413 14.0793 51.1573C14.1501 51.1961 14.2206 51.2374 14.2361 51.2489C14.2514 51.2603 14.3526 51.318 14.4609 51.3772C14.5691 51.4364 14.7335 51.5263 14.8263 51.577C15.2087 51.7861 16.5851 52.4566 16.634 52.4574C16.6444 52.4576 16.7225 52.4929 16.8076 52.5357C16.8926 52.5785 17.0253 52.637 17.1027 52.6657C17.2397 52.7163 17.4058 52.7856 17.5847 52.8667C17.6334 52.8888 17.6909 52.9068 17.7127 52.9068C17.7342 52.9068 17.7639 52.9173 17.7786 52.9303C17.7933 52.9431 17.8685 52.9763 17.9459 53.0041C18.0231 53.0318 18.1243 53.0702 18.1707 53.0896C18.3951 53.1834 19.3187 53.496 19.7023 53.6082C19.8183 53.6421 19.9448 53.6805 19.9834 53.6937C20.1593 53.7535 20.607 53.8744 21.0866 53.9915C21.9597 54.2048 22.1853 54.2513 23.1312 54.4139C25.7646 54.8667 28.8667 54.8965 31.6187 54.4953C32.2637 54.4014 32.7343 54.3157 33.4665 54.1591C33.8137 54.0847 33.9064 54.0626 34.3027 53.9603C34.5191 53.9043 34.7467 53.8461 34.8086 53.8309C34.9737 53.7905 35.5022 53.6372 35.5674 53.611C35.5983 53.5986 35.7185 53.5598 35.8344 53.5249C36.1596 53.4269 36.7164 53.2397 36.8321 53.1896C36.863 53.1763 37.021 53.1178 37.1834 53.0594C37.3456 53.0013 37.4911 52.9453 37.5066 52.9352C37.522 52.9249 37.5979 52.8937 37.6753 52.8659C37.7525 52.838 37.8537 52.7986 37.9 52.778C37.9464 52.7574 38.0476 52.7161 38.1248 52.6859C38.2022 52.6559 38.3496 52.592 38.4526 52.5441C38.5557 52.4962 38.6462 52.4571 38.654 52.4571C38.7207 52.4571 40.2074 51.7168 40.8178 51.3796C41.3642 51.0777 42.9017 50.1202 43.0713 49.9762C43.0867 49.9631 43.2448 49.8501 43.4226 49.7251C43.6003 49.6 43.7521 49.4901 43.7598 49.4808C43.7676 49.4713 43.8256 49.4287 43.8887 49.386C43.9517 49.3432 44.0276 49.286 44.0573 49.2589C44.087 49.2317 44.1554 49.1788 44.2096 49.1413C44.2635 49.1039 44.3141 49.066 44.3219 49.057C44.3296 49.0482 44.4244 48.9717 44.5325 48.887C44.7569 48.7115 44.8463 48.6386 44.911 48.5786C44.9362 48.5553 45.0193 48.4859 45.0959 48.4241C45.2195 48.3248 45.3311 48.2306 45.4292 48.143C45.4466 48.1275 45.5176 48.0656 45.5869 48.0053C46.2513 47.4284 47.4964 46.183 47.9785 45.6136C48.031 45.5517 48.0814 45.4947 48.0909 45.4871C48.1212 45.4622 48.5407 44.9625 48.7751 44.672C48.8313 44.6025 48.8994 44.5202 48.9266 44.4893C49.053 44.346 49.7623 43.3807 50.0004 43.0281C50.1466 42.8118 50.2759 42.6221 50.2882 42.6066C50.3086 42.5804 50.4645 42.3401 50.6621 42.0302C50.7803 41.8447 50.8086 41.7975 50.8391 41.7351C50.8543 41.7041 50.9054 41.6219 50.9528 41.5523C51 41.4828 51.0388 41.4174 51.0388 41.4071C51.0388 41.3966 51.1015 41.2872 51.1781 41.1638C51.4207 40.7724 52.0831 39.492 52.3583 38.8824C52.6601 38.2132 53.1186 37.0949 53.1186 37.0274C53.1186 37.0116 53.1311 36.9767 53.1463 36.9497C53.1996 36.8559 53.6245 35.5745 53.6245 35.5077C53.6245 35.4831 53.634 35.4534 53.6456 35.4418C53.6572 35.4303 53.6813 35.3617 53.6992 35.2897C53.7173 35.2175 53.7527 35.0889 53.778 35.0039C53.8355 34.8106 53.9818 34.2582 54.035 34.0343C54.0721 33.8778 54.0941 33.78 54.2027 33.2894C54.4177 32.3198 54.6132 30.9734 54.6926 29.9168C54.7083 29.7082 54.7338 29.39 54.7489 29.2097C54.7854 28.7821 54.785 26.5503 54.7486 26.0805C54.7331 25.8796 54.7074 25.5508 54.6918 25.3498C54.63 24.5591 54.5071 23.6065 54.3688 22.8485C54.3435 22.7094 54.3108 22.5259 54.2962 22.4409C54.2324 22.0701 53.9921 21.0546 53.8176 20.4174C53.7087 20.0201 53.5292 19.4199 53.4856 19.3073C53.4736 19.2762 53.4409 19.1751 53.4131 19.0823C53.3852 18.9896 53.347 18.8757 53.3281 18.8294C53.3092 18.783 53.2655 18.6629 53.2311 18.5624C53.1203 18.2388 53.0279 17.9893 52.9743 17.8683C52.9455 17.8036 52.9219 17.737 52.9219 17.7205C52.9219 17.7039 52.9097 17.6685 52.8947 17.6415C52.8797 17.6147 52.822 17.479 52.7667 17.3399C52.6768 17.1139 52.648 17.0448 52.5564 16.834C52.5278 16.768 52.392 16.4662 52.2661 16.1881C52.0833 15.7849 51.5066 14.6615 51.3236 14.3524C51.2752 14.2706 51.2356 14.1989 51.2356 14.193C51.2356 14.0946 49.7557 11.8353 49.4309 11.4378C49.4183 11.4223 49.361 11.3464 49.3036 11.2692C49.2461 11.1919 49.1839 11.1096 49.1652 11.0865C49.1095 11.0174 48.9503 10.8181 48.8702 10.7171C48.7605 10.5786 48.1947 9.89719 48.16 9.86128C48.1435 9.84441 48.0479 9.737 47.9474 9.62266C47.6113 9.24004 47.4324 9.05269 46.7956 8.41645C46.1562 7.77751 45.9854 7.61478 45.6287 7.30349C45.0952 6.83824 45.0857 6.83032 44.6109 6.45039C44.3979 6.27991 44.2109 6.13016 44.1954 6.11768C44.1296 6.0649 43.5639 5.64451 43.5067 5.60606C43.4723 5.58279 43.3919 5.52461 43.328 5.47672C43.0634 5.27841 42.0805 4.63897 41.5958 4.34977C41.1085 4.05888 41.0004 3.99682 40.5699 3.76007C40.3927 3.6626 39.1808 3.05873 38.94 2.94794C38.6455 2.81253 38.4155 2.71119 38.4024 2.71119C38.3906 2.71119 38.2725 2.66144 38.0687 2.57072C37.8665 2.48067 37.7051 2.41743 37.2817 2.26229C37.019 2.166 36.7787 2.07596 36.7478 2.0623C36.6834 2.03397 35.7371 1.72082 35.5674 1.67158C35.5055 1.65371 35.3917 1.62032 35.3145 1.59721C35.2371 1.57428 35.1106 1.53836 35.0334 1.51762C34.5295 1.38272 34.1978 1.29604 34.0638 1.26417C33.7243 1.1839 33.479 1.1291 33.3049 1.09453C33.2044 1.07463 33.0147 1.03702 32.8834 1.01106C30.9251 0.623206 28.8594 0.457274 26.7706 0.520004ZM29.2719 4.4528C45.7796 5.71179 55.7646 23.0657 48.5077 37.8846C46.1796 42.6389 41.9174 46.7738 37.2395 48.8164C36.8782 48.974 36.7468 49.0319 36.6915 49.0575C36.1237 49.3196 34.7997 49.7786 33.7405 50.0806C32.8335 50.3391 31.5583 50.5831 30.2978 50.7394C28.7674 50.929 26.4648 50.9234 24.8596 50.7263C23.6195 50.5738 21.8622 50.2184 21.192 49.9845C21.1533 49.971 21.0269 49.9324 20.9108 49.8988C20.2311 49.7019 19.1126 49.2923 18.4236 48.9879C18.3309 48.9469 18.1917 48.8855 18.1145 48.8516C9.12887 44.8961 3.55675 35.2907 4.51337 25.4059C5.6054 14.1229 14.8563 5.13676 26.0821 4.45448C26.3526 4.43813 26.6309 4.41992 26.7003 4.41401C26.9426 4.39378 28.8813 4.42312 29.2719 4.4528Z" fill="#1C0C0C"/>
<path fill-rule="evenodd" clip-rule="evenodd" d="M27.37 6.21711C27.5292 6.22217 27.7821 6.22217 27.932 6.21711C28.0819 6.21206 27.9516 6.20801 27.6425 6.20801C27.3332 6.20801 27.2106 6.21206 27.37 6.21711ZM26.3425 6.24443C26.385 6.25084 26.4547 6.25084 26.4972 6.24443C26.5396 6.23802 26.5049 6.23263 26.4199 6.23263C26.3348 6.23263 26.3 6.23802 26.3425 6.24443ZM28.7876 6.24443C28.8301 6.25084 28.8998 6.25084 28.9422 6.24443C28.9847 6.23802 28.95 6.23263 28.865 6.23263C28.7799 6.23263 28.7451 6.23802 28.7876 6.24443ZM25.8651 6.27259C25.908 6.279 25.9712 6.27883 26.0058 6.27209C26.0403 6.26551 26.0053 6.26011 25.928 6.26045C25.8508 6.26062 25.8225 6.26602 25.8651 6.27259ZM29.294 6.27259C29.3367 6.279 29.3999 6.27883 29.4345 6.27209C29.469 6.26551 29.4341 6.26011 29.3567 6.26045C29.2795 6.26062 29.2512 6.26602 29.294 6.27259ZM24.9092 6.35606C24.9363 6.36315 24.9805 6.36315 25.0077 6.35606C25.0347 6.34898 25.0126 6.34325 24.9584 6.34325C24.9043 6.34325 24.8822 6.34898 24.9092 6.35606ZM27.0737 10.0948C27.1164 10.1013 27.1796 10.1012 27.2142 10.0944C27.2487 10.0877 27.2138 10.0824 27.1366 10.0826C27.0592 10.083 27.031 10.0883 27.0737 10.0948ZM28.0991 10.0944C28.1339 10.1012 28.1908 10.1012 28.2256 10.0944C28.2603 10.0878 28.2318 10.0823 28.1623 10.0823C28.0929 10.0823 28.0644 10.0878 28.0991 10.0944ZM26.4693 10.1226C26.5044 10.1293 26.555 10.1292 26.5818 10.1221C26.6086 10.115 26.5801 10.1096 26.5182 10.1098C26.4563 10.1101 26.4344 10.1158 26.4693 10.1226ZM28.7315 10.1221C28.7584 10.1292 28.8028 10.1292 28.8298 10.1221C28.8569 10.115 28.8347 10.1093 28.7807 10.1093C28.7266 10.1093 28.7045 10.115 28.7315 10.1221ZM10.5255 12.9203L10.4143 13.0397L10.5337 12.9286C10.5995 12.8675 10.6533 12.8137 10.6533 12.8092C10.6533 12.7879 10.6288 12.8092 10.5255 12.9203ZM26.5744 12.9304C18.0874 13.4378 11.0202 20.2038 10.1988 28.6083C10.1761 28.8403 10.1563 28.9472 10.144 28.9034C10.102 28.753 10.1135 28.8869 10.2202 29.7902C11.1062 37.2883 16.8928 43.472 24.3542 44.8939C34.3609 46.8007 43.9243 39.7778 45.0937 29.6637C45.162 29.072 45.1482 28.8034 44.9973 27.8097C43.912 20.6569 38.455 14.844 31.3803 13.3041C29.9478 12.9923 28.0312 12.8433 26.5744 12.9304ZM45.0954 13.2505C45.2026 13.3588 45.2969 13.4473 45.3047 13.4473C45.3124 13.4473 45.2308 13.3588 45.1234 13.2505C45.0161 13.1422 44.9219 13.0537 44.9141 13.0537C44.9064 13.0537 44.988 13.1422 45.0954 13.2505ZM9.82413 13.5878C9.63915 13.7732 9.49413 13.925 9.50188 13.925C9.50947 13.925 9.66731 13.7732 9.85229 13.5878C10.0373 13.4023 10.1823 13.2505 10.1745 13.2505C10.1668 13.2505 10.0091 13.4023 9.82413 13.5878ZM45.7699 13.925C45.8772 14.0333 45.9714 14.1218 45.9792 14.1218C45.9869 14.1218 45.9053 14.0333 45.7979 13.925C45.6907 13.8168 45.5964 13.7282 45.5886 13.7282C45.5809 13.7282 45.6625 13.8168 45.7699 13.925ZM9.17643 14.2694L9.06531 14.3887L9.1847 14.2776C9.29582 14.1742 9.31707 14.1498 9.29582 14.1498C9.29127 14.1498 9.23748 14.2036 9.17643 14.2694ZM15.6543 14.8174L15.5575 14.9228L15.6629 14.8258C15.761 14.7358 15.7812 14.712 15.7596 14.712C15.7551 14.712 15.7075 14.7594 15.6543 14.8174ZM40.0646 15.2459C40.1875 15.3697 40.2944 15.4708 40.3022 15.4708C40.3099 15.4708 40.2157 15.3697 40.0927 15.2459C39.9698 15.1223 39.8629 15.0211 39.8551 15.0211C39.8474 15.0211 39.9416 15.1223 40.0646 15.2459ZM14.7969 15.6745L14.7143 15.7659L14.8057 15.6833C14.856 15.638 14.8969 15.5968 14.8969 15.5919C14.8969 15.5703 14.8738 15.5894 14.7969 15.6745ZM28.4153 19.7697C28.423 19.7812 28.5144 19.7991 28.6187 19.8095C28.8259 19.8303 29.4889 19.9889 29.5114 20.0232C29.5191 20.035 29.6702 20.0926 29.8471 20.1513C30.167 20.2574 30.5513 20.552 30.5513 20.6913C30.5513 20.7105 30.5631 20.7264 30.5776 20.7264C30.612 20.7264 30.8036 20.9289 30.8039 20.9656C30.8041 20.9812 30.8302 21.0102 30.8619 21.0301C30.8936 21.0498 30.9427 21.1201 30.971 21.186C30.9993 21.2521 31.0405 21.3243 31.0624 21.3464C31.0843 21.3687 31.1312 21.4469 31.1664 21.5204C31.2019 21.5938 31.2423 21.6538 31.2563 21.6538C31.2705 21.6538 31.282 21.6845 31.282 21.7219C31.282 21.7594 31.3131 21.8272 31.3513 21.8724C31.3894 21.9177 31.4366 22.0167 31.4561 22.0924C31.4757 22.1681 31.4995 22.2363 31.5091 22.244C31.5185 22.2518 31.5347 22.2929 31.5452 22.3354C31.5636 22.4106 31.7317 22.4575 31.7317 22.3875C31.7317 22.3735 31.8232 22.3531 31.9354 22.342C32.0475 22.3309 32.1834 22.3049 32.2376 22.2843C32.2915 22.2636 32.4118 22.2255 32.5045 22.1995C32.5972 22.1735 32.6794 22.1437 32.6871 22.1332C32.6949 22.1228 32.7898 22.0848 32.8979 22.0491C33.0062 22.0132 33.1048 21.9665 33.1171 21.9454C33.1296 21.9241 33.1637 21.9068 33.193 21.9068C33.2223 21.9068 33.2809 21.8749 33.3228 21.8359C33.365 21.7968 33.4289 21.7575 33.4648 21.7486C33.5009 21.7395 33.5303 21.7221 33.5303 21.7098C33.5303 21.6975 33.5999 21.6413 33.6849 21.5849C33.7699 21.5284 33.8395 21.472 33.8395 21.4597C33.8395 21.4473 33.9162 21.3833 34.0102 21.3174C34.1041 21.2516 34.1947 21.1675 34.2113 21.1307C34.2282 21.0938 34.2523 21.0636 34.265 21.0636C34.2776 21.0636 34.3139 21.013 34.3454 20.9513C34.3769 20.8894 34.415 20.8388 34.4302 20.8388C34.4454 20.8388 34.4577 20.8205 34.4577 20.798C34.4577 20.7756 34.4736 20.7473 34.493 20.7348C34.5123 20.7225 34.5461 20.6776 34.568 20.6351C34.6338 20.5075 34.6643 20.5424 34.6415 20.7194C34.6302 20.8083 34.6112 20.9695 34.5992 21.0778C34.5784 21.2668 34.41 21.8778 34.3707 21.9068C34.3602 21.9145 34.3387 21.9676 34.323 22.025C34.2965 22.1213 34.0066 22.5273 33.9491 22.5486C33.9351 22.5536 33.9238 22.5776 33.9238 22.6015C33.9238 22.6255 33.8953 22.673 33.8606 22.7071C33.8257 22.7411 33.7594 22.8179 33.7131 22.8776C33.6041 23.0177 33.4702 23.1435 33.4298 23.1435C33.4124 23.1435 33.367 23.1718 33.3291 23.2067C33.2468 23.2823 32.95 23.4808 32.9192 23.4808C32.9072 23.4808 32.8817 23.5061 32.8623 23.5369C32.8431 23.5678 32.8084 23.5931 32.7853 23.5931C32.7623 23.5931 32.7434 23.6057 32.7434 23.6212C32.7434 23.6367 32.7276 23.6497 32.7082 23.6501C32.689 23.6506 32.6251 23.6872 32.5664 23.7317C32.5077 23.776 32.3782 23.8345 32.2784 23.8615C32.1785 23.8885 32.0969 23.9202 32.0969 23.932C32.0969 23.9438 32.044 23.9625 31.9792 23.9735C31.7954 24.0045 31.7819 24.0312 31.8005 24.3307C31.8092 24.4736 31.829 24.8311 31.8443 25.1249C31.8786 25.7794 31.9872 26.892 32.0182 26.9048C32.0307 26.91 32.0408 26.9367 32.0408 26.9643C32.0408 27.0213 32.1207 27.037 32.5672 27.0677C32.7183 27.0781 32.8487 27.097 32.8571 27.1098C32.8876 27.1562 34.5899 27.1921 37.2846 27.2031C40.1506 27.2149 40.676 27.239 40.7204 27.3614C40.7256 27.3756 40.7598 27.3872 40.7966 27.3872C40.8635 27.3872 41.1036 27.4663 41.2854 27.5481C41.3596 27.5815 41.4394 27.5879 41.6293 27.5756C41.8665 27.5602 41.8836 27.5633 42.053 27.6491C42.15 27.6984 42.2704 27.7555 42.3205 27.7761C42.3704 27.7967 42.4114 27.8309 42.4114 27.852C42.4114 27.8731 42.4286 27.9005 42.4496 27.9129C42.5628 27.9791 42.6925 28.1064 42.6925 28.1511C42.6925 28.1793 42.7044 28.2024 42.7193 28.2024C42.7339 28.2024 42.7665 28.2456 42.7914 28.2983C42.8166 28.3511 42.8695 28.4176 42.9093 28.4459C42.9489 28.4742 43.0081 28.5272 43.0407 28.5636C43.0732 28.5999 43.1284 28.6607 43.1631 28.6985C43.4199 28.9779 42.9086 29.4585 42.6402 29.1899C42.6113 29.1612 42.5292 29.1084 42.4574 29.0725C42.3857 29.0368 42.327 28.997 42.327 28.9843C42.327 28.9715 42.2899 28.9612 42.2448 28.9612C42.1994 28.9612 42.1458 28.9454 42.1254 28.926C42.0857 28.8887 41.967 28.844 41.7718 28.7933C41.638 28.7585 41.5146 28.815 41.5129 28.912C41.5124 28.939 41.496 28.9612 41.4765 28.9612C41.4569 28.9612 41.4286 28.9896 41.4132 29.0245C41.3981 29.0592 41.3571 29.1002 41.3224 29.1154C41.2502 29.1471 41.2386 29.186 41.3013 29.186C41.3244 29.186 41.3434 29.1987 41.3434 29.2142C41.3434 29.2295 41.3743 29.2422 41.4122 29.2422C41.4502 29.2422 41.4912 29.258 41.5036 29.2774C41.5159 29.2966 41.5829 29.3432 41.6525 29.3806C41.722 29.418 41.7891 29.4654 41.8014 29.486C41.8139 29.5064 41.8409 29.5233 41.8615 29.5233C41.8844 29.5233 41.9065 29.5722 41.918 29.6492C41.9574 29.912 41.6925 30.0789 41.2805 30.0507C41.0888 30.0378 40.8655 29.9629 40.8655 29.9115C40.8655 29.899 40.847 29.8887 40.8241 29.8887C40.8013 29.8887 40.7097 29.8108 40.6204 29.7157C40.5312 29.6206 40.4359 29.5229 40.4089 29.4986C40.3819 29.4744 40.3597 29.4374 40.3597 29.4167C40.3597 29.3315 40.2841 29.3073 39.9658 29.2899C39.657 29.273 39.2965 29.2076 39.2646 29.1626C39.2563 29.1509 39.1231 29.1108 38.9685 29.0735C38.814 29.0363 38.6812 28.9973 38.6734 28.9869C38.6656 28.9764 38.5265 28.9587 38.3643 28.9474C38.2019 28.9361 38.0566 28.917 38.041 28.9049C37.898 28.7936 34.1599 28.7973 34.0901 28.909C34.0812 28.9235 33.9641 28.9428 33.8301 28.9523C33.6962 28.9617 33.5866 28.9803 33.5866 28.9934C33.5866 29.0066 33.5545 29.0174 33.5156 29.0174C33.4345 29.0174 33.1345 29.1174 33.1105 29.1525C33.1018 29.1653 33.0441 29.1958 32.9822 29.2201C32.7345 29.3177 32.5748 29.3944 32.5748 29.4162C32.5748 29.4287 32.548 29.439 32.5151 29.439C32.4527 29.439 32.4569 30.0217 32.5202 30.1399C32.533 30.1641 32.5716 30.5885 32.606 31.0831C32.6404 31.5777 32.6789 31.9895 32.6917 31.9979C32.7043 32.0065 32.723 32.2406 32.7333 32.518C32.7434 32.7954 32.7618 33.0289 32.7741 33.037C32.8139 33.0635 32.8181 33.6343 32.7785 33.6476C32.7583 33.6544 32.7434 33.707 32.7434 33.7722C32.7434 33.8341 32.7246 33.9184 32.7016 33.9596C32.6787 34.0006 32.6348 34.1324 32.6045 34.2528C32.574 34.3731 32.5295 34.4909 32.5057 34.5147C32.4819 34.5387 32.4623 34.5874 32.4623 34.6233C32.4623 34.6592 32.4462 34.6948 32.4263 34.7024C32.4064 34.71 32.3654 34.7682 32.3349 34.8316C32.3045 34.895 32.2721 34.9471 32.2629 34.9472C32.2536 34.9474 32.1996 35.0413 32.143 35.1562C32.0863 35.2708 32.0307 35.3688 32.0192 35.3739C31.9863 35.3887 31.844 35.5874 31.844 35.6186C31.844 35.6342 31.8209 35.6634 31.7926 35.6837C31.7644 35.7039 31.7175 35.7584 31.6885 35.8047C31.6597 35.8511 31.6192 35.9079 31.5986 35.9312C31.5781 35.9543 31.5379 36.002 31.5093 36.0369C31.4774 36.0761 31.3772 36.1245 31.2502 36.1621C31.1363 36.1958 31.0368 36.2317 31.029 36.2418C31.0213 36.2521 30.9658 36.2695 30.9056 36.2804C30.6902 36.3201 30.6939 36.3029 30.684 37.3172L30.6766 38.0708L30.5788 38.1563C30.4597 38.2603 30.2424 38.2547 30.1107 38.1441C29.863 37.9364 29.8761 37.9593 29.8485 37.6878C29.812 37.3303 29.7289 36.8587 29.7024 36.8587C29.6901 36.8587 29.68 36.8271 29.68 36.7883C29.68 36.7447 29.6641 36.7182 29.6378 36.7182C29.6146 36.7182 29.5957 36.729 29.5957 36.7423C29.5957 36.7555 29.4407 36.7749 29.2513 36.7853C29.062 36.7956 28.7559 36.8243 28.5709 36.8487C28.2902 36.886 28.1747 36.8882 27.8684 36.8619C27.6668 36.8445 27.3462 36.8305 27.156 36.8305C26.8046 36.8305 26.5762 36.7941 26.5091 36.7271C26.4472 36.6652 26.4272 36.6841 26.4063 36.8236C26.3953 36.8969 26.3752 36.9639 26.3616 36.9723C26.3481 36.9808 26.3287 37.0819 26.3184 37.1971C26.3081 37.3124 26.2879 37.4219 26.2734 37.4403C26.2589 37.4588 26.2398 37.5979 26.2312 37.7495C26.2085 38.1475 26.1107 38.2937 25.8272 38.3531C25.4628 38.4295 25.4124 38.3311 25.3925 37.5064C25.3685 36.5018 25.3618 36.4437 25.265 36.3936C25.22 36.3703 25.1832 36.3381 25.1832 36.3219C25.1832 36.2708 25.1173 36.2238 24.9807 36.1772C24.9038 36.1511 24.7922 36.0782 24.7143 36.0035C24.6404 35.9329 24.5703 35.875 24.5584 35.875C24.5466 35.875 24.5369 35.8582 24.5369 35.8376C24.5369 35.817 24.4736 35.7592 24.3964 35.7091C24.319 35.659 24.2558 35.6069 24.2558 35.5931C24.2558 35.5794 24.1989 35.514 24.1295 35.4476C24.06 35.3813 24.003 35.3177 24.003 35.3063C24.0028 35.2835 23.833 34.998 23.8062 34.9756C23.7485 34.9273 23.6404 34.6812 23.6089 34.526C23.5885 34.4255 23.5635 34.337 23.5536 34.3292C23.5435 34.3215 23.5057 34.1697 23.4695 33.992C23.4334 33.8142 23.3904 33.6515 23.374 33.6304C23.3327 33.5771 23.341 31.5099 23.3826 31.4959C23.3991 31.4905 23.4123 31.4458 23.4119 31.3969C23.4101 31.1934 23.5367 29.8177 23.5581 29.8089C23.6465 29.7733 23.5772 29.5919 23.4619 29.5568C23.3961 29.5368 23.2602 29.4809 23.1597 29.4329C22.8541 29.2865 22.7054 29.2366 22.4852 29.2069C22.3693 29.1912 22.2682 29.1691 22.2604 29.158C22.1808 29.0432 18.2675 29.0435 18.1852 29.1585C18.1774 29.1693 17.9624 29.1998 17.7075 29.2263C17.27 29.272 16.7829 29.3653 16.7518 29.4094C16.7441 29.4206 16.5481 29.4782 16.3163 29.5378C16.0844 29.5971 15.8876 29.6562 15.879 29.6688C15.8704 29.6814 15.744 29.6995 15.5979 29.7091C15.3253 29.7268 15.178 29.8059 15.178 29.9346C15.178 29.9556 15.1681 29.973 15.156 29.973C15.1438 29.973 15.1116 30.0109 15.0841 30.0573C15.0568 30.1037 15.0192 30.142 15.0008 30.1423C14.9824 30.1428 14.9376 30.1912 14.9013 30.2501C14.6413 30.6721 13.4916 30.6177 13.5606 30.1865C13.5707 30.1234 13.5985 30.061 13.6225 30.0475C13.6464 30.0342 13.6869 29.9985 13.7123 29.9685C13.738 29.9383 13.8252 29.8754 13.9063 29.8288C13.9875 29.7821 14.0538 29.7347 14.0538 29.7236C14.0538 29.7123 14.0982 29.6872 14.1523 29.6676C14.2757 29.6229 14.2756 29.6019 14.1514 29.5425C14.0968 29.5165 14.044 29.473 14.0339 29.446C13.9956 29.3422 13.8769 29.2142 13.8187 29.214C13.7287 29.214 13.2107 29.3836 13.2107 29.4132C13.2107 29.4273 13.1974 29.439 13.1808 29.439C13.1395 29.439 12.8335 29.5887 12.822 29.6147C12.8168 29.6261 12.7992 29.6357 12.7829 29.6357C12.7665 29.6357 12.7389 29.6553 12.7213 29.6793C12.6579 29.7659 12.2271 29.7681 12.2271 29.6816C12.2271 29.661 12.2031 29.6167 12.174 29.583C12.1111 29.5106 12.0654 29.2632 12.1121 29.2477C12.1289 29.2422 12.1428 29.2209 12.1428 29.2007C12.1428 29.1804 12.1616 29.1567 12.1849 29.1477C12.208 29.1388 12.2271 29.1127 12.2271 29.0896C12.2271 29.0665 12.2524 29.0339 12.2832 29.0174C12.3142 29.0009 12.3395 28.9673 12.3395 28.943C12.3395 28.7336 13.0046 28.0618 13.212 28.0618C13.2422 28.0618 13.267 28.0501 13.267 28.036C13.267 27.9779 13.4663 27.9454 13.7095 27.9636C13.9454 27.9815 14.141 27.9425 14.1944 27.867C14.2378 27.8056 14.8359 27.6441 15.0305 27.6412C15.0652 27.6407 15.0937 27.6291 15.0937 27.6154C15.0937 27.5343 15.6295 27.4987 17.2859 27.4702C18.2056 27.4543 19.2047 27.4297 19.5062 27.4157C19.8075 27.4016 20.2028 27.3894 20.3844 27.3888C20.5849 27.3879 20.7146 27.3763 20.7146 27.3592C20.7146 27.3419 20.8579 27.3309 21.0871 27.3304C21.7977 27.3292 23.3819 27.2242 23.8763 27.1454C24.0133 27.1235 24.03 27.1004 24.0305 26.9329C24.0308 26.8608 24.0418 26.7975 24.0549 26.7925C24.0878 26.7795 24.1711 25.8294 24.1915 25.2338C24.2008 24.964 24.2192 24.7367 24.2322 24.7286C24.2843 24.6964 24.2601 24.071 24.2067 24.0708C24.1795 24.0706 24.1246 24.0534 24.0843 24.0323C24.0441 24.0114 23.9524 23.9855 23.8806 23.9747C23.8087 23.9639 23.7499 23.945 23.7499 23.9325C23.7499 23.9202 23.6784 23.8899 23.591 23.8649C23.5037 23.8401 23.4057 23.7956 23.3733 23.7662C23.3408 23.7367 23.2516 23.6782 23.1749 23.6361C23.0981 23.5939 23.0096 23.5362 22.9782 23.5077C22.8887 23.4268 22.3767 23.0872 22.3442 23.0872C22.3283 23.0872 22.3031 23.0553 22.2882 23.0162C22.2734 22.9772 22.242 22.9379 22.2187 22.929C22.1953 22.9199 22.1761 22.8887 22.1761 22.8594C22.1761 22.8302 22.1567 22.8062 22.1331 22.8062C22.1093 22.8062 22.082 22.784 22.072 22.757C22.0623 22.73 22.0214 22.6685 21.9817 22.6202C21.9417 22.5722 21.8774 22.4916 21.8388 22.4413C21.8002 22.3911 21.7341 22.311 21.6921 22.2634C21.6478 22.2133 21.5839 22.0757 21.5402 21.9366C21.4987 21.8042 21.4537 21.6816 21.4402 21.6639C21.3864 21.5943 21.3039 21.2339 21.2898 21.0075C21.2815 20.8761 21.2702 20.722 21.2646 20.6651C21.2569 20.5857 21.2636 20.5653 21.2937 20.5768C21.3152 20.5852 21.3329 20.6076 21.3329 20.6269C21.3329 20.6463 21.3614 20.6943 21.3962 20.7336C21.5363 20.8925 21.614 20.9926 21.614 21.0147C21.614 21.0275 21.6393 21.0651 21.6702 21.0982C21.7011 21.1314 21.7263 21.1724 21.7263 21.1894C21.7263 21.2063 21.7648 21.2429 21.8117 21.2705C21.8586 21.2982 21.9754 21.3865 22.0715 21.4666C22.2773 21.6383 22.431 21.7434 22.5766 21.8117C22.6346 21.8388 22.682 21.8714 22.682 21.884C22.682 21.8965 22.702 21.9068 22.7266 21.9068C22.7513 21.9068 22.8027 21.9314 22.8406 21.9612C22.8787 21.9913 22.9757 22.0375 23.056 22.0638C23.1362 22.0902 23.2082 22.1199 23.216 22.1299C23.2406 22.1616 23.9371 22.3565 24.0256 22.3565C24.0723 22.3565 24.1148 22.3673 24.12 22.3803C24.1251 22.3934 24.2021 22.4125 24.291 22.4228L24.4525 22.4413V22.3567C24.4525 22.3103 24.4647 22.2722 24.4797 22.2722C24.4945 22.2722 24.5153 22.209 24.5254 22.1317C24.5357 22.0543 24.5537 21.9911 24.5655 21.9911C24.5773 21.9911 24.5944 21.9617 24.6033 21.9258C24.6124 21.8899 24.6536 21.8108 24.6949 21.7501C24.7362 21.6896 24.8143 21.5513 24.8684 21.443C24.9225 21.3349 24.9758 21.24 24.9868 21.2322C24.9977 21.2245 25.0269 21.179 25.0515 21.1309C25.1156 21.0058 25.8083 20.3213 25.9289 20.2641C25.9845 20.2377 26.1398 20.1781 26.2741 20.1316C26.4081 20.0851 26.5243 20.0372 26.5321 20.0252C26.5574 19.9862 27.1285 19.8483 27.3895 19.8181C27.5286 19.8021 27.6489 19.7793 27.657 19.7677C27.6914 19.7174 28.3814 19.7191 28.4153 19.7697ZM10.1258 26.3475C10.1258 26.4014 10.1315 26.4237 10.1386 26.3965C10.1457 26.3696 10.1457 26.3252 10.1386 26.2982C10.1315 26.2712 10.1258 26.2933 10.1258 26.3475ZM45.1733 26.6004C45.1733 26.6699 45.1787 26.6984 45.1854 26.6636C45.1922 26.6287 45.1922 26.5719 45.1854 26.5372C45.1787 26.5023 45.1733 26.5308 45.1733 26.6004ZM10.0992 26.8112C10.0993 26.8884 10.1049 26.9168 10.1113 26.8739C10.1177 26.8313 10.1175 26.768 10.111 26.7335C10.1042 26.6989 10.099 26.7338 10.0992 26.8112ZM45.2055 27.6543C45.2055 27.9634 45.2096 28.0938 45.2146 27.9439C45.2197 27.794 45.2197 27.541 45.2146 27.3818C45.2097 27.2225 45.2055 27.3451 45.2055 27.6543ZM10.0992 28.4693C10.0993 28.5466 10.1049 28.5749 10.1113 28.5322C10.1177 28.4894 10.1175 28.4262 10.111 28.3916C10.1042 28.357 10.099 28.3921 10.0992 28.4693ZM45.1733 28.6801C45.1733 28.7496 45.1787 28.7781 45.1854 28.7434C45.1922 28.7086 45.1922 28.6516 45.1854 28.6169C45.1787 28.5821 45.1733 28.6106 45.1733 28.6801Z" fill="#FBDB6B"/>
<path fill-rule="evenodd" clip-rule="evenodd" d="M26.2649 4.45715C26.1102 4.4703 25.8194 4.49424 25.6185 4.51043C25.0629 4.55529 24.3346 4.64213 23.9744 4.70638C22.8795 4.90166 22.7134 4.93623 21.993 5.11885C21.5128 5.24043 21.3598 5.28107 21.1779 5.33537C21.1007 5.35831 20.9868 5.3917 20.925 5.4094C20.7683 5.45426 19.8132 5.77111 19.7446 5.80096C19.7137 5.81445 19.6061 5.85408 19.5058 5.88899C19.4053 5.92389 19.3103 5.96116 19.295 5.97145C19.2795 5.9819 19.1846 6.02035 19.0842 6.05694C18.9837 6.09354 18.8699 6.13974 18.8313 6.15964C18.7927 6.17971 18.7527 6.19606 18.7424 6.19623C18.7019 6.19657 17.8618 6.57919 17.3979 6.80853C15.1655 7.91205 13.1106 9.37829 11.3393 11.1314C10.7436 11.7211 10.5493 11.9293 9.97548 12.5926C9.07164 13.6374 8.09698 15.0363 7.37272 16.3282C7.09533 16.8232 7.09601 16.8226 7.53983 16.2299C10.9122 11.725 15.868 8.40883 21.3325 7.0006C25.8059 5.84784 30.6426 5.95239 35.0053 7.29638C35.85 7.55657 36.9014 7.9392 37.5067 8.20664C37.7534 8.31558 37.9185 8.38826 38.0828 8.4601C41.744 10.0628 45.9082 13.4681 48.0329 16.597C48.177 16.809 48.2033 16.8117 48.0859 16.6022C47.5222 15.5964 47.1659 15.0237 46.6082 14.2278C46.3764 13.8967 45.676 12.9838 45.5445 12.8409C45.5292 12.8241 45.4595 12.7423 45.3901 12.6592C45.1203 12.3367 45.0388 12.2464 44.4333 11.598C44.1076 11.2494 43.6776 10.8315 43.1116 10.3137C42.3541 9.62061 41.1906 8.73783 40.1345 8.05505C38.0421 6.70246 35.3365 5.55915 33.01 5.04482C32.8553 5.01076 32.6909 4.97197 32.6445 4.95865C32.5267 4.92493 32.0722 4.83741 31.5485 4.74753C30.9446 4.64399 30.2659 4.55782 29.6796 4.51043C29.4863 4.49492 29.1701 4.46929 28.9769 4.45377C28.5651 4.42038 26.6723 4.42291 26.2649 4.45715ZM27.4523 10.0956C27.5643 10.101 27.7478 10.101 27.8597 10.0956C27.9719 10.0904 27.8801 10.086 27.656 10.086C27.4319 10.086 27.3402 10.0904 27.4523 10.0956ZM26.694 10.1233C26.7444 10.1295 26.8203 10.1294 26.8627 10.123C26.9048 10.1166 26.8635 10.1115 26.7708 10.1117C26.678 10.1118 26.6434 10.1171 26.694 10.1233ZM28.4646 10.1233C28.515 10.1295 28.5909 10.1294 28.6332 10.123C28.6754 10.1166 28.6341 10.1115 28.5413 10.1117C28.4486 10.1118 28.414 10.1171 28.4646 10.1233ZM29.546 10.2066C29.5732 10.2137 29.6173 10.2137 29.6445 10.2066C29.6715 10.1995 29.6494 10.1938 29.5953 10.1938C29.5411 10.1938 29.519 10.1995 29.546 10.2066ZM27.2572 12.9064C27.4785 12.9111 27.8326 12.9111 28.0442 12.9064C28.2558 12.9017 28.0747 12.8978 27.642 12.8978C27.2092 12.8978 27.036 12.9017 27.2572 12.9064ZM26.4131 12.934C26.4792 12.9399 26.5804 12.9399 26.638 12.9339C26.6955 12.9278 26.6414 12.9231 26.5178 12.9231C26.3942 12.9232 26.347 12.9281 26.4131 12.934ZM28.6896 12.934C28.7557 12.9399 28.8568 12.9399 28.9145 12.9339C28.972 12.9278 28.9179 12.9231 28.7943 12.9231C28.6707 12.9232 28.6235 12.9281 28.6896 12.934ZM25.8226 12.9895C25.8575 12.9963 25.9081 12.9961 25.935 12.989C25.9618 12.9819 25.9332 12.9765 25.8715 12.9767C25.8096 12.977 25.7877 12.9828 25.8226 12.9895ZM29.3919 12.9895C29.4268 12.9963 29.4774 12.9961 29.5042 12.989C29.5312 12.9819 29.5025 12.9765 29.4406 12.9767C29.3789 12.977 29.3568 12.9828 29.3919 12.9895ZM25.5131 13.0177C25.5479 13.0242 25.6047 13.0242 25.6396 13.0177C25.6743 13.0109 25.6458 13.0054 25.5764 13.0054C25.5067 13.0054 25.4782 13.0109 25.5131 13.0177ZM29.6588 13.018C29.7017 13.0244 29.7649 13.0242 29.7995 13.0175C29.834 13.0109 29.799 13.0055 29.7217 13.0059C29.6445 13.006 29.6162 13.0114 29.6588 13.018ZM30.0801 13.0733C30.107 13.0804 30.1514 13.0804 30.1784 13.0733C30.2055 13.0662 30.1833 13.0605 30.1293 13.0605C30.0752 13.0605 30.0531 13.0662 30.0801 13.0733ZM24.9088 13.1015C24.9359 13.1086 24.9801 13.1086 25.0072 13.1015C25.0342 13.0944 25.0121 13.0887 24.958 13.0887C24.9039 13.0887 24.8818 13.0944 24.9088 13.1015ZM30.2912 13.102C30.3261 13.1087 30.3767 13.1084 30.4037 13.1015C30.4305 13.0944 30.4018 13.0888 30.3401 13.0892C30.2782 13.0895 30.2563 13.0952 30.2912 13.102ZM24.3257 13.1952C24.2881 13.2119 24.3115 13.2146 24.396 13.2033C24.4655 13.1942 24.5277 13.1821 24.5341 13.1765C24.5585 13.1554 24.3793 13.1715 24.3257 13.1952ZM23.9181 13.2792C23.8884 13.2986 23.9051 13.3015 23.9744 13.2888C24.0955 13.2666 24.1184 13.2505 24.0282 13.2512C23.9909 13.2514 23.9414 13.264 23.9181 13.2792ZM31.1996 13.261C31.206 13.2667 31.2618 13.279 31.3237 13.2885C31.4021 13.3005 31.4191 13.2979 31.3798 13.2801C31.3259 13.2556 31.1755 13.2398 31.1996 13.261ZM17.4681 13.3516L17.3838 13.4241L17.4752 13.3635C17.5254 13.3303 17.5666 13.2976 17.5666 13.291C17.5666 13.2699 17.5546 13.2772 17.4681 13.3516ZM23.5528 13.3635C23.5232 13.3829 23.5399 13.3858 23.609 13.3731C23.7302 13.3509 23.753 13.3349 23.6628 13.3355C23.6255 13.3357 23.5759 13.3484 23.5528 13.3635ZM31.8717 13.4193C31.9103 13.4317 31.9673 13.4418 31.9982 13.4418C32.0427 13.4418 32.0398 13.4372 31.9842 13.4193C31.9456 13.407 31.8886 13.3969 31.8577 13.3969C31.8132 13.3969 31.8161 13.4015 31.8717 13.4193ZM23.2156 13.4487C23.1847 13.4696 23.1962 13.4721 23.2577 13.4585C23.3609 13.4354 23.3835 13.4192 23.3115 13.4199C23.2819 13.42 23.2387 13.433 23.2156 13.4487ZM22.9063 13.533C22.8756 13.5539 22.8869 13.5564 22.9485 13.5428C23.0518 13.5197 23.0743 13.5035 23.0024 13.5042C22.9728 13.5043 22.9296 13.5173 22.9063 13.533ZM32.2675 13.5138C32.2739 13.5193 32.3172 13.5323 32.3636 13.5428C32.4252 13.5564 32.4365 13.5539 32.4058 13.533C32.3678 13.5074 32.2393 13.4895 32.2675 13.5138ZM32.5041 13.5836C32.5909 13.6209 32.7366 13.6495 32.6867 13.6197C32.6636 13.6059 32.6004 13.5866 32.5462 13.577C32.4798 13.5652 32.4661 13.5674 32.5041 13.5836ZM16.9622 13.7153C16.8523 13.8055 16.8819 13.8048 17.0044 13.7145C17.0568 13.6758 17.0877 13.6446 17.0732 13.6451C17.0585 13.6458 17.0086 13.6774 16.9622 13.7153ZM32.743 13.6521C32.7508 13.66 32.8066 13.6799 32.867 13.6964C32.9275 13.7129 32.9654 13.7156 32.9513 13.7023C32.9243 13.6768 32.7187 13.6273 32.743 13.6521ZM22.1617 13.7485C22.1306 13.7559 22.0939 13.773 22.0797 13.7865C22.0655 13.7999 22.1035 13.7972 22.164 13.7807C22.3271 13.7362 22.3251 13.7092 22.1617 13.7485ZM33.1083 13.7706C33.2366 13.82 33.2872 13.8193 33.1786 13.7696C33.1322 13.7483 33.0752 13.7315 33.0521 13.732C33.0288 13.7323 33.0541 13.7499 33.1083 13.7706ZM21.8806 13.8539C21.772 13.9037 21.8226 13.9043 21.9509 13.8549C22.0048 13.8342 22.0301 13.8166 22.007 13.8163C21.9838 13.8158 21.9269 13.8327 21.8806 13.8539ZM33.2769 13.8187C33.2846 13.8264 33.3349 13.8475 33.3887 13.8655C33.4425 13.8838 33.474 13.8866 33.459 13.8718C33.4438 13.8569 33.3936 13.8359 33.3472 13.8249C33.3008 13.8139 33.2691 13.8111 33.2769 13.8187ZM33.5862 13.9392C33.7145 13.9886 33.7649 13.988 33.6563 13.9382C33.6099 13.917 33.5531 13.9001 33.5298 13.9006C33.5067 13.901 33.532 13.9185 33.5862 13.9392ZM21.4239 14.0104C21.3266 14.0495 21.349 14.0667 21.4519 14.032C21.5022 14.0151 21.5485 13.9967 21.5549 13.9913C21.5779 13.9721 21.4861 13.9854 21.4239 14.0104ZM33.7587 13.9947C33.7659 14.002 33.8597 14.0409 33.9671 14.0811C34.0743 14.1212 34.1495 14.1428 34.1342 14.1288C34.0882 14.087 33.7194 13.9554 33.7587 13.9947ZM21.1949 14.0962C21.158 14.1111 21.1339 14.1295 21.1415 14.137C21.1492 14.1446 21.1985 14.1323 21.2509 14.1094C21.3551 14.0642 21.3047 14.0524 21.1949 14.0962ZM21.0024 14.179C20.9083 14.217 20.9258 14.236 21.0234 14.2021C21.0698 14.1859 21.1077 14.1676 21.1077 14.1613C21.1077 14.1446 21.0735 14.1505 21.0024 14.179ZM34.263 14.1898C34.2854 14.2122 34.8041 14.431 34.8133 14.4219C34.8224 14.4128 34.5934 14.3045 34.3907 14.2224C34.2821 14.1784 34.2408 14.1677 34.263 14.1898ZM20.8056 14.2633C20.7115 14.3013 20.729 14.3203 20.8266 14.2864C20.873 14.2703 20.911 14.2519 20.911 14.2456C20.911 14.2289 20.8767 14.2348 20.8056 14.2633ZM39.0399 14.3117C39.0407 14.3232 39.0819 14.3635 39.1313 14.4013L39.221 14.4697L39.1385 14.3802C39.0527 14.287 39.0374 14.2763 39.0399 14.3117ZM20.6088 14.3477C20.5147 14.3856 20.5324 14.4047 20.6299 14.3708C20.6762 14.3546 20.7142 14.3362 20.7142 14.33C20.7142 14.3133 20.6799 14.3192 20.6088 14.3477ZM16.0469 14.4807L15.9504 14.5856L16.0488 14.5013C16.1027 14.4551 16.1523 14.4139 16.1589 14.4101C16.1653 14.4062 16.1646 14.3969 16.157 14.3893C16.1496 14.3819 16.1 14.423 16.0469 14.4807ZM20.3832 14.4497C20.3326 14.4746 20.2956 14.4996 20.3012 14.5052C20.3066 14.5107 20.3607 14.4905 20.4214 14.4603C20.482 14.4299 20.5189 14.405 20.5034 14.4048C20.488 14.4045 20.4339 14.4247 20.3832 14.4497ZM35.0756 14.5527C35.3795 14.703 35.469 14.7424 35.469 14.7257C35.469 14.71 34.8827 14.4303 34.8554 14.433C34.8451 14.4338 34.9443 14.4878 35.0756 14.5527ZM39.2352 14.4681C39.2352 14.473 39.2761 14.5139 39.3264 14.5593L39.4178 14.6419L39.3352 14.5505C39.2583 14.4654 39.2352 14.4463 39.2352 14.4681ZM19.836 14.7139C19.6235 14.8213 19.4495 14.9156 19.4495 14.9234C19.4495 14.9358 20.2336 14.5529 20.2622 14.5262C20.3073 14.4846 20.1695 14.5451 19.836 14.7139ZM15.7945 14.7052L15.6975 14.8105L15.8029 14.7138C15.901 14.6235 15.9213 14.5998 15.8999 14.5998C15.8951 14.5998 15.8478 14.6471 15.7945 14.7052ZM35.4996 14.7507C35.506 14.7564 35.6124 14.8148 35.7362 14.8804C35.8598 14.946 36.0274 15.037 36.1085 15.0829C36.1896 15.1286 36.256 15.1596 36.256 15.1519C36.256 15.1294 35.5486 14.7402 35.5077 14.7402C35.4969 14.7402 35.4932 14.745 35.4996 14.7507ZM39.6835 14.8878C39.8001 15.0119 39.8254 15.0343 39.8254 15.0131C39.8254 15.0087 39.7652 14.9485 39.6918 14.8797L39.5583 14.7544L39.6835 14.8878ZM19.3017 14.9908C19.1894 15.0628 19.1687 15.092 19.2668 15.0401C19.3845 14.9775 19.4405 14.9375 19.4073 14.9396C19.392 14.9404 19.3444 14.9635 19.3017 14.9908ZM15.2254 15.2406C15.0754 15.391 14.9529 15.522 14.9529 15.5316C14.9529 15.5412 15.0788 15.4215 15.2329 15.2655C15.3871 15.1097 15.5097 14.9787 15.5054 14.9745C15.5014 14.9704 15.3753 15.0901 15.2254 15.2406ZM19.0206 15.1443C18.8598 15.2433 18.8549 15.2667 19.0139 15.1768C19.1756 15.0854 19.1873 15.0772 19.152 15.0785C19.1378 15.0788 19.0788 15.1085 19.0206 15.1443ZM36.3122 15.1895C36.3355 15.206 36.4682 15.2866 36.6073 15.3685C36.7464 15.4503 36.971 15.5891 37.1062 15.677C37.2415 15.7648 37.3516 15.8272 37.3511 15.8154C37.3506 15.8038 37.2653 15.7424 37.1614 15.679C37.0577 15.6158 36.8349 15.4787 36.6666 15.3745C36.3977 15.2082 36.1791 15.094 36.3122 15.1895ZM40.3869 15.5975C40.4864 15.7056 40.5731 15.8006 40.5796 15.8083C40.5864 15.8159 40.5783 15.797 40.5619 15.7662C40.5456 15.7352 40.4587 15.6404 40.3692 15.5554L40.2063 15.4008L40.3869 15.5975ZM17.936 15.8152C17.6718 15.9893 17.4553 16.1402 17.4549 16.1507C17.4543 16.1655 18.3842 15.5581 18.4353 15.51C18.4942 15.4552 18.3421 15.548 17.936 15.8152ZM14.6559 15.8434L14.5734 15.9348L14.6647 15.8522C14.7149 15.8068 14.7561 15.7657 14.7561 15.7608C14.7561 15.7392 14.7328 15.7583 14.6559 15.8434ZM37.3943 15.8557C37.4098 15.8709 37.5804 15.995 37.7737 16.1316C37.9669 16.268 38.2372 16.4677 38.3743 16.5753C38.5116 16.6827 38.619 16.7579 38.6133 16.7425C38.6075 16.727 38.489 16.6284 38.3499 16.5232C38.2108 16.4179 38.0905 16.3247 38.0828 16.3159C38.075 16.3073 38.0308 16.2739 37.9845 16.2421C37.5394 15.9355 37.4449 15.8714 37.4083 15.8513C37.3806 15.836 37.3757 15.8377 37.3943 15.8557ZM14.4615 16.0608C14.4014 16.1223 14.3578 16.1768 14.3643 16.182C14.3711 16.1871 14.4257 16.1367 14.4858 16.0701C14.6227 15.9178 14.607 15.9117 14.4615 16.0608ZM40.9093 16.1763C40.9547 16.2319 40.9973 16.2726 41.0042 16.2667C41.0111 16.2609 40.9742 16.2154 40.9219 16.1657L40.8272 16.0753L40.9093 16.1763ZM14.2729 16.279C14.2234 16.3367 14.1863 16.3985 14.2011 16.3985C14.2068 16.3985 14.2396 16.3606 14.2738 16.3142C14.3416 16.2225 14.3409 16.1997 14.2729 16.279ZM17.1514 16.3633C17.0715 16.4213 17.0057 16.4791 17.0052 16.4916C17.0045 16.5102 17.1485 16.4065 17.2981 16.2805C17.3718 16.2183 17.2794 16.2706 17.1514 16.3633ZM16.9061 16.5549C16.7413 16.6785 16.1051 17.2027 16.0769 17.238C16.0692 17.2478 15.9434 17.3631 15.7973 17.4946C15.4788 17.781 14.8733 18.3882 14.6338 18.6609C14.5389 18.7691 14.7205 18.5934 15.0372 18.2703C15.6355 17.6604 16.023 17.3041 16.597 16.8356C16.7825 16.6844 16.9462 16.5493 16.9609 16.5356C17.0034 16.4962 16.9676 16.5087 16.9061 16.5549ZM13.9531 16.6662C13.8957 16.7361 13.8537 16.7977 13.8598 16.8029C13.8659 16.8081 13.9183 16.7508 13.9767 16.6758C14.1101 16.5034 14.0923 16.4962 13.9531 16.6662ZM38.7178 16.838C38.7655 16.8823 38.9714 17.0621 39.1751 17.2378C39.5797 17.5867 40.2311 18.2192 40.6405 18.6609C40.7838 18.8155 40.8457 18.8724 40.7781 18.7874C40.6515 18.6283 39.5913 17.556 39.3883 17.3815C39.3257 17.3279 39.1992 17.2184 39.1072 17.1387C38.9082 16.9662 38.593 16.7228 38.7178 16.838ZM41.9612 17.5226C41.9942 17.569 42.0276 17.6069 42.0354 17.6069C42.0431 17.6069 42.0224 17.569 41.9894 17.5226C41.9563 17.4763 41.9229 17.4383 41.9153 17.4383C41.9076 17.4383 41.9283 17.4763 41.9612 17.5226ZM13.02 17.9373C12.9474 18.0424 12.9238 18.0848 12.9379 18.0848C12.9445 18.0848 12.9835 18.0343 13.0243 17.9724C13.1074 17.8467 13.1039 17.8164 13.02 17.9373ZM12.6035 18.5977C12.4732 18.816 12.4735 18.8155 12.4894 18.8155C12.4965 18.8155 12.5373 18.7555 12.5799 18.682C12.6226 18.6086 12.6759 18.5201 12.6983 18.4853C12.7207 18.4504 12.7322 18.4221 12.7238 18.4221C12.7153 18.4221 12.6614 18.501 12.6035 18.5977ZM14.2703 19.0691C14.0608 19.3218 14.0797 19.3214 14.3045 19.0685C14.4006 18.9602 14.4689 18.872 14.4561 18.8724C14.4433 18.8729 14.3596 18.9614 14.2703 19.0691ZM41.1823 19.3012C41.3401 19.4911 41.575 19.7884 41.7042 19.9617C41.9437 20.2831 42.0376 20.3846 41.8727 20.1435C41.8224 20.0701 41.7679 19.9946 41.7518 19.9759C41.6975 19.9128 41.6651 19.87 41.5965 19.7712C41.559 19.717 41.5211 19.6664 41.5123 19.6587C41.5034 19.6509 41.427 19.5563 41.3423 19.4484C41.2577 19.3405 41.1693 19.2325 41.1462 19.2086C41.1229 19.1847 41.067 19.118 41.0218 19.0605C40.9764 19.003 40.9294 18.956 40.9172 18.956C40.9051 18.956 41.0243 19.1113 41.1823 19.3012ZM13.978 19.4265C13.919 19.4998 13.8477 19.5852 13.8193 19.6162C13.791 19.6474 13.7551 19.698 13.7396 19.729C13.7086 19.7904 13.7848 19.7052 13.9844 19.455C14.0554 19.3661 14.107 19.2933 14.0994 19.2933C14.0917 19.2933 14.037 19.3533 13.978 19.4265ZM27.7196 19.7632C27.7624 19.7696 27.8257 19.7695 27.8603 19.7627C27.8948 19.7561 27.8597 19.7507 27.7825 19.7511C27.7053 19.7513 27.677 19.7566 27.7196 19.7632ZM28.2255 19.7632C28.2683 19.7696 28.3316 19.7695 28.3661 19.7627C28.4007 19.7561 28.3656 19.7507 28.2884 19.7511C28.2112 19.7513 28.1828 19.7566 28.2255 19.7632ZM13.5897 19.919C13.4959 20.0472 13.4396 20.1393 13.4826 20.0942C13.5484 20.0254 13.6939 19.8238 13.6844 19.8143C13.6787 19.8086 13.636 19.8556 13.5897 19.919ZM13.2138 20.4401C13.0764 20.6504 13.116 20.6236 13.2782 20.3964C13.3362 20.3153 13.3732 20.2496 13.3603 20.2504C13.3474 20.2512 13.2814 20.3366 13.2138 20.4401ZM11.6693 20.3598C11.6528 20.4071 11.6454 20.4457 11.6527 20.4457C11.6717 20.4457 11.7247 20.2996 11.7108 20.2856C11.7044 20.2794 11.6857 20.3126 11.6693 20.3598ZM42.2362 20.717C42.6347 21.3151 42.9399 21.8365 43.2866 22.5114C43.4535 22.836 43.5901 23.089 43.5901 23.0734C43.5906 23.0175 43.1106 22.0875 42.8993 21.7349C42.847 21.6477 42.8043 21.5623 42.8043 21.5451C42.8043 21.5278 42.7917 21.5136 42.7763 21.5136C42.7608 21.5136 42.7482 21.5025 42.7482 21.4888C42.7482 21.4654 42.4131 20.9129 42.3625 20.8531C42.3495 20.8377 42.3084 20.7745 42.271 20.7126C42.2337 20.6507 42.1961 20.5939 42.1875 20.5861C42.1789 20.5784 42.135 20.5178 42.09 20.4514C42.045 20.385 41.9969 20.3238 41.9831 20.3153C41.9695 20.3069 42.0833 20.4877 42.2362 20.717ZM34.6139 20.7286C34.6031 20.8236 34.6001 20.907 34.6072 20.914C34.6143 20.921 34.6291 20.8494 34.6401 20.7548C34.651 20.6602 34.6541 20.5767 34.6466 20.5694C34.6394 20.5622 34.6247 20.6339 34.6139 20.7286ZM12.9803 20.7898C12.8024 21.0588 12.7821 21.092 12.7956 21.092C12.8072 21.092 12.8843 20.9812 13.0541 20.7197C13.0818 20.6772 13.0983 20.6423 13.091 20.6423C13.0838 20.6423 13.0339 20.7087 12.9803 20.7898ZM21.2828 21.0359C21.2828 21.0898 21.2887 21.1121 21.2958 21.085C21.3027 21.058 21.3027 21.0136 21.2958 20.9866C21.2887 20.9597 21.2828 20.9818 21.2828 21.0359ZM11.3321 21.1468C11.3156 21.1941 11.3081 21.2325 11.3154 21.2325C11.3345 21.2325 11.3874 21.0866 11.3736 21.0726C11.3672 21.0662 11.3484 21.0996 11.3321 21.1468ZM21.9367 21.3843C21.9986 21.4404 22.0745 21.4998 22.1053 21.5165C22.1713 21.5519 22.031 21.4271 21.9087 21.3414C21.8536 21.303 21.8634 21.3178 21.9367 21.3843ZM12.5255 21.5129C12.4553 21.6192 12.4245 21.6959 12.475 21.6387C12.5142 21.5946 12.6256 21.4011 12.6121 21.4011C12.6052 21.4011 12.5661 21.4516 12.5255 21.5129ZM12.3533 21.8109C12.3118 21.8817 12.2825 21.9443 12.2882 21.9499C12.2939 21.9556 12.3337 21.8976 12.3766 21.8212C12.475 21.6462 12.455 21.6374 12.3533 21.8109ZM22.5411 21.806C22.5411 21.8117 22.5726 21.837 22.6112 21.8623C22.65 21.8876 22.6815 21.8974 22.6815 21.8841C22.6815 21.8708 22.65 21.8455 22.6112 21.8279C22.5726 21.8102 22.5411 21.8004 22.5411 21.806ZM12.0862 22.3006C12.0393 22.3934 12.0073 22.4692 12.015 22.4692C12.0228 22.4692 12.0675 22.3934 12.1142 22.3006C12.1611 22.2079 12.1931 22.132 12.1853 22.132C12.1776 22.132 12.1329 22.2079 12.0862 22.3006ZM24.4587 22.3568C24.4587 22.4109 24.4644 22.433 24.4715 22.406C24.4786 22.3789 24.4786 22.3347 24.4715 22.3075C24.4644 22.2805 24.4587 22.3026 24.4587 22.3568ZM23.9392 22.3767C23.9741 22.3832 24.0309 22.3832 24.0656 22.3767C24.1005 22.3699 24.072 22.3644 24.0024 22.3644C23.9329 22.3644 23.9044 22.3699 23.9392 22.3767ZM31.7807 22.3767C31.8157 22.3834 31.8663 22.3831 31.8931 22.3762C31.9199 22.3691 31.8915 22.3635 31.8296 22.3638C31.7677 22.3642 31.7458 22.3699 31.7807 22.3767ZM11.9395 22.5898C11.8457 22.774 11.8316 22.8065 11.8447 22.8065C11.8626 22.8065 12.0061 22.5203 11.9943 22.5085C11.9894 22.5036 11.9646 22.5401 11.9395 22.5898ZM11.7542 22.9623C11.6695 23.1367 11.679 23.1611 11.7661 22.9933C11.8051 22.9185 11.8322 22.8524 11.8263 22.8465C11.8204 22.8406 11.7881 22.8928 11.7542 22.9623ZM43.6937 23.3475C43.749 23.475 43.8591 23.7404 43.9385 23.9373C44.0181 24.1341 44.0872 24.2834 44.0921 24.2689C44.097 24.2542 44.0818 24.2007 44.0582 24.1498C44.0346 24.0987 43.9893 23.9876 43.9572 23.9026C43.9252 23.8174 43.8872 23.7227 43.8731 23.6918C43.8394 23.618 43.7372 23.3852 43.6726 23.235C43.6444 23.1694 43.6151 23.1156 43.6075 23.1156C43.5997 23.1156 43.6385 23.22 43.6937 23.3475ZM11.6349 23.2178C11.6194 23.2586 11.612 23.2972 11.6184 23.3036C11.6248 23.31 11.6434 23.2766 11.6599 23.2294C11.6963 23.1245 11.6744 23.1144 11.6349 23.2178ZM11.441 23.665C11.3918 23.7832 11.3562 23.8847 11.3621 23.8905C11.3678 23.8964 11.4127 23.8039 11.4614 23.6854C11.5103 23.5667 11.5457 23.4652 11.5403 23.4598C11.5349 23.4544 11.4903 23.5466 11.441 23.665ZM10.5717 23.5419C10.5699 23.5677 10.5613 23.6119 10.5524 23.6402C10.537 23.6891 10.5379 23.6891 10.5682 23.6417C10.5859 23.6141 10.5947 23.5699 10.5878 23.5432C10.5763 23.4997 10.5746 23.4997 10.5717 23.5419ZM11.308 23.9798C11.2982 24.0068 11.2665 24.0908 11.2375 24.1662C11.2085 24.2415 11.1915 24.3102 11.1999 24.3184C11.2081 24.3267 11.2149 24.3265 11.2149 24.3181C11.2149 24.3097 11.2464 24.2189 11.2849 24.1168C11.3235 24.0144 11.3483 23.9306 11.3402 23.9306C11.3321 23.9306 11.3176 23.9529 11.308 23.9798ZM31.778 24.0336C31.7523 24.0594 31.7544 24.2896 31.7803 24.3058C31.792 24.3129 31.7969 24.2614 31.7913 24.1915C31.7845 24.1056 31.7936 24.0564 31.8194 24.04C31.8405 24.0267 31.8439 24.0156 31.8272 24.0154C31.8105 24.0151 31.7884 24.0233 31.778 24.0336ZM11.1338 24.4394C11.1166 24.4888 11.1034 24.5432 11.1044 24.5603C11.1056 24.5771 11.1245 24.5417 11.1468 24.4812C11.1689 24.4206 11.1822 24.3663 11.1761 24.3603C11.17 24.3542 11.1512 24.3898 11.1338 24.4394ZM44.155 24.4786C44.1542 24.4942 44.1781 24.57 44.2083 24.6473C44.2385 24.7247 44.2631 24.7689 44.263 24.7458C44.2626 24.697 44.1574 24.4365 44.155 24.4786ZM24.2115 24.7544C24.2037 24.7746 24.201 24.9422 24.2054 25.1267L24.2135 25.4624L24.2275 25.0899C24.2412 24.7226 24.2392 24.682 24.2115 24.7544ZM44.2702 24.8159C44.2702 24.8314 44.2871 24.8882 44.308 24.9424C44.3289 24.9965 44.3463 25.0218 44.3468 24.9987C44.3473 24.9754 44.3302 24.9186 44.309 24.8722C44.2877 24.8259 44.2704 24.8006 44.2702 24.8159ZM10.9652 24.9171C10.948 24.9665 10.9348 25.021 10.9358 25.038C10.937 25.055 10.9559 25.0194 10.9781 24.9589C11.0002 24.8985 11.0136 24.8441 11.0075 24.838C11.0014 24.8321 10.9825 24.8677 10.9652 24.9171ZM44.3574 25.0899C44.3646 25.1093 44.4129 25.2692 44.4645 25.4452C44.5161 25.6214 44.5633 25.7503 44.5695 25.7319C44.5756 25.7135 44.5677 25.6643 44.5518 25.6226C44.5361 25.5808 44.4898 25.436 44.4489 25.3007C44.4081 25.1655 44.368 25.0548 44.3594 25.0548C44.351 25.0548 44.3501 25.0707 44.3574 25.0899ZM10.8967 25.1321C10.8771 25.1651 10.8412 25.3516 10.8574 25.336C10.8758 25.3179 10.9326 25.111 10.9191 25.111C10.9136 25.111 10.9034 25.1206 10.8967 25.1321ZM10.2377 25.3921C10.2377 25.4462 10.2436 25.4683 10.2507 25.4414C10.2576 25.4142 10.2576 25.37 10.2507 25.3429C10.2436 25.3159 10.2377 25.338 10.2377 25.3921ZM10.7933 25.4764C10.7758 25.5413 10.767 25.6 10.7738 25.6068C10.7805 25.6135 10.7996 25.5651 10.8163 25.4994C10.833 25.4336 10.8419 25.3751 10.8358 25.3692C10.8299 25.3631 10.8109 25.4115 10.7933 25.4764ZM31.8535 25.6029C31.8535 25.742 31.8582 25.8026 31.8641 25.7373C31.87 25.672 31.87 25.5582 31.8643 25.4844C31.8586 25.4105 31.8537 25.4638 31.8535 25.6029ZM10.7112 25.7478C10.6947 25.8073 10.6822 25.8747 10.6835 25.898C10.6849 25.9211 10.7031 25.8774 10.7242 25.8005C10.7453 25.7238 10.7577 25.6564 10.7518 25.6505C10.7459 25.6446 10.7277 25.6884 10.7112 25.7478ZM44.6054 25.9262C44.6063 25.9493 44.6179 25.9936 44.6312 26.0245L44.6553 26.0806L44.6569 26.0245C44.6577 25.9936 44.6462 25.9493 44.6312 25.9262C44.6069 25.8886 44.6041 25.8886 44.6054 25.9262ZM45.116 26.0245C45.1164 26.0864 45.1221 26.1083 45.1289 26.0734C45.1356 26.0383 45.1353 25.9877 45.1283 25.9609C45.1213 25.9341 45.1157 25.9626 45.116 26.0245ZM10.1554 26.1791C10.1554 26.2641 10.1606 26.2988 10.167 26.2563C10.1735 26.2138 10.1735 26.1442 10.167 26.1017C10.1606 26.0592 10.1554 26.094 10.1554 26.1791ZM44.6887 26.2493C44.6886 26.2648 44.7069 26.3407 44.7294 26.4179L44.7704 26.5585L44.7538 26.4321C44.739 26.3184 44.6896 26.1796 44.6887 26.2493ZM10.5279 26.4757C10.5173 26.5321 10.5142 26.5838 10.5212 26.5907C10.5281 26.5977 10.5422 26.5572 10.5529 26.5007C10.5635 26.4444 10.5665 26.3926 10.5596 26.3857C10.5527 26.3788 10.5385 26.4192 10.5279 26.4757ZM44.7764 26.6147C44.7769 26.6455 44.7874 26.7025 44.7999 26.7412L44.8223 26.8115L44.8231 26.7412C44.8236 26.7025 44.813 26.6455 44.7999 26.6147L44.7756 26.5585L44.7764 26.6147ZM45.1722 26.8115C45.1725 26.8732 45.1783 26.8953 45.185 26.8602C45.1917 26.8253 45.1916 26.7747 45.1845 26.7479C45.1774 26.7209 45.172 26.7496 45.1722 26.8115ZM24.0262 26.9519C24.0208 27.0371 24.026 27.1066 24.0376 27.1066C24.0491 27.1066 24.0587 27.0369 24.0587 26.9519C24.0587 26.7525 24.0385 26.7525 24.0262 26.9519ZM10.103 27.6405C10.103 28.0347 10.1068 28.1959 10.1117 27.9988C10.1166 27.8018 10.1166 27.4792 10.1117 27.2821C10.1068 27.0852 10.103 27.2464 10.103 27.6405ZM44.8612 27.0081C44.8621 27.0391 44.8724 27.1024 44.8842 27.1487L44.9056 27.2331L44.9069 27.1487C44.9076 27.1024 44.8973 27.0391 44.8842 27.0081L44.8599 26.9519L44.8612 27.0081ZM10.3898 27.1125C10.3804 27.1479 10.3738 27.2084 10.3753 27.247C10.3768 27.2885 10.3879 27.2661 10.4024 27.1926C10.4282 27.061 10.4191 27.003 10.3898 27.1125ZM32.5666 27.0986C32.6165 27.1049 32.7051 27.1051 32.7634 27.099C32.8218 27.0929 32.781 27.0877 32.6727 27.0877C32.5644 27.0875 32.5167 27.0924 32.5666 27.0986ZM21.1779 27.3314L20.7002 27.3475L21.1693 27.3535C21.4583 27.3572 21.645 27.3487 21.6558 27.3314C21.6652 27.3158 21.6691 27.3059 21.6644 27.3093C21.6597 27.3125 21.4408 27.3224 21.1779 27.3314ZM44.9594 27.5421C44.9683 27.6194 44.9803 27.688 44.986 27.6944C45.0058 27.7165 44.9909 27.5421 44.967 27.4718C44.951 27.4244 44.9484 27.4474 44.9594 27.5421ZM41.3332 27.5914C41.3405 27.6029 41.4403 27.6125 41.5555 27.6125C41.6705 27.6125 41.7646 27.6029 41.7646 27.5914C41.7646 27.5798 41.6646 27.5703 41.5423 27.5703C41.4202 27.5703 41.3261 27.5798 41.3332 27.5914ZM10.294 27.7248C10.294 27.7789 10.2998 27.801 10.3068 27.774C10.3139 27.747 10.3139 27.7027 10.3068 27.6757C10.2998 27.6486 10.294 27.6706 10.294 27.7248ZM45.0036 27.8233C45.0039 27.885 45.0096 27.9071 45.0164 27.872C45.0231 27.8371 45.023 27.7865 45.0159 27.7597C45.0088 27.7327 45.0034 27.7614 45.0036 27.8233ZM45.0444 28.1184C45.0531 28.2034 45.0649 28.2782 45.0707 28.2846C45.0902 28.3071 45.0751 28.1037 45.0518 28.034C45.0366 27.9887 45.0341 28.0185 45.0444 28.1184ZM10.2107 28.315C10.2107 28.3846 10.2163 28.4131 10.223 28.3782C10.2296 28.3435 10.2296 28.2867 10.223 28.2517C10.2163 28.217 10.2107 28.2455 10.2107 28.315ZM45.0886 28.4556C45.0886 28.5251 45.0939 28.5536 45.1007 28.5189C45.1074 28.484 45.1074 28.4271 45.1007 28.3924C45.0939 28.3575 45.0886 28.386 45.0886 28.4556ZM45.1722 28.4696C45.1725 28.5315 45.1783 28.5534 45.185 28.5185C45.1917 28.4834 45.1916 28.4329 45.1845 28.406C45.1774 28.3792 45.172 28.4077 45.1722 28.4696ZM10.1821 28.5821C10.1824 28.6438 10.1881 28.6659 10.1949 28.6308C10.2016 28.5959 10.2014 28.5453 10.1944 28.5185C10.1873 28.4915 10.1819 28.5202 10.1821 28.5821ZM45.1138 28.7226C45.113 28.7689 45.1226 28.8575 45.1354 28.9194C45.1557 29.0172 45.1589 29.0207 45.1604 28.9473C45.1612 28.901 45.1514 28.8124 45.1386 28.7507C45.1184 28.6529 45.1152 28.6492 45.1138 28.7226ZM10.1244 28.7647C10.1244 28.8033 10.1345 28.8666 10.147 28.9052L10.1694 28.9755V28.9052C10.1694 28.8666 10.1593 28.8033 10.147 28.7647L10.1244 28.6944V28.7647ZM38.0521 28.914C38.0646 28.9264 38.143 28.9325 38.2264 28.9276L38.3779 28.9185L38.2035 28.9049C38.1077 28.8973 38.0394 28.9015 38.0521 28.914ZM33.9585 28.9246C33.9855 28.9317 34.0298 28.9317 34.0568 28.9246C34.0839 28.9175 34.0617 28.9118 34.0077 28.9118C33.9536 28.9118 33.9315 28.9175 33.9585 28.9246ZM33.4526 29.0089C33.4796 29.016 33.5239 29.016 33.5509 29.0089C33.5781 29.0018 33.5558 28.9961 33.5018 28.9961C33.4477 28.9961 33.4256 29.0018 33.4526 29.0089ZM18.0092 29.178C18.044 29.1848 18.1008 29.1848 18.1357 29.178C18.1704 29.1713 18.1419 29.1659 18.0725 29.1659C18.0028 29.1659 17.9743 29.1713 18.0092 29.178ZM22.3096 29.178C22.3445 29.1848 22.395 29.1846 22.4219 29.1775C22.4488 29.1704 22.4202 29.165 22.3583 29.1652C22.2966 29.1656 22.2745 29.1713 22.3096 29.178ZM17.2647 29.2627C17.3076 29.2691 17.3708 29.2689 17.4054 29.2624C17.4399 29.2556 17.4049 29.2504 17.3276 29.2505C17.2504 29.2507 17.2221 29.2563 17.2647 29.2627ZM39.65 29.2624C39.6849 29.2691 39.7355 29.2689 39.7625 29.2618C39.7893 29.2548 39.7606 29.2494 39.6989 29.2495C39.637 29.2499 39.6151 29.2556 39.65 29.2624ZM15.6736 29.6856C15.6661 29.6976 15.7097 29.7025 15.7702 29.6967C15.8307 29.691 15.8803 29.6812 15.8803 29.6752C15.8803 29.6542 15.6869 29.664 15.6736 29.6856ZM23.5201 29.9733C23.5149 30.066 23.5201 30.1419 23.5318 30.1419C23.5432 30.1419 23.5528 30.066 23.5528 29.9733C23.5528 29.7556 23.5324 29.7556 23.5201 29.9733ZM32.5177 30.3188L32.5316 30.5213L32.5403 30.3414C32.5452 30.2426 32.539 30.1514 32.5267 30.1389C32.5142 30.1266 32.5103 30.2074 32.5177 30.3188ZM23.366 31.7297C23.366 31.8689 23.3707 31.9294 23.3766 31.8641C23.3825 31.7989 23.3825 31.6851 23.3768 31.6112C23.3709 31.5373 23.3662 31.5906 23.366 31.7297ZM32.696 32.1795C32.6961 32.2877 32.7012 32.3286 32.7073 32.2702C32.7133 32.2119 32.7132 32.1233 32.7071 32.0734C32.7009 32.0235 32.6958 32.0712 32.696 32.1795ZM32.7803 33.2194C32.7805 33.3275 32.7855 33.3683 32.7916 33.3102C32.7977 33.2518 32.7975 33.1633 32.7914 33.1134C32.7852 33.0634 32.7801 33.1112 32.7803 33.2194ZM23.3593 33.4918C23.3576 33.5643 23.366 33.6297 23.3783 33.6373C23.3905 33.6449 23.3962 33.6046 23.3908 33.5476C23.3743 33.3739 23.3628 33.3533 23.3593 33.4918ZM23.5213 34.2513C23.5343 34.3294 23.5382 34.3334 23.5471 34.2771C23.5528 34.2405 23.5459 34.199 23.5318 34.1848C23.5162 34.1693 23.512 34.1955 23.5213 34.2513ZM25.3914 37.1962C25.3914 37.4976 25.3954 37.621 25.4005 37.4703C25.4055 37.3195 25.4055 37.073 25.4005 36.9222C25.3954 36.7715 25.3914 36.8949 25.3914 37.1962ZM29.1921 36.7676C29.1848 36.7792 29.2442 36.7851 29.3239 36.7807C29.5823 36.7664 29.6138 36.7551 29.4072 36.7507C29.2961 36.7485 29.1991 36.7561 29.1921 36.7676Z" fill="#FCE494"/>
<path fill-rule="evenodd" clip-rule="evenodd" d="M26.8907 4.41773C26.9413 4.42397 27.0172 4.42381 27.0594 4.4174C27.1017 4.41099 27.0604 4.40593 26.9676 4.4061C26.8749 4.40627 26.8403 4.41149 26.8907 4.41773ZM28.2534 4.4174C28.2959 4.42397 28.3654 4.42397 28.4079 4.4174C28.4504 4.41099 28.4156 4.40576 28.3307 4.40576C28.2457 4.40576 28.2109 4.41099 28.2534 4.4174ZM44.0411 11.1847C44.1251 11.2697 44.2 11.3393 44.2077 11.3393C44.2155 11.3393 44.1531 11.2697 44.0691 11.1847C43.9852 11.0997 43.9103 11.03 43.9025 11.03C43.8948 11.03 43.9572 11.0997 44.0411 11.1847ZM4.42084 26.7268C4.42118 26.7885 4.42691 26.8106 4.43366 26.7755C4.44023 26.7406 4.44006 26.69 4.43298 26.6632C4.4259 26.6362 4.4205 26.6649 4.42084 26.7268ZM50.8795 27.3592C50.8795 27.4595 50.8845 27.5006 50.8908 27.4504C50.897 27.4001 50.897 27.318 50.8908 27.2678C50.8845 27.2175 50.8795 27.2586 50.8795 27.3592ZM50.8795 27.9494C50.8795 28.0497 50.8845 28.0908 50.8908 28.0406C50.897 27.9903 50.897 27.9082 50.8908 27.858C50.8845 27.8077 50.8795 27.8489 50.8795 27.9494ZM4.42017 28.5114C4.42017 28.5655 4.42607 28.5876 4.43315 28.5606C4.44006 28.5335 4.44006 28.4893 4.43315 28.4622C4.42607 28.4352 4.42017 28.4573 4.42017 28.5114ZM44.6155 43.4984L44.5329 43.5898L44.6243 43.5071C44.7094 43.4303 44.7285 43.407 44.7069 43.407C44.702 43.407 44.6608 43.4481 44.6155 43.4984ZM11.201 44.0815C11.2614 44.1434 11.317 44.194 11.3248 44.194C11.3325 44.194 11.2894 44.1434 11.229 44.0815C11.1686 44.0198 11.113 43.9692 11.1052 43.9692C11.0975 43.9692 11.1406 44.0198 11.201 44.0815ZM43.4633 44.6506L43.3806 44.742L43.472 44.6594C43.5572 44.5825 43.5762 44.5594 43.5545 44.5594C43.5496 44.5594 43.5086 44.6004 43.4633 44.6506Z" fill="#745C3C"/>
<path fill-rule="evenodd" clip-rule="evenodd" d="M27.1715 4.41737C27.2064 4.42412 27.257 4.42378 27.284 4.41687C27.3108 4.40978 27.2821 4.40422 27.2204 4.40456C27.1585 4.40489 27.1366 4.41063 27.1715 4.41737ZM28.0143 4.41737C28.049 4.42395 28.106 4.42395 28.1408 4.41737C28.1755 4.41063 28.147 4.40506 28.0775 4.40506C28.0081 4.40506 27.9796 4.41063 28.0143 4.41737ZM50.8783 27.6545C50.8786 27.7317 50.884 27.76 50.8904 27.7172C50.897 27.6745 50.8968 27.6113 50.8901 27.5767C50.8833 27.5422 50.8781 27.5771 50.8783 27.6545Z" fill="#7C6C44"/>
<path fill-rule="evenodd" clip-rule="evenodd" d="M27.4956 4.41825C27.585 4.42398 27.7241 4.42381 27.8047 4.41825C27.8853 4.41251 27.8122 4.40796 27.6422 4.40796C27.472 4.40813 27.4061 4.41268 27.4956 4.41825ZM26.005 4.47305C26.0321 4.48013 26.0763 4.48013 26.1035 4.47305C26.1304 4.46597 26.1083 4.46023 26.0542 4.46023C26.0001 4.46023 25.978 4.46597 26.005 4.47305ZM29.1809 4.47305C29.2079 4.48013 29.2522 4.48013 29.2792 4.47305C29.3062 4.46597 29.2841 4.46023 29.23 4.46023C29.1758 4.46023 29.1537 4.46597 29.1809 4.47305ZM11.7051 10.7562L11.6226 10.8476L11.7138 10.765C11.7641 10.7196 11.8052 10.6786 11.8052 10.6737C11.8052 10.652 11.782 10.671 11.7051 10.7562ZM10.7496 11.7118L10.667 11.8032L10.7584 11.7206C10.8086 11.6752 10.8496 11.6341 10.8496 11.6292C10.8496 11.6076 10.8265 11.6267 10.7496 11.7118ZM27.0592 50.875C27.0943 50.8817 27.1449 50.8814 27.1717 50.8745C27.1985 50.8674 27.17 50.8618 27.1081 50.8622C27.0462 50.8625 27.0243 50.8682 27.0592 50.875ZM28.141 50.8745C28.168 50.8816 28.2123 50.8816 28.2393 50.8745C28.2664 50.8674 28.2442 50.8617 28.1902 50.8617C28.1361 50.8617 28.114 50.8674 28.141 50.8745Z" fill="#B4A46C"/>
</g>
</g>
<defs>
<clipPath id="clip0_204_2077">
<rect width="54.2691" height="54.2691" fill="white" transform="translate(0.506958 0.50708)"/>
</clipPath>
<clipPath id="clip1_204_2077">
<rect width="54.2691" height="54.2691" fill="white" transform="translate(0.506958 0.50708)"/>
</clipPath>
</defs>
</svg>
