<?xml version="1.0" encoding="utf-8"?>
<!-- Generator: Adobe Illustrator 25.0.1, SVG Export Plug-In . SVG Version: 6.00 Build 0)  -->
<svg version="1.1" id="Calque_1" xmlns="http://www.w3.org/2000/svg" xmlns:xlink="http://www.w3.org/1999/xlink" x="0px" y="0px"
	 viewBox="0 0 1756.5 248.1" style="enable-background:new 0 0 1756.5 248.1;" xml:space="preserve">
<style type="text/css">
	.st0{fill:#F0C418;}
	.st1{fill:#FFFFFF;}
	.st2{fill:#F1C518;}
	.st3{fill:#374279;}
</style>
<g>
	<path d="M1715.2,46.7c3.1-2.9,5.5-6.4,4.8-11c-0.6-9.6-4.1-13.4-14.2-14.2c-16.9-1.4-33.9-2.5-50.8-3.7c-6-0.4-10.8,1.6-14.5,6.7
		c-4.9,6.7-10.1,13.2-15.1,19.8c-0.5-0.1-1-0.3-1.5-0.4c0-4.4,0.2-8.7,0-13c-0.5-8.4-6.5-13.9-14.8-12.8c-21.7,3-43.6,4.7-65.2,8.6
		c1-10-3.8-15.9-14.1-16c-19.4-0.2-38.8-0.2-58.3,0c-8,0.1-11.9,3.8-13.6,11.7c-0.5,2.3-0.9,4.7-1.4,7.1
		c-2.2,10.4-4.4,20.9-6.9,32.5c-15.4-29-40.4-38.7-69.9-39c-29.7-0.3-53.7,13.1-74.1,34.3c-3.3-15.7-11.7-26.9-24.7-35.2
		c-14.6-9.4-31.1-12-47.8-13.8c-4.4-2.8-9.1-1.6-13.8-1.3c-3.3,1.1-6.7,0.9-10.1,0.9c-2,0-4,0.1-5.9,0.5c-2.7,0.9-5.6,0.6-8.4,1
		c-2.1,0.4-4.1,0.9-6.2,1.1c-1.5,0.2-2.9,0.6-4.3,0.9c-2,0.3-4,0.7-5.9,1.2c-1.4,0.2-2.8,0.4-4.2,0.7c-1.6,0.5-3.3,0.8-4.9,1.2
		c-1.6,0.5-3.3,0.8-4.9,1.3c-1.4,0.4-2.8,0.8-4.1,1.4c-5.6,2.5-7.8,7.3-8.9,12.9c-1.5,9.6-4.5,18.9-4.9,27.2
		c-1.1-4.3-5.3-8.6-9.3-12.9c-1-0.9-2-1.9-3-2.8c-0.6-0.6-1.1-1.1-1.7-1.7c-1.3-1.3-2.8-2.2-4.2-3.2c-1-0.7-1.9-1.5-2.8-2.3
		c-0.4-0.3-0.8-0.5-1.2-0.7c-0.8-0.4-1.7-0.8-2.5-1.2c-0.8-0.4-1.7-0.9-2.5-1.3c-0.8-0.4-1.7-0.9-2.5-1.3c-1.3-0.7-2.6-1.4-4-2
		c-1.2-0.4-2.4-0.9-3.7-1.3c-1.5-0.5-3-1-4.6-1.4c-1.9-0.4-3.7-1-5.6-1.3c-1.4-0.2-2.7-0.4-4-0.8c-0.5-0.2-1.1-0.3-1.6-0.4
		c-0.8-0.1-1.7-0.2-2.5-0.2c-2.3,0-4.6-0.4-6.8-1c-1.2-0.2-2.4-0.3-3.6-0.3c-1.2,0-2.4,0-3.6,0c-1.5,0-3.1,0-4.6,0.1
		c-0.9,0.1-1.8,0.2-2.7,0.5c-2.6,0.9-5.3,0.5-7.9,1.1c-1.9,0.6-4,0.8-6,1.3c-1.4,0.4-2.7,0.8-4.1,1.3c-3.2,1.1-6.4,2.2-9.6,3.2
		c-5.1,1.7-10,4-14.5,6.9c-7,4.6-13.8,9.4-19.7,15.4c-2.4,2.5-3.6,1.8-4.3-1.3c-0.3-1-0.8-2-1.3-2.9c-0.5-0.9-0.9-1.8-1.4-2.7
		c-0.8-1.5-1.6-3-2.3-4.6c-0.4-0.9-0.9-1.8-1.4-2.6c-0.7-1-1.6-1.9-2.3-2.9c-0.9-1.2-1.7-2.6-2.7-3.8c-1.1-1.2-2.3-2.4-3.4-3.5
		C953.5-8.4,874.7,10.2,862.1,14.7c0-2.9-7.6-3.5-7.6-3.5h-46.2h-37.9c0.2,0.1,0.3,0.2,0.5,0.2c-1.7-0.1-3.5-0.2-5.3-0.2h-14.9
		c-2.3,0-4.7,0-7.1,0h-0.1l-0.1,0c-1.2,0-2.4,0-3.5-0.1c-3.6,0.1-7.2-0.1-10.8,0c-2.8,0.1-5.6,0.7-8.3,1.4
		c-4.1,1.3-7.7-0.7-11.4-1.8c-1.1-0.3-2.2-0.6-3.4-0.8c-1.7-0.5-3.4-1-5.2-1.3c-4.8-1.5-9.9-1.7-14.8-3c-1.6-0.3-3.3-0.5-5-0.5
		c-6.2,0-12.3,0-18.5,0c-0.7,0-1.3,0-2,0.1c-1,0-1.9,0.1-2.8,0.3c-2,0.5-4,0.9-6.1,1.1c-1.7,0.2-3.3,0.8-4.9,1.1
		c-1.6,0.3-3.1,0.9-4.7,1.1c-0.8,0.1-1.5,0.2-2.3,0.4c-1,0.2-1.9,0.6-2.8,1.1c-0.9,0.4-1.8,0.8-2.7,1c-0.7,0.1-1.4,0.2-2.1,0.4
		c-0.5,0.1-0.9,0.3-1.4,0.5c-1.3,0.8-2.5,1.6-3.8,2.3c-1.3,0.7-2.7,1.4-4.1,2.1c-0.9,0.5-1.8,0.9-2.7,1.4c-1.3,0.7-2.6,1.4-4,1.9
		c-0.5,0.2-0.9,0.4-1.4,0.7c-0.9,0.5-1.9,0.9-2.7,1.6c-2.3,1.7-4.1,4.1-7.3,5.1c0.7-7.6-2.1-12.6-8.6-15.4c-1.7-0.5-3.4-0.9-5-1.3
		c-1.5-0.4-3-0.5-4.5-0.5c-0.9,0-1.9,0.1-2.8,0.2c-0.6,0.1-1.3,0.2-1.9,0.5c-5.6,0.8-11.2,0.3-16.7,0.3c-2,0-4,0.1-6,0.1
		c-1.6-0.1-3.3,0-4.9,0c-2,0-3.9,0-5.9,0.2c-0.6,0.1-1.3,0.2-1.9,0.4c-4.1,1.1-8.2,0.3-12.4,0.7c-2.6,0.4-5.1,1.1-6.4,3.8
		c-2.7,3.1-4.3,6.5-5,10.6c-1.8,9.8-4,19.6-6.3,30.7c-4.1-13.5-7.8-25.7-11.5-37.9c-2.3-7.5-6.9-11-14.6-10.7
		c-18.8,0.7-37.5,1.6-56.3,2.6c-7.6,0.4-11.7,3.9-13.3,11.3c-2.6,12-5,24-7.8,37.1c-14.6-26.6-38.1-36.1-65.7-37.3
		c-27.6-1.2-51,9.6-71.3,28c-1.8-3.7-2.2-6.9-1.1-10.6c1.3-4.2,2-8.5,3-12.8c2.9-12.4-1.7-18.3-14.4-18.4c-19-0.1-38,0.1-57-0.1
		c-7.4-0.1-12.4,2.8-15.9,9.3c-7.6,14.1-15.5,27.9-23.5,41.8c-1.1,1.9-1.5,4.6-4.3,5.1c-1.8-13.2-3.3-26.3-5.3-39.3
		c-1.2-8.1-5.9-12.2-13.9-11.9c-19.4,0.6-38.8,1.3-58.1,2.4c-9.4,0.5-12.5,3.9-14.3,13.1c-9.2,47.9-18.3,95.7-27.4,143.6
		c-1.3,6.7-3.7,13.4-3.3,20c0.6,9.4-1.8,17.9-4.1,26.6c0,1.6,0,3.2,0,4.8c1.9,9.6,5.3,12.2,15.6,12.5c16.6,0.6,33.2-0.9,49.8-1.3
		c6.7-0.2,12-2.9,14.9-9.3c1-2.1,2.2-2.9,4.7-2.5c10.7,1.8,21.4,1.9,32-0.9c1.3,16.3,5.3,20.2,22,19.4c13.2-0.7,26.4-0.7,39.5-1.6
		c14.4-1,18.2-3.3,21.7-17.3c2.4-9.6,4.1-19.4,7.3-29.4c8.1,15.8,19.8,27.1,35.5,33.6c30.3,12.6,59.1,7.8,86.7-8.4
		c6.5-3.9,11.9-9.3,18.6-14c-1,4.9-1.9,9-2.7,13.1c-2,10.4,3.7,18.2,14.2,18.4c17.2,0.4,34.4,0.4,51.6,0c8.2-0.2,12-3.4,14.1-11.3
		c2.5-9.2,4.5-18.6,6.7-28.1c0.5,4.3,1.8,8.2,2.5,12.3c0.8,4.3,1.7,8.6,2.8,12.9c2.5,9.6,8.5,13.8,18.6,12.9
		c17.1-1.6,34.2-3.2,51.4-4.7c5.1-0.4,10.5-0.7,15-3.7c2.9-2,5.5-1.6,8.4-0.2c10.3,4.9,21.1,8.7,32.2,11.5
		c7.2,1.8,14.4,3.8,21.9,3.2c11.2-0.8,22.3-2.8,33-6.2c36.2-11.4,60.2-41.8,62.5-81.8c0.4-6.2,0.6-12.4,2.3-18.4
		c0.4-2.6,0.8-5.1,1.5-7.6c0.7-2.6,2.7-3.6,5-3.2c2.8,0.5,1.3,2.9,1,4.4c-0.6,3.3-0.6,6.8-2.1,9.9c-0.4,0.9-0.7,1.9-0.9,2.9
		c-4.3,25.6-8,51.3-11.4,77.1c-1.5,11.5,5.9,19.2,17.9,18.3c14-1,27.9-1.5,41.9-2.2c10.7-0.6,15.4-4.4,18.3-14.8
		c4.6-16.8,8.7-33.7,12.9-50.6c0.9-4.6,2.6-9.1,3.6-13.7c0.6-2.7,1.3-5.3,2-7.9c0.8-3.2,1.5-6.3,2.4-9.5c0.5-2,0.9-4,1.5-6
		c0.4-2,1-3.9,1.5-5.9c0.5-4.3,2.7-6.4,7.1-5.9c2.4,0.2,4.7-0.1,7.1-0.5c2.3-0.4,3.4,0.6,3.1,3c-0.2,1.6-0.7,3.1-1,4.6
		c-0.9,3.8-1.2,7.7-2.1,11.5c-0.5,2-0.5,4.2-1.2,6.2c-0.4,1.8-0.8,3.5-1.4,5.2c-1.9,4-1.1,8.5-2.2,12.7c-0.5,2.4-0.8,4.9-1.8,7.2
		c-3.9,17.2-3.5,35-7.1,52.2c-0.1,0.4,0,0.8,0,1.2c0.2,6.3,3.5,10.5,9.3,12.7c3.8,1.4,7.8,1.8,11.8,1.8c11.8,0,23.6,0,35.4,0
		c2.8,0,5.6-0.2,8.4-0.8c7-1.4,11.3-5.4,13.1-12.4c1.5-6.2,2.5-12.4,4.5-19c0.7,6.9,2.1,13.2,3.6,19.4c2.3,9.9,8.1,13.8,18,12.1
		c17.2-2.9,34.3-6.4,51.4-9.6c10.4-2,14.6-9.4,12-19.6c-0.8-3.2-2.7-6.2-2.5-9.9c16.5,24.8,39.6,36.5,69,36.2
		c28.7-0.3,52.3-12.1,72.9-32.3c-0.7,7-2.3,13-3.2,19.1c-1.7,11.6,3.5,19.3,15,20c17,1,34,0.9,51,0c10.3-0.6,14.9-5.6,16.8-15.7
		c2-10.6,3.7-21.3,5.7-31.9c1.6-8.3,1.7-8.3,10.3-9.6c16.1-2.5,31.7-6.7,46.2-14.4c8.3-4.4,8.3-4.6,10.3,4.9
		c5.1,25.1,18.8,43.7,42.7,53.5c29.9,12.3,58.4,7.2,85.6-8.8c7.2-4.2,13-10.2,20-15.4c-0.1,3-0.8,5.4-1.2,7.7
		c-2.2,14,3.3,20.8,17.5,20.3c12.4-0.4,24.7-1.8,37.1-2.8c18.9-1.5,37.9-2.9,56.8-4.5c3.7-0.3,4.8,0.7,4.9,4.5
		c0.3,9,5.1,13.7,14,13.8c18.6,0.2,37.2,0.2,55.9,0c7.2-0.1,10.9-3.2,13.1-10.1c0.6-1.9,1.1-3.9,1.5-5.8
		c4.1-19.2,8.3-38.3,12.4-57.5c0.8-4,1.9-7.8,4.8-10.9c11.5-12.3,22.4-25.1,33.7-37.5c13.9-15.3,27.5-30.7,41.1-46.2
		c5.6-6.3,6.1-13.4,1.2-19.1C1711.3,52,1712,49.6,1715.2,46.7z M1538.8,115.3c-15.4,0.6-15.4,0.9-11.4-13.8c2.3-8.6,4.7-17.2,7-25.7
		c0.4,0,0.7,0,1.1-0.1c2.4,11.3,4.7,22.6,7.2,33.9C1543.5,113.2,1543.9,115.1,1538.8,115.3z"/>
	<g>
		<path class="st0" d="M184.4,112.7c-10.9,21.4-21.8,42.7-32.5,64.2c-1.4,2.8-2.7,4.5-6.2,4.2c-5.5-0.5-12.5,2.1-16.3-1
			c-3.6-3-1.9-10.2-2.6-15.5c-1.6-12.9-2.7-25.8-4.1-38.8c-0.2-1.9-0.1-4-1.9-6.5c-2.6,14.3-5,27.8-7.4,41.3
			c-1.7,9.2-3.4,18.5-4.9,27.8c-0.4,2.7-1.5,3.6-4.3,3.6c-15.8,0.3-31.6,0.8-47.4,1.4c-3.6,0.1-4.7-0.4-3.9-4.5
			c8.4-43.4,16.6-86.8,24.9-130.1c1.7-8.8,3.6-17.6,5-26.5c0.5-3,1.7-4,4.5-4.1c18.2-0.7,36.4-1.3,54.5-2.2c3.3-0.2,3.9,1.2,4.3,4
			c3.1,24.2,6.4,48.3,9.6,72.8c2.6-0.8,3-3.2,3.9-4.9c13.6-24,27.2-48,40.6-72.1c1.9-3.4,3.9-4.8,7.9-4.7c18,0.2,36,0.2,54,0
			c4.4-0.1,5.2,0.9,4.1,5.3c-13.4,55.2-26.5,110.4-39.6,165.6c-0.8,3.6-2,4.8-5.8,4.9c-15,0.4-30,1.2-44.9,2
			c-4.3,0.2-5.5-0.7-4.7-5.2c4.9-26.1,9.5-52.3,14.2-78.5c0.4-1.1,1-2.2-0.2-3.1C185.2,112,184.7,112.5,184.4,112.7z"/>
		<path class="st0" d="M472.9,106.4c-3.4,14.3-6.6,27.4-9.7,40.6c-3.3,13.8-6.7,27.6-9.6,41.4c-0.9,4.2-2.7,4.9-6.5,4.9
			c-14.4-0.2-28.8-0.3-43.2,0.1c-5,0.1-5.5-1.4-4.6-5.7c8.3-40.5,16.5-81.1,24.8-121.6c2.6-12.7,5.1-25.5,7.6-38.2
			c0.5-2.6,1.1-4.2,4.4-4.3c17.4-0.6,34.8-1.4,52.1-2.4c3.7-0.2,5.2,0.8,6.2,4.4c7.3,24.7,14.9,49.3,22.5,73.9
			c0.5,1.7,1.1,3.4,2.1,6.7c3.1-15.5,5.9-29.4,8.7-43.3c2.2-10.8,4.4-21.5,6.3-32.3c0.6-3.6,2.3-4.8,5.9-4.9
			c15.6-0.4,31.2-1,46.7-1.7c4.3-0.2,5.4,0.6,4.3,5.3c-11.6,50-23.1,100.1-34.4,150.2c-1.1,4.7-2.6,6.9-7.9,7.3
			c-17.9,1.3-35.9,3.1-53.8,4.9c-3.1,0.3-4-0.6-4.6-3.7c-5.4-26.2-11-52.4-16.5-78.6C473.7,108.7,473.5,108.1,472.9,106.4z"/>
		<path class="st0" d="M585.8,132.4c14.6,8.9,30.2,12.5,46.7,12.4c4.4,0,8.8-0.6,12.8-2.6c3.2-1.6,5.5-4.1,5.1-8
			c-0.4-3.6-3.4-4.8-6.2-5.7c-4-1.3-8.2-1.6-12.5-1.5c-5.6,0.2-11.2-0.2-16.7-1.7c-18.6-4.9-28.9-22.7-25.6-43.7
			c4.8-31.2,29.8-55.8,63.1-61.5c19.4-3.4,38.6-1.8,57.3,4.9c3.5,1.3,5.1,2.9,3.9,7c-3.8,13-7.3,26.2-10.6,39.3
			c-0.9,3.7-2.1,4.6-6.1,3.3c-13.6-4.5-27.6-6.6-42-4c-7.7,1.4-13.1,5-12.3,9.3c1.3,6.8,7.5,6.4,12.4,7.1c5.3,0.7,10.8,0.3,16.2,0.5
			c24.3,0.5,38.9,17.9,35,41.8c-6.6,41.3-37.7,67.1-81.6,67.9c-18.2,0.4-34.3-6.8-50.3-14.1c-1.9-0.9-2.6-2-2-4.2
			C576.9,163.5,581.3,148.2,585.8,132.4z"/>
		<path class="st0" d="M1708.6,33.8c-15.4,17.2-29.9,33.5-44.4,49.7c-11.5,12.8-22.9,25.7-34.4,38.5c-2.2,2.5-3.6,5.1-4.2,8.3
			c-4.6,21.5-9.4,42.9-13.9,64.4c-0.9,4.1-2.4,5.7-6.9,5.6c-15.4-0.4-30.8-0.3-46.2-0.1c-4.1,0.1-5-0.8-4.2-5
			c4.3-20.9,8.2-42,12.6-62.9c1.4-6.4-0.1-12.3-1.4-18.3c-4.9-23.7-9.9-47.3-15-71c-0.9-4.2-0.7-6.2,4.7-6.7
			c17.3-1.7,34.6-3.9,51.8-6.3c4.4-0.6,4.7,0.7,4.9,4.4c0.6,14.8-0.6,29.6,1,45.5c8.4-10.9,16.2-21.1,24.1-31.4
			c4.1-5.4,8.3-10.8,12.4-16.2c1.2-1.6,2.3-3.1,4.8-2.9C1671.8,31.1,1689.5,32.4,1708.6,33.8z"/>
		<path class="st0" d="M713.2,81.3c3.6-18.2,7.2-35.8,10.6-53.5c0.5-2.6,1.9-3,4.2-3c41,0,82.1-0.1,123.1-0.2c3,0,3.7,0.8,3.1,3.8
			c-3,14.3-5.9,28.6-8.6,42.9c-0.6,3.1-1.6,4.2-4.9,4.2c-9,0.1-18,0.9-27,1c-3.8,0-5.1,1.3-6,4.8c-8.7,34.3-17.6,68.5-26.2,102.8
			c-1.2,4.7-3.1,6.3-8,6.4c-13,0.2-26,0.8-39,1.8c-4.8,0.4-5.8-0.7-4.9-5.3c3.5-18.5,6.7-37,10-55.5c2.9-16.1,5.7-32.3,8.7-48.4
			c0.6-3.2-0.3-3.7-3.2-3.5C734.7,80.4,724.2,80.8,713.2,81.3z"/>
		<path class="st0" d="M1532.1,22.5c-5.8,21.3-11.6,42-17.1,62.8c-3.3,12.6-6,25.3-9.2,37.8c-0.8,3.1-0.3,4,3.1,4.3
			c12.8,1,25.6,0.1,38.4-0.2c4.8-0.1,6.3,0.6,4.7,5.9c-4.2,14.2-7.9,28.5-11.6,42.8c-0.9,3.8-2.7,5-6.5,5.3
			c-30.3,2.2-60.6,4.4-90.9,7c-5.6,0.5-6.1-1-5.1-6c10.4-51.3,20.6-102.7,30.7-154c0.8-4.1,2.1-5.9,6.8-5.8
			C1494.2,22.7,1513,22.5,1532.1,22.5z"/>
		<path class="st0" d="M958.8,130.3c23.1-13.6,33.3-34.6,34.5-62.1c-0.3-2.3-0.3-5.9-1.2-9.4c-5.1-21.2-20.1-32.4-40.3-36.2
			c-28.8-5.4-57.3-1.7-85.2,6.9c-2.9,0.9-3.4,2.8-3.9,5.3c-10.2,51.3-20.5,102.7-30.8,154c-0.8,3.9,0.4,4.8,4.1,4.8
			c14-0.2,28-0.2,42,0c3.9,0.1,5-1.3,5.7-5c2.5-12.7,5.6-25.4,8.2-38.1c0.9-4.7,2.5-7.7,8-6.8c1.2,0.2,2.4,0.2,3.6,0
			c4-0.9,5,1.1,5.6,4.6c2.4,14,5.2,27.9,7.6,41.9c0.6,3.4,1.6,4.1,5,3.4c15.7-3.2,31.4-6.2,47.1-8.9c4.1-0.7,4.3-2,2.9-5.4
			c-5.4-13.5-10.4-27.2-15.9-40.7C954.4,134.6,954.8,132.6,958.8,130.3z M932.8,94.9c-6.2,7.1-15.1,11.1-26.4,11.7
			c-3.6,0.9-4.9,0-3.8-4.5c2.9-11.8,5.3-23.7,7.8-35.7c0.6-2.9,1.9-4.2,5-4.7c9.3-1.4,17,1.1,20.7,7.4
			C940.2,76.1,938.7,88.1,932.8,94.9z"/>
		<path class="st0" d="M1284.6,40.5c-8.7-10.4-20.8-15.5-33.8-17.9c-28-5.2-55.3-0.7-82.5,6c-3,0.7-3.4,2.9-3.8,5.4
			c-2.5,13.8-5.2,27.5-7.7,41.3c-7.1,39.1-14.1,78.3-21.4,117.4c-0.8,4.2,0.5,4.7,4,4.6c7.8-0.2,15.6-0.1,23.4-0.1
			c7.6,0,15.2-0.2,22.8,0.1c3.6,0.1,5.1-0.8,5.8-4.8c2.4-15.4,5.5-30.7,8-46.1c0.6-3.9,2.1-4.9,5.7-5c10.8-0.2,21.5-1.8,32-4.7
			c22.3-6.3,41.8-16.9,51.7-39.2C1297.5,78,1299.4,58.2,1284.6,40.5z M1235.3,94.8c-5.5,6.3-12.5,9.8-21.6,9.6
			c-4.6,1.1-5.4-1.1-4.2-5.7c2.1-8.3,4-16.7,5.5-25.1c0.6-3.1,2-4.2,4.9-4.8c8.7-1.6,15.7,0.2,18.9,5.4
			C1242.1,79.6,1240.7,88.6,1235.3,94.8z"/>
		<path class="st0" d="M373.1,39.8c-14.5-5.6-29.6-6.8-44.8-3.6c-35.5,7.4-66.5,39.4-73.3,75.2c-8.6,45.1,18.1,79.4,61.7,79.4
			c14.6,0.4,28.2-3.2,40.7-10.4c32.7-19,50-47.8,50.9-85.4C409,69.8,398.2,49.6,373.1,39.8z M333.7,139.4
			c-13.6,5.5-25.1-1.1-27.1-15.7c-2-14.4,5.5-28.4,18-34c15.7-6.9,29,1.7,29,18.8C353.6,121.8,345.3,134.6,333.7,139.4z"/>
		<path class="st0" d="M1141.5,82c-4.8-28.9-28.2-46.3-60.5-47.4c-50.9-1.8-93.8,47.4-93.5,92.8c-0.1,41.8,33.3,69.9,75.1,62.8
			c33.1-5.6,56.1-24.9,70.6-54.6C1141.5,118.8,1144.6,100.7,1141.5,82z M1068.3,139.1c-13.7,6.1-25.6-0.7-27.6-15.5
			c-2-14.4,5.5-28.4,18.1-33.9c15.7-6.9,29,1.8,29,21.2C1086.7,122.2,1081.3,133.2,1068.3,139.1z"/>
		<path class="st0" d="M1443.1,82c-4.8-28.9-28.2-46.3-60.4-47.4c-51-1.8-93.8,47.4-93.5,92.8c-0.1,41.9,33.3,69.9,75.1,62.8
			c33.1-5.6,56.1-24.9,70.6-54.5C1443.1,118.8,1446.2,100.7,1443.1,82z M1370.3,138.9c-13.8,6.5-26-0.4-28-15.5
			c-1.9-14.1,5.4-28,17.7-33.6c15.8-7.2,29.4,1.5,29.4,21.1C1388.3,122.1,1383,133,1370.3,138.9z"/>
	</g>
</g>
</svg>
