<?xml version="1.0" encoding="utf-8"?>
<!-- Generator: Adobe Illustrator 26.0.1, SVG Export Plug-In . SVG Version: 6.00 Build 0)  -->
<svg version="1.1" id="svg" xmlns="http://www.w3.org/2000/svg" xmlns:xlink="http://www.w3.org/1999/xlink" x="0px" y="0px"
	 viewBox="0 0 327.6 327.6" style="enable-background:new 0 0 327.6 327.6;" xml:space="preserve">
<style type="text/css">
	.st0{fill-rule:evenodd;clip-rule:evenodd;fill:#1C0C0C;}
	.st1{fill-rule:evenodd;clip-rule:evenodd;fill:#F3C314;}
	.st2{fill-rule:evenodd;clip-rule:evenodd;fill:#FCE494;}
	.st3{fill-rule:evenodd;clip-rule:evenodd;fill:#FBDB6B;}
	.st4{fill-rule:evenodd;clip-rule:evenodd;fill:#FCF9E5;}
</style>
<g>
	<circle class="st0" cx="163.8" cy="163.8" r="161.1"/>
	<circle class="st1" cx="163.8" cy="163.8" r="138.4"/>
	<path class="st2" d="M41.3,99.3c0,0,37.8-61.9,122.3-62.6c84.6-0.8,122.6,62.6,122.6,62.6C263,55.4,216.9,25.4,163.8,25.4
		c-53,0-99.1,29.8-122.3,73.7"/>
	<circle class="st3" cx="163.8" cy="163.8" r="105.3"/>
	<path class="st4" d="M58.4,163.8c0-58.2,47.2-105.3,105.3-105.3s105.3,47.2,105.3,105.3c0,1.4-6-89.8-105.3-89.8
		C66,74,58.4,165.2,58.4,163.8z"/>
	<path id="Monster" class="st4" d="M165.3,108.5c-3.9,0.6-8.6,1.4-11.8,3.3c-4.1,3.1-7.7,7.6-8.6,12.8c-7.3-0.9-14.9-4.4-18.6-10.6
		c-0.8-1.5-0.3,0.4-0.2,1.7c0.2,3.3,1.2,4.9,2.1,7.5c1.1,1.2,2.4,2.9,3.4,4.2c0.3,0.2,0.4,1,0.9,1c0.2,0,0.3,0.1,0.3,0.1
		c0.5,0.5,1.9,1.3,2.4,1.7c1.6,0.9,2.9,2.3,4.8,2.9c1.5,0.6,2.1,0.6,3.3,1.1c0.8,4.2-0.6,14.4-1.1,18c-0.4,0.3-7,0.9-10.9,1.1
		c-10.7,1.2-31.5,0.5-41.4,1.8c0,0.1-4.2,0.9-4.2,1c-1.6,0.6-2.3,1.5-4.8,1.3c-2-0.2-1.4,0.1-2.6,0.5c-2.5,0.8-4.7,3.9-5.8,6.1
		c-1.5,1.7-1,2.1,0.2,4c3.4,0.2,6-3.6,9.6-3.1c0.5,0.4,0.7,1.5,1.6,1.8c1.4,0.6,0.1,0.5-0.2,0.9c-1.3,0.8-5.2,2.7-2.4,4.5
		c3.1,1.5,6,0.2,7.6-1.9c1.8-2.1,1-2.3,3.9-2.5c2.6-0.5,6.5-1.7,9.1-2.5c0-0.2,4.5-0.3,4.5-0.5c0.6-0.9,26-0.9,26.7,0
		c0,0.1,0.5,0.2,1,0.2c2.1,0.4,3.6,1.7,5.7,2.2c-0.8,7.1-3.2,23.7,1.1,31.4c1.7,3.1,4.4,5.6,6.8,7.5c1.1,0.1,1.5,0.7,2.1,1.4
		c1.7,0.5-0.3,12.6,2.2,11.7c4.1,0.5,3.3-4.5,4-7.4c0.2-1.5,0.4-1.4,0.6-2.1c0-0.5-0.1-0.5,1.6,0.2c5.6,0.8,12.3,0.3,17.8-0.4
		c0.9,2.6,0,8.1,3.2,8.6c0.8,0.5,1.4,0.4,2.3-0.4c0.3-0.2,0.3-0.5,0.4-4.7c0.1-3.2,0-4.5,0.2-5.9c2.1-0.8,4.5-1,5.5-2.9
		c2.6-3.4,5.1-7.2,6.3-11.6c0.2-0.1,0.3-1.8,0.5-1.9c0.5-1.2-0.4-1.4-0.3-4.1c-0.3-3.6-0.8-9.9-1.2-14.1c0-0.9-1.2-6.2-0.2-6.5
		c2.4-0.8,4.2-2.3,6.9-2.6c0.8-0.1,1.5-0.2,1.5-0.2c0.6-0.8,26.3-0.8,26.3,0c3.9,0.5,7.5,2.5,11.6,2.2c3.1,7.8,14.4,3.7,6.9-0.1
		c-2.3-0.9-1-0.6-0.1-2c0.6-1.5,1.5-1.2,2.9-0.6c1.2,0.6,2,0.7,2.6,1.1c1.3,1,3.6,2.2,4.5,0.3c0.8-0.8-0.3-3.6-1.4-3.6
		c-0.1,0-0.8-1-1.3-1.8c-1.1-1.7-3.2-2.7-4.7-3.5c-0.1-0.2-0.9-0.2-0.9,0c0,0.2-2.4,0.2-2.6,0c-7.9-2.9-2.3-1.9-23.9-2.3
		c-14.4-0.2-21.3,0.3-29.9-1c-1.7-0.1-1.4,0.4-1.8-3.6c-0.8-3.5-0.6-9.4-1-12.5c-0.9-1.6,0.9-2,2.3-2.5c0.9-0.2,2.6-1.2,3.2-1.4
		c1.2-1.1,2.2-1.7,3.8-2.7c1.9-1.3,3.2-3.2,4.3-4.9c2-1.9,3.3-7.9,3.1-10.7c-0.6,0.9-1.5,2.2-2.1,3.1c-0.6,0.9-2.4,2.1-3.2,2.8
		c-0.8,0.6-1.8,1.2-2.5,1.7c-0.1,0.3-0.9,0.2-1,0.5c0,0.1-0.3,0.3-0.5,0.3c-2.9,1-6.1,2.5-8.8,2.3c-0.7-2.4-2.3-5-3.4-7.2
		c-0.1-0.5-3.4-3.9-4-4.6C176.7,110.3,169.4,108.5,165.3,108.5"/>
</g>
</svg>
