<svg id="svg" version="1.1" xmlns="http://www.w3.org/2000/svg" xmlns:xlink="http://www.w3.org/1999/xlink" width="400" height="400" viewBox="0, 0, 400,400"><g id="svgg"><path id="path0" d="M194.500 94.438 C 184.909 94.928,171.792 97.555,165.083 100.330 C 164.900 100.405,164.262 100.637,163.667 100.844 C 163.071 101.051,162.508 101.271,162.417 101.332 C 162.325 101.393,161.875 101.578,161.417 101.744 C 160.958 101.909,160.246 102.190,159.833 102.368 C 158.870 102.783,158.005 103.152,157.583 103.329 C 156.034 103.979,149.879 107.131,148.500 107.981 C 148.179 108.178,147.710 108.430,147.458 108.540 C 147.206 108.650,147.000 108.798,147.000 108.870 C 147.000 108.941,146.934 109.000,146.853 109.000 C 146.714 109.000,143.438 110.987,143.083 111.287 C 142.992 111.364,142.617 111.610,142.250 111.833 C 141.883 112.057,141.508 112.303,141.417 112.381 C 141.325 112.459,140.612 112.973,139.833 113.524 C 137.721 115.015,137.679 115.047,137.110 115.539 C 136.820 115.790,136.538 115.996,136.483 115.997 C 136.427 115.999,136.192 116.169,135.961 116.375 C 135.729 116.581,135.257 116.975,134.911 117.250 C 133.927 118.033,132.141 119.526,131.421 120.167 C 131.060 120.487,130.387 121.087,129.925 121.500 C 127.735 123.457,122.768 128.589,120.987 130.737 C 120.765 131.005,120.471 131.344,120.333 131.490 C 120.196 131.637,119.673 132.280,119.171 132.920 C 118.669 133.560,118.212 134.121,118.155 134.167 C 118.038 134.262,116.044 136.932,115.667 137.499 C 115.529 137.705,115.339 137.959,115.245 138.062 C 114.507 138.869,110.183 145.728,108.721 148.412 C 107.353 150.923,104.766 156.314,103.919 158.417 C 103.587 159.242,103.207 160.153,103.075 160.442 C 102.942 160.731,102.833 161.072,102.833 161.200 C 102.833 161.328,102.765 161.505,102.682 161.592 C 102.411 161.874,100.197 168.651,99.390 171.667 C 98.102 176.480,96.948 182.861,96.495 187.667 C 96.405 188.629,96.256 190.151,96.165 191.048 C 95.977 192.903,95.939 203.999,96.118 204.854 C 96.208 205.285,96.284 204.929,96.442 203.333 C 96.740 200.323,97.583 195.111,98.154 192.750 C 98.243 192.383,98.586 190.958,98.916 189.583 C 99.247 188.208,99.583 186.896,99.663 186.667 C 99.743 186.438,99.969 185.688,100.166 185.000 C 100.363 184.313,100.581 183.600,100.652 183.417 C 100.722 183.233,100.948 182.558,101.153 181.917 C 101.359 181.275,101.588 180.600,101.663 180.417 C 101.737 180.233,102.041 179.408,102.336 178.583 C 102.632 177.758,102.974 176.858,103.096 176.583 C 103.218 176.308,103.464 175.708,103.643 175.250 C 103.821 174.792,104.206 173.892,104.497 173.250 C 104.789 172.608,105.143 171.821,105.286 171.500 C 105.863 170.196,108.506 164.992,108.670 164.833 C 108.718 164.788,108.846 164.563,108.956 164.333 C 109.261 163.695,110.122 162.215,110.585 161.533 C 110.813 161.198,111.000 160.862,111.000 160.788 C 111.000 160.713,111.075 160.562,111.167 160.451 C 111.259 160.341,112.172 158.975,113.197 157.417 C 114.222 155.858,115.141 154.499,115.239 154.395 C 115.337 154.292,115.529 154.040,115.667 153.835 C 116.065 153.240,117.054 151.925,117.172 151.833 C 117.230 151.787,117.347 151.628,117.431 151.478 C 117.599 151.178,118.093 150.563,120.083 148.173 C 122.932 144.753,126.510 141.022,129.678 138.167 C 130.543 137.387,131.287 136.703,131.333 136.645 C 131.379 136.587,132.204 135.887,133.167 135.089 C 134.129 134.291,135.067 133.512,135.250 133.358 C 135.433 133.205,135.846 132.896,136.167 132.672 C 136.487 132.449,136.787 132.221,136.833 132.165 C 136.929 132.050,138.276 131.041,138.835 130.667 C 139.040 130.529,139.292 130.339,139.395 130.245 C 141.470 128.347,153.552 121.432,157.847 119.685 C 158.496 119.420,159.755 118.887,160.250 118.667 C 161.714 118.015,162.181 117.833,162.398 117.833 C 162.535 117.833,162.688 117.767,162.739 117.685 C 162.789 117.604,163.037 117.487,163.290 117.427 C 163.722 117.323,166.182 116.465,166.917 116.161 C 167.100 116.085,167.813 115.863,168.500 115.666 C 169.188 115.469,169.938 115.245,170.167 115.168 C 170.549 115.038,171.333 114.812,173.083 114.324 C 190.377 109.510,211.395 109.725,228.917 114.896 C 229.375 115.032,230.050 115.226,230.417 115.329 C 230.783 115.432,231.233 115.577,231.417 115.651 C 231.600 115.726,232.200 115.922,232.750 116.087 C 233.300 116.253,233.975 116.479,234.250 116.591 C 234.525 116.703,235.537 117.078,236.500 117.425 C 237.463 117.771,238.325 118.105,238.417 118.165 C 238.508 118.226,238.958 118.411,239.417 118.577 C 239.875 118.742,240.662 119.063,241.167 119.290 C 241.671 119.517,242.758 120.006,243.583 120.378 C 245.300 121.151,249.549 123.319,250.467 123.890 C 250.806 124.102,251.204 124.319,251.351 124.373 C 251.701 124.502,257.304 127.954,257.500 128.162 C 257.546 128.210,258.183 128.654,258.917 129.147 C 260.737 130.371,261.734 131.065,261.833 131.177 C 261.879 131.229,262.592 131.782,263.417 132.407 C 264.242 133.031,264.954 133.589,265.000 133.647 C 265.046 133.704,265.644 134.199,266.329 134.746 C 267.014 135.294,267.694 135.856,267.839 135.996 C 267.985 136.136,268.587 136.660,269.177 137.161 C 270.338 138.147,276.393 144.155,277.338 145.260 C 278.229 146.302,279.722 148.016,280.000 148.318 C 280.137 148.468,280.661 149.113,281.163 149.753 C 281.665 150.393,282.118 150.954,282.171 151.000 C 282.223 151.046,282.447 151.346,282.669 151.667 C 282.891 151.987,283.150 152.335,283.245 152.440 C 283.429 152.643,283.453 152.676,284.976 154.833 C 285.527 155.612,286.041 156.325,286.119 156.417 C 286.197 156.508,286.443 156.883,286.667 157.250 C 286.890 157.617,287.136 157.992,287.213 158.083 C 287.513 158.438,289.500 161.714,289.500 161.853 C 289.500 161.934,289.575 162.000,289.667 162.000 C 289.758 162.000,289.833 162.084,289.833 162.187 C 289.833 162.289,290.086 162.795,290.396 163.312 C 291.911 165.840,294.065 170.112,295.659 173.750 C 296.372 175.378,296.461 175.593,296.764 176.417 C 296.933 176.875,297.167 177.438,297.284 177.667 C 297.402 177.896,297.498 178.178,297.499 178.294 C 297.500 178.410,297.573 178.635,297.663 178.794 C 297.823 179.080,299.630 184.459,299.999 185.750 C 301.706 191.720,302.762 196.996,303.418 202.833 C 303.558 204.071,303.697 205.158,303.729 205.250 C 304.069 206.239,304.017 192.569,303.670 189.752 C 303.579 189.018,303.430 187.667,303.339 186.750 C 303.036 183.717,302.426 180.015,301.527 175.750 C 301.270 174.531,300.340 170.818,300.171 170.333 C 300.090 170.104,299.862 169.354,299.664 168.667 C 299.235 167.183,297.880 163.058,297.666 162.583 C 297.583 162.400,297.135 161.275,296.670 160.083 C 296.205 158.892,295.756 157.767,295.672 157.583 C 295.587 157.400,295.357 156.875,295.159 156.417 C 294.742 155.450,293.390 152.545,293.169 152.143 C 293.087 151.992,292.613 151.092,292.116 150.143 C 290.615 147.274,287.881 142.628,287.636 142.528 C 287.561 142.497,287.500 142.371,287.500 142.248 C 287.500 142.125,287.403 141.925,287.285 141.804 C 287.167 141.682,286.889 141.283,286.667 140.917 C 286.444 140.550,286.185 140.159,286.090 140.047 C 285.760 139.662,285.579 139.410,284.673 138.083 C 284.173 137.350,283.685 136.659,283.590 136.547 C 283.262 136.164,283.073 135.915,282.670 135.333 C 282.448 135.012,282.223 134.712,282.171 134.667 C 282.118 134.621,281.665 134.059,281.163 133.418 C 280.116 132.081,279.687 131.554,279.333 131.174 C 279.196 131.026,278.671 130.426,278.167 129.840 C 275.569 126.821,271.526 122.771,268.676 120.333 C 268.086 119.829,267.485 119.302,267.339 119.162 C 267.194 119.023,266.514 118.460,265.829 117.913 C 265.144 117.366,264.546 116.874,264.500 116.819 C 263.542 115.687,251.256 107.500,250.514 107.500 C 250.430 107.500,250.336 107.444,250.306 107.375 C 250.275 107.306,249.575 106.905,248.750 106.483 C 247.925 106.061,246.800 105.485,246.250 105.202 C 243.726 103.905,239.499 102.065,236.583 100.994 C 235.758 100.691,235.008 100.390,234.917 100.324 C 234.825 100.259,234.487 100.150,234.167 100.083 C 233.846 100.016,233.508 99.904,233.417 99.833 C 233.325 99.763,232.990 99.649,232.672 99.581 C 232.354 99.513,231.979 99.396,231.839 99.321 C 231.698 99.246,231.021 99.022,230.333 98.824 C 229.646 98.625,228.708 98.354,228.250 98.221 C 227.792 98.089,227.154 97.913,226.833 97.831 C 226.512 97.749,225.838 97.571,225.333 97.434 C 224.829 97.298,223.667 97.028,222.750 96.835 C 221.833 96.641,220.821 96.414,220.500 96.329 C 220.179 96.244,219.392 96.090,218.750 95.987 C 218.108 95.884,216.946 95.696,216.167 95.568 C 214.689 95.327,211.484 94.926,208.917 94.663 C 207.316 94.499,196.587 94.331,194.500 94.438 M201.500 151.472 C 201.500 151.548,200.608 151.698,199.518 151.804 C 197.603 151.992,194.782 152.616,193.750 153.080 C 193.153 153.349,191.466 153.963,190.708 154.188 C 190.410 154.277,190.167 154.412,190.167 154.490 C 190.167 154.567,189.961 154.682,189.709 154.745 C 189.188 154.876,184.500 159.483,184.500 159.865 C 184.500 159.996,184.354 160.261,184.176 160.452 C 183.997 160.644,183.577 161.370,183.242 162.067 C 182.907 162.763,182.584 163.333,182.524 163.333 C 182.294 163.333,181.504 165.305,181.300 166.390 L 181.085 167.530 180.501 167.440 C 180.180 167.391,179.429 167.299,178.833 167.235 C 178.237 167.171,177.713 167.065,177.667 167.000 C 177.621 166.934,176.611 166.598,175.422 166.253 C 174.233 165.907,173.146 165.561,173.005 165.485 C 172.865 165.408,172.412 165.191,172.000 165.003 C 171.588 164.815,171.137 164.599,171.000 164.523 C 170.862 164.447,170.563 164.284,170.333 164.159 C 168.552 163.194,168.167 162.956,168.167 162.821 C 168.167 162.736,168.071 162.667,167.954 162.667 C 167.837 162.667,167.619 162.535,167.471 162.375 C 167.322 162.215,166.668 161.677,166.017 161.179 C 165.366 160.682,164.833 160.194,164.833 160.094 C 164.833 159.995,164.683 159.820,164.500 159.705 C 164.317 159.591,164.167 159.427,164.167 159.340 C 164.167 159.116,163.260 157.803,162.848 157.430 C 162.657 157.257,162.500 157.023,162.500 156.911 C 162.500 156.799,162.377 156.605,162.226 156.480 C 161.985 156.280,161.963 156.293,162.046 156.585 C 162.098 156.767,162.190 157.667,162.251 158.583 C 162.375 160.464,162.570 161.447,163.012 162.417 C 163.179 162.783,163.434 163.515,163.579 164.042 C 163.724 164.569,163.916 165.000,164.005 165.000 C 164.094 165.000,164.167 165.221,164.167 165.492 C 164.167 165.762,164.266 166.043,164.387 166.117 C 164.509 166.190,164.790 166.509,165.012 166.825 C 165.235 167.142,165.568 167.554,165.753 167.742 C 165.937 167.930,166.310 168.411,166.580 168.811 C 166.850 169.211,167.168 169.575,167.286 169.620 C 167.404 169.665,167.500 169.798,167.500 169.914 C 167.500 170.031,167.620 170.226,167.767 170.348 C 167.914 170.470,168.100 170.741,168.180 170.951 C 168.265 171.176,168.464 171.333,168.663 171.333 C 168.848 171.333,169.000 171.395,169.000 171.469 C 169.000 171.544,169.319 171.782,169.708 171.998 C 170.098 172.214,170.477 172.490,170.550 172.612 C 170.623 172.734,170.792 172.833,170.925 172.833 C 171.058 172.833,171.167 172.908,171.167 173.000 C 171.167 173.092,171.253 173.167,171.358 173.167 C 171.463 173.167,171.857 173.417,172.233 173.724 C 172.609 174.030,173.292 174.486,173.750 174.737 C 174.208 174.987,174.667 175.300,174.770 175.431 C 174.872 175.563,175.510 175.834,176.186 176.035 C 176.863 176.236,177.454 176.448,177.500 176.508 C 177.546 176.568,177.919 176.661,178.330 176.714 C 178.740 176.768,179.103 176.892,179.135 176.989 C 179.168 177.087,179.347 177.167,179.533 177.167 C 179.897 177.167,179.846 185.168,179.481 185.306 C 179.400 185.336,179.334 185.786,179.336 186.306 C 179.339 187.875,178.614 195.075,178.440 195.194 C 178.043 195.464,171.483 196.107,167.583 196.258 C 165.933 196.322,164.508 196.430,164.417 196.498 C 164.325 196.566,162.300 196.671,159.917 196.731 C 157.533 196.791,152.733 196.947,149.250 197.076 C 145.767 197.206,139.703 197.355,135.775 197.407 C 129.220 197.494,126.401 197.671,126.167 198.010 C 126.121 198.076,125.183 198.298,124.083 198.503 C 122.983 198.708,122.008 198.931,121.917 198.998 C 121.825 199.066,121.526 199.174,121.252 199.240 C 120.978 199.306,120.715 199.415,120.668 199.482 C 120.308 200.000,118.634 200.362,117.121 200.249 C 115.799 200.149,115.518 200.173,115.289 200.401 C 115.141 200.550,114.792 200.717,114.513 200.772 C 114.235 200.828,113.922 200.977,113.817 201.103 C 113.712 201.230,113.529 201.333,113.411 201.333 C 112.783 201.333,109.833 204.325,109.833 204.962 C 109.833 205.034,109.683 205.221,109.500 205.378 C 109.317 205.535,109.167 205.804,109.167 205.976 C 109.167 206.148,108.943 206.542,108.669 206.852 C 108.396 207.163,108.171 207.510,108.169 207.625 C 108.168 207.740,108.046 207.833,107.898 207.833 C 107.599 207.833,107.698 209.190,108.023 209.563 C 108.113 209.666,108.337 210.003,108.521 210.313 L 108.855 210.877 109.987 210.796 C 110.839 210.735,111.205 210.629,111.466 210.367 C 111.657 210.176,112.249 209.810,112.782 209.554 C 113.314 209.298,113.787 209.041,113.833 208.984 C 113.879 208.927,114.404 208.709,115.000 208.500 C 115.596 208.291,116.121 208.065,116.167 207.997 C 116.289 207.816,118.221 207.636,118.417 207.788 C 118.617 207.943,118.943 208.451,119.156 208.939 C 119.241 209.135,119.614 209.435,119.984 209.606 C 120.770 209.968,120.822 210.092,120.250 210.235 C 120.021 210.293,119.833 210.413,119.833 210.503 C 119.833 210.593,119.750 210.667,119.649 210.667 C 119.548 210.667,119.132 210.892,118.724 211.167 C 118.317 211.442,117.946 211.667,117.900 211.667 C 117.690 211.667,116.667 212.813,116.667 213.049 C 116.667 213.194,116.592 213.360,116.500 213.417 C 116.104 213.661,116.422 214.194,117.417 214.956 C 118.448 215.745,122.500 215.770,122.500 214.987 C 122.500 214.903,122.639 214.833,122.808 214.833 C 123.204 214.833,124.500 213.899,124.500 213.614 C 124.500 213.494,124.722 213.232,124.993 213.032 C 125.264 212.831,125.692 212.311,125.945 211.875 C 126.567 210.802,126.766 210.678,127.865 210.672 C 128.387 210.669,128.860 210.592,128.917 210.500 C 128.973 210.408,129.217 210.333,129.458 210.333 C 129.939 210.333,134.206 209.235,134.644 208.999 C 135.065 208.771,136.505 208.355,137.292 208.233 C 137.681 208.173,138.000 208.070,138.000 208.004 C 138.000 207.939,138.988 207.838,140.196 207.780 C 141.404 207.722,142.439 207.599,142.497 207.506 C 143.052 206.607,168.505 206.604,169.167 207.502 C 169.212 207.565,169.657 207.663,170.154 207.720 C 170.651 207.778,171.101 207.886,171.154 207.960 C 171.207 208.035,171.691 208.243,172.231 208.423 C 172.770 208.603,173.346 208.867,173.512 209.010 C 173.677 209.154,174.270 209.416,174.829 209.594 L 175.846 209.917 175.733 211.500 C 175.670 212.371,175.570 213.121,175.509 213.167 C 175.081 213.490,174.251 228.050,174.487 231.083 C 174.674 233.479,175.213 236.720,175.484 237.079 C 175.555 237.173,175.746 237.925,175.910 238.750 C 176.146 239.947,176.350 240.469,176.917 241.333 C 177.308 241.929,177.808 242.738,178.028 243.131 C 178.444 243.875,180.614 246.333,180.855 246.333 C 180.931 246.333,181.561 246.896,182.255 247.583 C 182.950 248.271,183.605 248.833,183.712 248.833 C 184.148 248.833,185.333 249.394,185.333 249.601 C 185.333 249.723,185.558 249.990,185.833 250.193 C 186.237 250.491,186.333 250.685,186.333 251.198 C 186.333 251.547,186.408 251.833,186.500 251.833 C 186.607 251.833,186.667 253.404,186.667 256.211 C 186.667 261.222,186.775 261.660,188.073 261.904 C 189.945 262.255,191.488 260.815,191.510 258.697 C 191.515 258.176,191.581 257.412,191.656 257.000 C 191.731 256.587,191.926 255.481,192.088 254.542 C 192.251 253.602,192.448 252.833,192.526 252.833 C 192.603 252.833,192.667 252.646,192.667 252.417 C 192.667 251.890,192.593 251.881,194.275 252.607 C 194.627 252.759,195.504 252.833,196.936 252.833 C 198.111 252.833,200.087 252.915,201.328 253.015 C 203.208 253.166,203.896 253.152,205.464 252.931 C 206.498 252.786,207.702 252.667,208.139 252.667 C 208.576 252.667,209.005 252.601,209.092 252.520 C 209.179 252.440,209.896 252.336,210.687 252.290 L 212.123 252.206 212.494 254.311 C 212.698 255.469,212.921 257.029,212.991 257.777 C 213.151 259.496,214.162 260.833,215.302 260.833 C 215.503 260.833,215.667 260.908,215.667 261.000 C 215.667 261.257,216.627 261.197,216.956 260.920 C 217.118 260.784,217.397 260.567,217.577 260.438 C 217.886 260.215,217.907 259.955,217.952 255.726 C 217.978 253.264,218.040 250.940,218.090 250.560 L 218.182 249.870 220.059 249.268 C 221.092 248.937,221.995 248.667,222.067 248.667 C 222.236 248.667,223.667 247.194,223.667 247.019 C 223.667 246.945,223.929 246.614,224.250 246.284 C 224.571 245.953,224.833 245.604,224.833 245.508 C 224.833 245.412,224.951 245.202,225.094 245.042 C 225.751 244.306,226.354 243.395,226.863 242.367 C 227.168 241.753,227.505 241.175,227.613 241.083 C 228.020 240.738,229.172 238.199,229.495 236.935 C 229.680 236.211,229.897 235.536,229.977 235.435 C 230.058 235.333,230.163 234.877,230.212 234.422 C 230.261 233.967,230.383 233.567,230.484 233.533 C 230.711 233.457,230.727 232.548,230.502 232.472 C 230.407 232.440,230.290 231.143,230.227 229.417 C 230.166 227.767,230.066 226.379,230.004 226.333 C 229.898 226.255,229.156 217.029,229.163 215.875 C 229.165 215.577,229.102 215.333,229.023 215.333 C 228.943 215.333,228.828 214.452,228.765 213.375 C 228.703 212.298,228.576 210.982,228.484 210.451 C 228.293 209.353,228.395 208.835,228.803 208.830 C 228.957 208.829,229.472 208.613,229.946 208.351 C 230.421 208.090,231.020 207.823,231.278 207.758 C 231.536 207.693,231.785 207.586,231.832 207.521 C 231.944 207.363,233.650 206.667,233.925 206.667 C 234.043 206.667,234.164 206.591,234.195 206.498 C 234.226 206.405,234.889 206.281,235.667 206.223 C 236.446 206.164,237.124 206.054,237.175 205.978 C 237.731 205.135,263.500 205.162,263.500 206.006 C 263.500 206.068,264.074 206.162,264.775 206.215 C 265.476 206.268,266.095 206.384,266.150 206.473 C 266.205 206.562,266.919 206.793,267.738 206.988 C 268.556 207.182,269.325 207.424,269.448 207.526 C 269.571 207.628,270.195 207.749,270.836 207.795 C 271.476 207.841,272.000 207.943,272.000 208.022 C 272.000 208.102,272.705 208.167,273.567 208.167 L 275.134 208.167 275.300 208.643 C 275.391 208.905,275.792 209.457,276.191 209.871 C 276.590 210.284,277.123 210.858,277.376 211.145 C 277.629 211.432,277.936 211.667,278.059 211.667 C 278.182 211.667,278.455 211.816,278.665 211.999 C 280.466 213.561,284.928 212.339,284.588 210.377 C 284.484 209.779,282.917 208.333,282.373 208.333 C 282.282 208.333,282.121 208.229,282.014 208.101 C 281.908 207.973,281.562 207.819,281.244 207.760 C 280.590 207.637,280.491 207.326,281.028 207.081 C 281.227 206.991,281.471 206.767,281.570 206.583 C 281.669 206.400,281.844 206.190,281.958 206.117 C 282.073 206.043,282.167 205.902,282.167 205.802 C 282.167 205.383,283.037 204.797,283.400 204.973 C 283.592 205.066,284.256 205.304,284.875 205.502 C 285.494 205.699,286.000 205.929,286.000 206.014 C 286.000 206.098,286.219 206.167,286.487 206.167 C 286.755 206.167,287.186 206.344,287.446 206.561 C 287.705 206.777,288.076 207.004,288.270 207.065 C 288.464 207.125,288.757 207.323,288.921 207.504 C 289.350 207.979,291.240 207.985,291.493 207.513 C 291.587 207.337,291.796 207.061,291.957 206.900 C 292.723 206.134,291.631 203.335,290.565 203.333 C 290.433 203.333,289.725 202.353,289.241 201.501 C 289.031 201.132,287.062 199.167,286.903 199.167 C 286.701 199.167,284.585 198.093,284.528 197.961 C 284.445 197.771,283.667 197.806,283.667 198.000 C 283.667 198.210,281.222 198.224,281.092 198.014 C 280.944 197.774,278.500 196.892,277.625 196.763 C 277.190 196.699,276.833 196.590,276.833 196.522 C 276.833 195.946,273.284 195.806,257.184 195.747 C 248.420 195.715,239.825 195.644,238.083 195.590 C 233.730 195.456,228.667 195.137,228.667 194.997 C 228.667 194.933,228.051 194.830,227.299 194.767 C 225.622 194.627,225.874 195.122,225.457 191.142 C 225.262 189.277,225.052 187.713,224.992 187.667 C 224.932 187.621,224.832 185.597,224.770 183.170 C 224.706 180.712,224.585 178.685,224.495 178.595 C 223.894 177.994,224.463 176.667,225.322 176.667 C 225.512 176.667,225.667 176.609,225.667 176.540 C 225.667 176.470,226.173 176.271,226.792 176.098 C 227.410 175.924,228.352 175.531,228.884 175.225 C 229.416 174.918,229.922 174.667,230.009 174.667 C 230.096 174.667,230.167 174.592,230.167 174.500 C 230.167 174.408,230.282 174.333,230.422 174.333 C 230.562 174.333,230.721 174.218,230.775 174.077 C 230.829 173.936,231.071 173.709,231.312 173.572 C 231.553 173.435,231.942 173.194,232.176 173.037 C 232.411 172.879,233.164 172.375,233.851 171.917 C 234.661 171.376,235.385 170.712,235.915 170.024 C 236.363 169.442,236.828 168.927,236.948 168.881 C 237.068 168.835,237.169 168.674,237.171 168.524 C 237.174 168.373,237.399 168.031,237.671 167.764 C 237.944 167.497,238.167 167.180,238.167 167.061 C 238.167 166.942,238.317 166.765,238.500 166.667 C 238.683 166.569,238.833 166.386,238.833 166.262 C 238.833 166.137,238.932 165.998,239.052 165.952 C 239.172 165.906,239.412 165.392,239.585 164.809 C 239.759 164.227,239.954 163.712,240.020 163.665 C 240.492 163.330,241.628 156.739,241.275 156.386 C 241.239 156.350,241.091 156.572,240.946 156.878 C 240.801 157.184,240.510 157.622,240.299 157.851 C 240.089 158.080,239.811 158.469,239.682 158.714 C 239.552 158.960,239.309 159.309,239.140 159.490 C 238.971 159.671,238.833 159.885,238.833 159.965 C 238.833 160.045,238.477 160.342,238.042 160.626 C 237.606 160.909,236.992 161.409,236.676 161.737 C 236.360 162.065,236.036 162.333,235.955 162.333 C 235.875 162.333,235.705 162.427,235.577 162.542 C 234.972 163.084,234.737 163.252,234.188 163.532 C 233.863 163.697,233.534 163.946,233.457 164.083 C 233.380 164.221,233.141 164.333,232.926 164.333 C 232.711 164.333,232.496 164.436,232.448 164.562 C 232.400 164.688,232.158 164.841,231.912 164.903 C 231.665 164.965,231.153 165.161,230.773 165.338 C 229.679 165.849,226.470 166.827,225.875 166.830 C 225.577 166.832,225.333 166.899,225.333 166.978 C 225.333 167.204,223.343 167.382,223.097 167.178 C 222.982 167.082,222.792 166.572,222.675 166.044 C 222.449 165.024,222.236 164.521,221.915 164.250 C 221.807 164.158,221.617 163.821,221.493 163.500 C 221.369 163.179,220.907 162.303,220.467 161.553 C 220.027 160.802,219.667 160.106,219.667 160.006 C 219.667 159.821,219.148 159.211,217.875 157.901 C 217.485 157.500,217.167 157.098,217.167 157.008 C 217.167 156.917,216.942 156.677,216.667 156.474 C 216.392 156.270,216.167 156.006,216.167 155.885 C 216.167 155.765,216.063 155.667,215.936 155.667 C 215.809 155.667,215.670 155.531,215.627 155.365 C 215.530 154.994,214.257 154.365,212.167 153.656 C 211.296 153.360,210.508 153.064,210.417 152.997 C 210.027 152.713,206.695 151.990,204.921 151.805 C 203.865 151.695,203.000 151.544,203.000 151.469 C 203.000 151.395,202.662 151.333,202.250 151.333 C 201.838 151.333,201.500 151.396,201.500 151.472 " stroke="none" fill="#fcf9e5" fill-rule="evenodd"></path><path id="path1" d="M190.333 71.588 C 146.436 74.443,106.671 96.086,80.083 131.591 C 78.541 133.651,77.619 135.075,76.885 136.534 C 50.189 189.566,60.548 253.771,102.575 295.755 C 160.383 353.505,254.990 348.637,306.768 285.250 C 338.456 246.458,346.437 193.544,327.672 146.667 C 325.244 140.599,322.756 135.580,320.959 133.122 C 294.235 96.565,253.920 74.370,209.174 71.580 C 204.444 71.285,194.930 71.289,190.333 71.588 M205.583 94.337 C 260.815 97.360,303.980 142.906,304.063 198.250 C 304.072 203.747,304.011 204.845,303.398 210.333 C 298.291 256.034,262.777 293.405,217.167 301.072 C 160.846 310.540,107.270 272.588,97.337 216.188 C 97.031 214.453,96.724 212.168,96.136 207.250 C 95.341 200.602,96.025 187.232,97.580 179.032 C 107.295 127.807,153.603 91.493,205.583 94.337 " stroke="none" fill="#f3c314" fill-rule="evenodd"></path><path id="path2" d="M194.750 37.506 C 191.018 37.618,186.262 37.900,184.917 38.090 C 184.550 38.142,183.200 38.296,181.917 38.431 C 175.437 39.116,168.434 40.343,162.000 41.921 C 161.496 42.044,160.746 42.225,160.333 42.322 C 159.559 42.504,159.285 42.577,157.167 43.168 C 156.479 43.360,155.504 43.632,155.000 43.772 C 154.496 43.912,153.896 44.089,153.667 44.166 C 153.438 44.243,152.350 44.581,151.250 44.918 C 150.150 45.255,149.100 45.591,148.917 45.666 C 148.733 45.740,148.096 45.965,147.500 46.167 C 146.904 46.368,146.267 46.592,146.083 46.666 C 145.900 46.739,145.075 47.041,144.250 47.337 C 141.829 48.207,138.793 49.405,137.083 50.167 C 136.900 50.248,136.375 50.476,135.917 50.673 C 135.458 50.870,134.708 51.203,134.250 51.413 C 133.792 51.623,133.042 51.962,132.583 52.165 C 130.374 53.146,124.218 56.289,121.833 57.654 C 121.329 57.943,120.729 58.268,120.500 58.378 C 120.271 58.487,120.046 58.616,120.000 58.663 C 119.913 58.754,119.624 58.922,118.346 59.625 C 117.927 59.856,117.261 60.260,116.867 60.523 C 116.472 60.785,116.079 61.000,115.992 61.000 C 115.905 61.000,115.833 61.067,115.833 61.149 C 115.833 61.230,115.646 61.344,115.417 61.402 C 115.188 61.459,115.000 61.580,115.000 61.670 C 115.000 61.760,114.922 61.833,114.827 61.833 C 114.731 61.833,114.450 61.975,114.202 62.149 C 113.953 62.323,112.280 63.440,110.483 64.631 C 108.686 65.822,106.577 67.274,105.796 67.857 C 105.016 68.440,104.210 69.029,104.005 69.167 C 103.800 69.304,103.397 69.622,103.108 69.872 C 102.819 70.123,102.532 70.329,102.470 70.331 C 102.408 70.332,102.258 70.428,102.137 70.544 C 102.016 70.660,101.392 71.164,100.750 71.665 C 100.108 72.166,99.546 72.616,99.500 72.667 C 99.454 72.717,98.893 73.169,98.253 73.671 C 97.613 74.173,96.970 74.696,96.823 74.833 C 96.677 74.971,96.338 75.264,96.070 75.485 C 90.949 79.711,80.789 89.779,78.143 93.250 C 77.933 93.525,77.712 93.787,77.651 93.833 C 77.590 93.879,76.887 94.704,76.089 95.667 C 75.291 96.629,74.478 97.604,74.282 97.833 C 73.868 98.318,69.037 104.766,68.667 105.328 C 68.529 105.537,68.338 105.792,68.242 105.895 C 67.410 106.788,61.103 116.813,59.422 119.915 C 59.123 120.466,58.707 121.217,58.497 121.583 C 58.287 121.950,57.314 123.825,56.335 125.750 C 54.720 128.926,54.118 130.188,52.758 133.250 C 52.514 133.800,52.248 134.400,52.166 134.583 C 52.085 134.767,51.859 135.292,51.664 135.750 C 51.469 136.208,51.212 136.808,51.092 137.083 C 50.973 137.358,50.741 137.958,50.576 138.417 C 50.411 138.875,50.226 139.325,50.165 139.417 C 50.105 139.508,49.771 140.371,49.425 141.333 C 49.078 142.296,48.698 143.308,48.581 143.583 C 48.331 144.166,46.720 149.010,46.169 150.833 C 45.961 151.521,45.732 152.233,45.660 152.417 C 45.588 152.600,45.442 153.087,45.335 153.500 C 45.229 153.912,45.034 154.643,44.901 155.124 C 44.434 156.819,44.187 157.768,43.761 159.500 C 43.524 160.462,43.260 161.512,43.175 161.833 C 42.984 162.556,42.579 164.421,42.324 165.750 C 42.219 166.300,42.027 167.275,41.899 167.917 C 40.822 173.304,39.923 180.098,39.506 186.000 C 39.069 192.191,38.999 193.892,39.000 198.247 C 39.000 202.592,39.075 204.433,39.503 210.667 C 39.897 216.409,40.832 223.507,41.918 229.000 C 42.072 229.779,42.295 230.904,42.413 231.500 C 42.630 232.592,43.015 234.308,43.424 236.000 C 43.546 236.504,43.725 237.254,43.822 237.667 C 44.004 238.441,44.077 238.715,44.668 240.833 C 44.860 241.521,45.132 242.496,45.272 243.000 C 45.412 243.504,45.590 244.104,45.668 244.333 C 45.745 244.563,45.969 245.313,46.166 246.000 C 46.363 246.688,46.584 247.400,46.657 247.583 C 46.731 247.767,46.962 248.479,47.171 249.167 C 47.380 249.854,47.605 250.492,47.673 250.583 C 47.740 250.675,47.848 250.999,47.913 251.303 C 47.978 251.607,48.136 252.057,48.265 252.303 C 48.393 252.549,48.498 252.827,48.499 252.920 C 48.500 253.113,49.385 255.474,49.757 256.275 C 49.890 256.564,50.000 256.884,50.000 256.986 C 50.000 257.088,50.073 257.301,50.162 257.461 C 50.251 257.620,50.591 258.425,50.917 259.250 C 51.244 260.075,51.580 260.900,51.663 261.083 C 51.747 261.267,51.975 261.792,52.170 262.250 C 53.225 264.730,53.431 265.169,55.738 269.833 C 58.242 274.899,58.924 276.153,61.717 280.833 C 63.582 283.959,68.031 290.770,68.750 291.600 C 68.842 291.706,69.029 291.963,69.167 292.171 C 69.570 292.782,73.532 298.075,73.654 298.167 C 73.716 298.212,73.949 298.511,74.172 298.831 C 74.396 299.151,74.692 299.532,74.831 299.678 C 74.970 299.823,75.233 300.125,75.417 300.349 C 75.600 300.572,75.964 301.016,76.227 301.336 C 77.462 302.842,77.948 303.417,78.333 303.824 C 78.563 304.066,78.964 304.523,79.226 304.840 C 81.702 307.837,89.202 315.333,93.492 319.099 C 93.900 319.457,94.356 319.862,94.505 320.000 C 94.825 320.295,94.971 320.417,97.588 322.588 C 98.690 323.502,99.839 324.438,100.140 324.667 C 100.442 324.896,100.927 325.288,101.219 325.539 C 101.511 325.790,101.801 325.996,101.863 325.997 C 101.925 325.999,102.095 326.119,102.240 326.264 C 102.488 326.512,105.531 328.793,106.336 329.333 C 106.540 329.471,106.792 329.661,106.895 329.756 C 107.424 330.243,115.987 335.805,117.250 336.482 C 117.525 336.629,117.787 336.787,117.833 336.833 C 117.921 336.921,118.236 337.104,119.487 337.792 C 119.907 338.022,120.325 338.267,120.417 338.335 C 120.508 338.403,121.108 338.745,121.750 339.096 C 122.392 339.447,123.367 339.980,123.917 340.281 C 126.185 341.521,134.347 345.497,134.637 345.502 C 134.699 345.503,135.162 345.712,135.667 345.966 C 136.171 346.220,136.958 346.567,137.417 346.737 C 138.229 347.037,139.214 347.448,140.275 347.929 C 140.564 348.060,140.905 348.167,141.034 348.167 C 141.162 348.167,141.338 348.229,141.425 348.306 C 141.512 348.382,141.958 348.579,142.417 348.744 C 142.875 348.908,143.475 349.136,143.750 349.251 C 145.081 349.807,150.558 351.661,152.833 352.326 C 153.521 352.527,154.271 352.755,154.500 352.833 C 155.543 353.188,158.198 353.905,161.042 354.599 C 166.220 355.864,167.558 356.140,173.167 357.104 C 188.784 359.789,207.180 359.966,223.500 357.587 C 227.325 357.030,230.116 356.522,234.458 355.593 C 236.517 355.152,237.067 355.021,239.417 354.414 C 240.700 354.082,242.050 353.737,242.417 353.647 C 243.396 353.407,246.530 352.498,246.917 352.343 C 247.100 352.269,247.813 352.039,248.500 351.832 C 250.429 351.251,253.731 350.141,254.417 349.844 C 254.600 349.765,255.537 349.418,256.500 349.072 C 257.462 348.727,258.325 348.395,258.417 348.335 C 258.508 348.274,258.958 348.089,259.417 347.924 C 259.875 347.759,260.475 347.525,260.750 347.403 C 261.025 347.281,261.625 347.036,262.083 346.857 C 262.542 346.679,263.416 346.300,264.027 346.016 C 264.638 345.732,265.175 345.500,265.221 345.500 C 265.617 345.500,274.433 341.110,278.053 339.110 C 281.293 337.320,290.411 331.642,291.417 330.788 C 291.508 330.710,292.446 330.040,293.500 329.299 C 294.554 328.557,295.454 327.905,295.500 327.850 C 295.546 327.794,295.890 327.541,296.264 327.288 C 296.638 327.034,297.088 326.695,297.264 326.534 C 297.440 326.373,297.846 326.059,298.167 325.837 C 298.487 325.615,298.787 325.390,298.833 325.337 C 298.879 325.285,299.441 324.831,300.082 324.329 C 301.413 323.288,301.943 322.856,302.327 322.500 C 302.476 322.362,302.969 321.950,303.423 321.584 C 304.156 320.995,304.818 320.436,305.400 319.917 C 305.503 319.825,305.924 319.458,306.335 319.100 C 310.275 315.679,317.659 308.294,320.518 304.917 C 320.829 304.550,321.128 304.212,321.184 304.167 C 321.364 304.019,323.852 301.056,325.242 299.333 C 325.575 298.921,325.979 298.433,326.140 298.250 C 326.890 297.400,331.096 291.676,332.508 289.585 C 333.375 288.302,334.142 287.177,334.215 287.085 C 334.336 286.930,335.260 285.505,336.432 283.667 C 337.133 282.567,337.301 282.287,337.482 281.917 C 337.572 281.733,337.875 281.246,338.156 280.833 C 338.436 280.421,338.666 280.033,338.666 279.972 C 338.666 279.910,339.038 279.261,339.492 278.529 C 340.931 276.208,344.859 268.615,346.491 265.000 C 348.281 261.032,351.000 254.400,351.000 254.000 C 351.000 253.906,351.074 253.699,351.164 253.539 C 351.480 252.983,354.000 245.384,354.000 244.988 C 354.000 244.842,354.056 244.666,354.125 244.597 C 354.194 244.529,354.337 244.122,354.443 243.695 C 354.550 243.267,354.760 242.504,354.910 242.000 C 355.251 240.854,356.119 237.578,356.434 236.250 C 356.654 235.322,356.785 234.742,357.429 231.833 C 358.704 226.083,359.863 218.099,360.334 211.833 C 360.427 210.596,360.578 208.709,360.668 207.640 C 360.884 205.104,360.882 191.869,360.666 189.083 C 360.574 187.892,360.422 185.942,360.329 184.750 C 359.963 180.061,359.234 174.412,358.414 169.917 C 358.264 169.092,358.070 168.004,357.983 167.500 C 357.605 165.301,356.180 159.279,355.145 155.500 C 354.499 153.144,353.435 149.585,353.176 148.917 C 353.105 148.733,352.911 148.133,352.746 147.583 C 352.581 147.033,352.354 146.358,352.242 146.083 C 352.130 145.808,351.871 145.096,351.667 144.500 C 351.010 142.581,350.462 141.101,350.144 140.384 C 349.973 140.000,349.833 139.605,349.833 139.507 C 349.833 139.409,349.761 139.199,349.672 139.039 C 349.583 138.880,349.241 138.075,348.913 137.250 C 348.380 135.910,348.209 135.500,347.666 134.250 C 347.496 133.859,346.691 132.069,345.944 130.420 C 344.860 128.029,341.440 121.367,340.355 119.534 C 340.068 119.049,339.833 118.624,339.833 118.589 C 339.833 118.005,331.057 104.607,329.131 102.250 C 329.056 102.158,328.716 101.708,328.376 101.250 C 328.035 100.792,327.666 100.304,327.555 100.167 C 327.225 99.757,326.281 98.575,325.806 97.976 C 325.155 97.155,321.800 93.114,321.594 92.901 C 321.496 92.801,320.929 92.164,320.333 91.486 C 318.340 89.217,317.279 88.106,313.503 84.333 C 309.711 80.544,308.698 79.579,306.583 77.733 C 303.419 74.974,303.363 74.927,300.547 72.674 C 299.284 71.663,298.175 70.775,298.083 70.701 C 297.693 70.388,294.338 67.895,293.999 67.667 C 293.795 67.529,293.318 67.184,292.939 66.900 C 291.370 65.724,285.541 61.932,282.667 60.217 C 279.777 58.492,279.136 58.124,276.583 56.720 C 275.532 56.142,268.345 52.561,266.917 51.904 C 265.171 51.101,263.807 50.500,263.729 50.500 C 263.659 50.500,262.959 50.205,261.750 49.667 C 260.551 49.133,259.594 48.758,257.083 47.838 C 255.525 47.267,254.100 46.733,253.917 46.652 C 253.535 46.484,247.923 44.627,246.917 44.335 C 246.550 44.229,245.875 44.031,245.417 43.894 C 244.958 43.758,244.208 43.545,243.750 43.422 C 240.762 42.622,238.795 42.108,238.000 41.919 C 235.987 41.443,234.532 41.118,233.500 40.913 C 232.904 40.795,231.779 40.572,231.000 40.418 C 219.387 38.118,207.137 37.134,194.750 37.506 M209.583 60.828 C 307.478 68.294,366.691 171.205,323.656 259.083 C 309.850 287.277,284.574 311.797,256.833 323.910 C 254.690 324.845,253.911 325.188,253.583 325.340 C 250.216 326.894,242.364 329.616,236.083 331.407 C 230.704 332.940,223.142 334.387,215.667 335.314 C 206.591 336.438,192.936 336.405,183.417 335.236 C 176.063 334.332,165.642 332.224,161.667 330.837 C 161.438 330.757,160.688 330.528,160.000 330.329 C 155.969 329.161,149.336 326.732,145.250 324.927 C 144.700 324.684,143.875 324.320,143.417 324.119 C 90.130 300.662,57.086 243.701,62.759 185.083 C 69.235 118.173,124.095 64.884,190.667 60.838 C 192.271 60.741,193.921 60.633,194.333 60.598 C 195.770 60.478,207.267 60.652,209.583 60.828 " stroke="none" fill="#1c0c0c" fill-rule="evenodd"></path><path id="path3" d="M198.301 71.291 C 199.245 71.321,200.745 71.321,201.634 71.291 C 202.523 71.261,201.750 71.237,199.917 71.237 C 198.083 71.237,197.356 71.261,198.301 71.291 M192.208 71.453 C 192.460 71.491,192.873 71.491,193.125 71.453 C 193.377 71.415,193.171 71.383,192.667 71.383 C 192.162 71.383,191.956 71.415,192.208 71.453 M206.708 71.453 C 206.960 71.491,207.373 71.491,207.625 71.453 C 207.877 71.415,207.671 71.383,207.167 71.383 C 206.662 71.383,206.456 71.415,206.708 71.453 M189.377 71.620 C 189.631 71.658,190.006 71.657,190.211 71.617 C 190.416 71.578,190.208 71.546,189.750 71.548 C 189.292 71.549,189.124 71.581,189.377 71.620 M209.711 71.620 C 209.964 71.658,210.339 71.657,210.544 71.617 C 210.749 71.578,210.542 71.546,210.083 71.548 C 209.625 71.549,209.457 71.581,209.711 71.620 M183.708 72.115 C 183.869 72.157,184.131 72.157,184.292 72.115 C 184.452 72.073,184.321 72.039,184.000 72.039 C 183.679 72.039,183.548 72.073,183.708 72.115 M196.544 94.286 C 196.797 94.325,197.172 94.324,197.377 94.284 C 197.582 94.244,197.375 94.213,196.917 94.214 C 196.458 94.216,196.291 94.248,196.544 94.286 M202.625 94.284 C 202.831 94.324,203.169 94.324,203.375 94.284 C 203.581 94.245,203.412 94.212,203.000 94.212 C 202.588 94.212,202.419 94.245,202.625 94.284 M192.960 94.451 C 193.168 94.491,193.468 94.490,193.627 94.448 C 193.786 94.406,193.617 94.374,193.250 94.375 C 192.883 94.377,192.753 94.411,192.960 94.451 M206.375 94.448 C 206.535 94.490,206.798 94.490,206.958 94.448 C 207.119 94.406,206.987 94.372,206.667 94.372 C 206.346 94.372,206.215 94.406,206.375 94.448 M98.409 111.042 L 97.750 111.750 98.458 111.091 C 98.848 110.729,99.167 110.410,99.167 110.383 C 99.167 110.257,99.022 110.383,98.409 111.042 M193.583 111.102 C 143.253 114.111,101.343 154.234,96.472 204.074 C 96.337 205.450,96.220 206.084,96.147 205.824 C 95.898 204.932,95.966 205.726,96.599 211.083 C 101.853 255.548,136.169 292.218,180.417 300.650 C 239.759 311.958,296.472 270.311,303.407 210.333 C 303.812 206.824,303.730 205.231,302.835 199.338 C 296.399 156.921,264.038 122.450,222.083 113.318 C 213.588 111.469,202.222 110.585,193.583 111.102 M303.417 113.000 C 304.053 113.642,304.612 114.167,304.658 114.167 C 304.704 114.167,304.220 113.642,303.583 113.000 C 302.947 112.358,302.388 111.833,302.342 111.833 C 302.296 111.833,302.780 112.358,303.417 113.000 M94.250 115.000 C 93.153 116.100,92.293 117.000,92.339 117.000 C 92.384 117.000,93.320 116.100,94.417 115.000 C 95.514 113.900,96.374 113.000,96.328 113.000 C 96.282 113.000,95.347 113.900,94.250 115.000 M307.417 117.000 C 308.053 117.642,308.612 118.167,308.658 118.167 C 308.704 118.167,308.220 117.642,307.583 117.000 C 306.947 116.358,306.388 115.833,306.342 115.833 C 306.296 115.833,306.780 116.358,307.417 117.000 M90.409 119.042 L 89.750 119.750 90.458 119.091 C 91.117 118.478,91.243 118.333,91.117 118.333 C 91.090 118.333,90.771 118.652,90.409 119.042 M128.824 122.292 L 128.250 122.917 128.875 122.342 C 129.457 121.808,129.577 121.667,129.449 121.667 C 129.422 121.667,129.140 121.948,128.824 122.292 M273.583 124.833 C 274.312 125.567,274.946 126.167,274.992 126.167 C 275.038 126.167,274.479 125.567,273.750 124.833 C 273.021 124.100,272.387 123.500,272.341 123.500 C 272.295 123.500,272.854 124.100,273.583 124.833 M123.740 127.375 L 123.250 127.917 123.792 127.427 C 124.090 127.158,124.333 126.914,124.333 126.885 C 124.333 126.757,124.196 126.870,123.740 127.375 M204.500 151.660 C 204.546 151.728,205.088 151.834,205.706 151.896 C 206.935 152.019,210.867 152.960,211.000 153.163 C 211.046 153.233,211.942 153.575,212.991 153.923 C 214.888 154.552,217.167 156.299,217.167 157.125 C 217.167 157.239,217.237 157.333,217.323 157.333 C 217.527 157.333,218.663 158.534,218.665 158.752 C 218.666 158.844,218.821 159.016,219.009 159.134 C 219.197 159.251,219.488 159.668,219.656 160.059 C 219.824 160.451,220.068 160.879,220.198 161.010 C 220.328 161.142,220.606 161.606,220.815 162.042 C 221.025 162.477,221.265 162.833,221.348 162.833 C 221.432 162.833,221.500 163.015,221.500 163.237 C 221.500 163.459,221.685 163.861,221.911 164.129 C 222.137 164.398,222.417 164.985,222.533 165.434 C 222.649 165.883,222.790 166.287,222.847 166.333 C 222.903 166.379,222.999 166.623,223.061 166.875 C 223.170 167.321,224.167 167.599,224.167 167.184 C 224.167 167.101,224.710 166.980,225.375 166.914 C 226.040 166.848,226.846 166.694,227.167 166.572 C 227.487 166.449,228.200 166.223,228.750 166.069 C 229.300 165.915,229.787 165.738,229.833 165.676 C 229.879 165.614,230.442 165.389,231.083 165.177 C 231.725 164.964,232.310 164.687,232.383 164.562 C 232.457 164.436,232.659 164.333,232.833 164.333 C 233.007 164.333,233.354 164.144,233.603 163.913 C 233.853 163.681,234.232 163.448,234.445 163.395 C 234.659 163.341,234.833 163.238,234.833 163.165 C 234.833 163.092,235.246 162.759,235.750 162.424 C 236.254 162.089,236.667 161.755,236.667 161.682 C 236.667 161.608,237.122 161.229,237.679 160.838 C 238.236 160.448,238.773 159.949,238.872 159.731 C 238.972 159.512,239.115 159.333,239.190 159.333 C 239.265 159.333,239.480 159.033,239.667 158.667 C 239.854 158.300,240.080 158.000,240.170 158.000 C 240.260 158.000,240.333 157.891,240.333 157.758 C 240.333 157.625,240.427 157.457,240.542 157.383 C 240.657 157.310,240.857 157.044,240.987 156.792 C 241.377 156.035,241.558 156.242,241.423 157.292 C 241.356 157.819,241.243 158.775,241.172 159.417 C 241.049 160.538,240.050 164.161,239.817 164.333 C 239.755 164.379,239.627 164.694,239.534 165.034 C 239.377 165.605,237.658 168.013,237.317 168.139 C 237.234 168.169,237.167 168.311,237.167 168.453 C 237.167 168.595,236.998 168.877,236.792 169.079 C 236.585 169.281,236.192 169.736,235.917 170.090 C 235.271 170.921,234.477 171.667,234.237 171.667 C 234.134 171.667,233.865 171.835,233.640 172.042 C 233.152 172.490,231.392 173.667,231.209 173.667 C 231.138 173.667,230.987 173.817,230.872 174.000 C 230.758 174.183,230.552 174.333,230.415 174.333 C 230.279 174.333,230.167 174.408,230.167 174.500 C 230.167 174.592,230.073 174.669,229.958 174.671 C 229.844 174.674,229.465 174.891,229.117 175.155 C 228.769 175.418,228.001 175.765,227.409 175.925 C 226.817 176.085,226.333 176.273,226.333 176.343 C 226.333 176.413,226.019 176.524,225.635 176.589 C 224.545 176.773,224.465 176.931,224.575 178.707 C 224.627 179.555,224.744 181.675,224.835 183.417 C 225.038 187.298,225.682 193.896,225.866 193.972 C 225.940 194.003,226.000 194.161,226.000 194.325 C 226.000 194.663,226.474 194.756,229.122 194.938 C 230.018 195.000,230.791 195.112,230.841 195.188 C 231.022 195.463,241.117 195.676,257.097 195.741 C 274.093 195.811,277.209 195.954,277.472 196.680 C 277.503 196.764,277.706 196.833,277.924 196.833 C 278.321 196.833,279.745 197.302,280.823 197.787 C 281.263 197.985,281.736 198.023,282.862 197.950 C 284.269 197.859,284.370 197.877,285.375 198.386 C 285.950 198.678,286.664 199.017,286.961 199.139 C 287.257 199.261,287.500 199.464,287.500 199.589 C 287.500 199.714,287.602 199.877,287.727 199.950 C 288.398 200.343,289.167 201.098,289.167 201.363 C 289.167 201.530,289.238 201.667,289.326 201.667 C 289.413 201.667,289.606 201.923,289.754 202.236 C 289.903 202.549,290.217 202.943,290.453 203.111 C 290.688 203.279,291.039 203.593,291.232 203.809 C 291.425 204.024,291.752 204.385,291.958 204.609 C 293.481 206.266,290.449 209.116,288.857 207.523 C 288.686 207.353,288.199 207.040,287.773 206.827 C 287.348 206.615,287.000 206.379,287.000 206.304 C 287.000 206.228,286.780 206.167,286.512 206.167 C 286.243 206.167,285.925 206.073,285.804 205.958 C 285.569 205.737,284.865 205.472,283.707 205.171 C 282.914 204.965,282.182 205.300,282.172 205.875 C 282.169 206.035,282.072 206.167,281.956 206.167 C 281.840 206.167,281.672 206.335,281.581 206.542 C 281.491 206.748,281.248 206.991,281.042 207.081 C 280.614 207.269,280.545 207.500,280.917 207.500 C 281.054 207.500,281.167 207.575,281.167 207.667 C 281.167 207.758,281.350 207.833,281.575 207.833 C 281.800 207.833,282.043 207.927,282.117 208.042 C 282.190 208.156,282.587 208.432,283.000 208.654 C 283.412 208.876,283.810 209.157,283.883 209.279 C 283.957 209.400,284.117 209.500,284.239 209.500 C 284.375 209.500,284.506 209.790,284.574 210.247 C 284.808 211.805,283.237 212.795,280.794 212.628 C 279.657 212.551,278.333 212.107,278.333 211.802 C 278.333 211.728,278.223 211.667,278.087 211.667 C 277.952 211.667,277.409 211.205,276.879 210.641 C 276.350 210.077,275.785 209.498,275.625 209.354 C 275.465 209.210,275.333 208.991,275.333 208.868 C 275.333 208.363,274.885 208.219,272.997 208.116 C 271.166 208.016,269.028 207.628,268.839 207.361 C 268.790 207.292,268.000 207.054,267.083 206.833 C 266.167 206.612,265.379 206.381,265.333 206.319 C 265.287 206.257,264.462 206.152,263.500 206.085 C 262.537 206.018,261.675 205.905,261.583 205.833 C 260.735 205.173,238.567 205.195,238.153 205.857 C 238.100 205.943,237.406 206.058,236.611 206.114 C 235.817 206.170,235.167 206.280,235.167 206.358 C 235.167 206.436,234.977 206.500,234.746 206.500 C 234.265 206.500,232.486 207.093,232.344 207.301 C 232.292 207.377,231.950 207.558,231.583 207.702 C 230.114 208.281,229.167 208.736,229.167 208.865 C 229.167 208.939,229.008 209.000,228.813 209.000 C 228.443 209.000,228.468 212.456,228.843 213.157 C 228.919 213.300,229.148 215.817,229.352 218.750 C 229.556 221.683,229.784 224.125,229.860 224.175 C 229.935 224.226,230.046 225.614,230.107 227.259 C 230.167 228.904,230.276 230.289,230.349 230.337 C 230.585 230.494,230.610 233.879,230.375 233.958 C 230.255 233.998,230.167 234.310,230.167 234.697 C 230.167 235.064,230.055 235.564,229.919 235.808 C 229.783 236.051,229.523 236.833,229.343 237.547 C 229.162 238.260,228.898 238.959,228.757 239.100 C 228.616 239.242,228.500 239.531,228.500 239.744 C 228.500 239.957,228.404 240.168,228.286 240.213 C 228.168 240.258,227.925 240.603,227.744 240.979 C 227.564 241.355,227.372 241.664,227.317 241.665 C 227.262 241.666,226.942 242.223,226.606 242.904 C 226.270 243.584,225.940 244.165,225.872 244.195 C 225.677 244.283,224.833 245.461,224.833 245.646 C 224.833 245.739,224.696 245.912,224.528 246.032 C 224.361 246.152,224.083 246.475,223.911 246.750 C 223.740 247.025,223.500 247.362,223.378 247.500 C 223.256 247.637,223.018 247.920,222.848 248.127 C 222.659 248.359,222.065 248.646,221.312 248.869 C 220.636 249.069,220.046 249.282,220.000 249.342 C 219.954 249.403,219.625 249.506,219.268 249.571 C 217.991 249.806,218.013 249.704,217.954 255.719 L 217.910 260.188 217.330 260.695 C 216.624 261.312,215.335 261.279,214.554 260.623 C 213.085 259.391,213.163 259.527,212.999 257.917 C 212.783 255.797,212.290 253.000,212.133 253.000 C 212.060 253.000,212.000 252.813,212.000 252.583 C 212.000 252.324,211.906 252.167,211.750 252.167 C 211.612 252.167,211.500 252.231,211.500 252.310 C 211.500 252.388,210.581 252.503,209.458 252.565 C 208.335 252.626,206.520 252.796,205.423 252.941 C 203.758 253.162,203.073 253.175,201.257 253.019 C 200.061 252.916,198.160 252.833,197.032 252.833 C 194.948 252.833,193.594 252.617,193.196 252.220 C 192.829 251.853,192.710 251.965,192.586 252.792 C 192.521 253.227,192.402 253.624,192.321 253.674 C 192.241 253.724,192.126 254.324,192.065 255.007 C 192.004 255.691,191.884 256.340,191.798 256.449 C 191.712 256.559,191.599 257.384,191.548 258.283 C 191.413 260.643,190.833 261.510,189.152 261.862 C 186.991 262.315,186.692 261.732,186.574 256.841 C 186.432 250.884,186.392 250.539,185.818 250.242 C 185.551 250.104,185.333 249.913,185.333 249.817 C 185.333 249.514,184.942 249.235,184.132 248.959 C 183.676 248.804,183.014 248.372,182.552 247.929 C 182.114 247.510,181.698 247.167,181.628 247.167 C 181.558 247.167,181.500 247.067,181.500 246.945 C 181.500 246.823,181.125 246.480,180.667 246.183 C 180.208 245.886,179.833 245.577,179.833 245.495 C 179.833 245.414,179.496 245.026,179.084 244.632 C 178.672 244.239,178.334 243.862,178.334 243.794 C 178.333 243.659,177.326 241.966,177.167 241.833 C 176.825 241.547,176.184 240.087,175.997 239.167 C 175.876 238.571,175.728 238.046,175.669 238.000 C 175.609 237.954,175.385 237.054,175.170 236.000 C 174.956 234.946,174.701 233.981,174.604 233.856 C 174.359 233.540,174.408 221.281,174.655 221.198 C 174.753 221.166,174.831 220.901,174.829 220.611 C 174.818 219.404,175.569 211.246,175.696 211.194 C 176.220 210.983,175.809 209.907,175.125 209.699 C 174.735 209.580,173.929 209.249,173.333 208.964 C 171.521 208.096,170.639 207.800,169.333 207.624 C 168.646 207.531,168.046 207.400,168.000 207.334 C 167.528 206.653,144.321 206.655,143.833 207.337 C 143.787 207.401,142.512 207.582,141.000 207.739 C 138.406 208.010,135.517 208.563,135.333 208.825 C 135.287 208.891,134.125 209.233,132.750 209.586 C 131.375 209.938,130.208 210.288,130.157 210.363 C 130.106 210.438,129.356 210.545,128.490 210.602 C 126.873 210.707,126.000 211.176,126.000 211.939 C 126.000 212.064,125.941 212.167,125.869 212.167 C 125.797 212.167,125.606 212.392,125.443 212.667 C 125.281 212.942,125.058 213.169,124.949 213.171 C 124.840 213.174,124.574 213.461,124.359 213.810 C 122.817 216.313,115.999 215.990,116.408 213.433 C 116.468 213.059,116.633 212.689,116.775 212.609 C 116.917 212.530,117.157 212.318,117.308 212.140 C 117.460 211.961,117.977 211.588,118.458 211.312 C 118.940 211.035,119.333 210.754,119.333 210.688 C 119.333 210.621,119.596 210.472,119.917 210.356 C 120.649 210.091,120.648 209.966,119.912 209.614 C 119.588 209.460,119.275 209.202,119.215 209.042 C 118.988 208.426,118.284 207.667,117.939 207.666 C 117.405 207.666,114.333 208.672,114.333 208.847 C 114.333 208.931,114.254 209.000,114.156 209.000 C 113.911 209.000,112.096 209.888,112.028 210.042 C 111.997 210.110,111.893 210.167,111.796 210.167 C 111.699 210.167,111.535 210.283,111.431 210.425 C 111.055 210.939,108.500 210.952,108.500 210.439 C 108.500 210.317,108.358 210.054,108.185 209.854 C 107.812 209.425,107.541 207.958,107.818 207.866 C 107.918 207.833,108.000 207.707,108.000 207.587 C 108.000 207.467,108.112 207.326,108.250 207.273 C 108.387 207.220,108.500 207.065,108.500 206.928 C 108.500 206.791,108.650 206.598,108.833 206.500 C 109.017 206.402,109.167 206.203,109.167 206.059 C 109.167 204.817,113.111 200.833,114.341 200.833 C 114.520 200.833,114.667 200.764,114.667 200.680 C 114.667 200.336,115.849 200.143,117.291 200.251 C 118.690 200.357,119.850 200.126,120.167 199.678 C 120.424 199.314,123.971 198.356,125.125 198.339 C 125.331 198.336,125.500 198.267,125.500 198.186 C 125.500 197.705,128.677 197.494,138.500 197.325 C 143.954 197.231,149.879 197.085,151.667 197.002 C 153.454 196.918,155.798 196.846,156.875 196.842 C 158.064 196.837,158.833 196.768,158.833 196.667 C 158.833 196.564,159.683 196.499,161.042 196.496 C 165.256 196.489,174.651 195.866,177.583 195.399 C 178.395 195.269,178.494 195.132,178.497 194.139 C 178.499 193.711,178.564 193.336,178.642 193.306 C 178.837 193.229,179.331 187.595,179.452 184.063 C 179.507 182.463,179.616 181.115,179.693 181.067 C 180.002 180.876,179.859 177.167,179.542 177.166 C 179.381 177.165,179.055 177.063,178.816 176.938 C 178.578 176.814,178.034 176.660,177.608 176.596 C 177.182 176.532,176.833 176.420,176.833 176.346 C 176.833 176.273,176.409 176.093,175.891 175.945 C 175.373 175.798,174.792 175.534,174.600 175.360 C 174.407 175.185,173.878 174.838,173.423 174.588 C 172.968 174.338,172.443 173.996,172.257 173.827 C 171.726 173.347,168.690 171.333,168.497 171.333 C 168.403 171.333,168.253 171.144,168.165 170.912 C 168.077 170.681,167.891 170.448,167.753 170.395 C 167.614 170.341,167.500 170.156,167.500 169.982 C 167.500 169.809,167.385 169.667,167.245 169.667 C 167.104 169.667,166.942 169.535,166.883 169.375 C 166.825 169.215,166.583 168.850,166.347 168.564 C 166.110 168.279,165.729 167.801,165.500 167.503 C 165.271 167.205,164.879 166.730,164.630 166.448 C 164.367 166.151,163.988 165.335,163.729 164.510 C 163.483 163.725,163.216 162.998,163.136 162.893 C 162.817 162.480,162.328 160.343,162.244 159.000 C 162.195 158.221,162.128 157.307,162.095 156.970 C 162.049 156.499,162.089 156.378,162.267 156.446 C 162.395 156.496,162.500 156.629,162.500 156.743 C 162.500 156.858,162.669 157.143,162.875 157.376 C 163.706 158.318,164.167 158.912,164.167 159.043 C 164.167 159.119,164.317 159.342,164.500 159.538 C 164.683 159.735,164.833 159.978,164.833 160.079 C 164.833 160.179,165.061 160.396,165.339 160.560 C 165.617 160.724,166.310 161.248,166.880 161.723 C 168.100 162.741,169.012 163.364,169.875 163.769 C 170.219 163.930,170.500 164.123,170.500 164.198 C 170.500 164.272,170.619 164.333,170.765 164.333 C 170.911 164.333,171.216 164.479,171.441 164.656 C 171.667 164.834,172.242 165.108,172.718 165.264 C 173.194 165.421,173.621 165.597,173.667 165.656 C 173.813 165.844,177.943 167.000,178.468 167.000 C 178.745 167.000,178.997 167.064,179.028 167.141 C 179.058 167.219,179.515 167.332,180.042 167.393 L 181.000 167.503 181.000 167.001 C 181.000 166.726,181.072 166.500,181.161 166.500 C 181.249 166.500,181.372 166.125,181.432 165.667 C 181.493 165.208,181.600 164.833,181.670 164.833 C 181.740 164.833,181.841 164.659,181.894 164.446 C 181.948 164.233,182.192 163.764,182.437 163.404 C 182.682 163.045,183.145 162.225,183.466 161.583 C 183.787 160.942,184.103 160.379,184.168 160.333 C 184.233 160.287,184.406 160.017,184.552 159.732 C 184.932 158.990,189.040 154.931,189.755 154.592 C 190.085 154.435,191.006 154.082,191.802 153.806 C 192.597 153.530,193.286 153.246,193.332 153.175 C 193.482 152.944,196.869 152.126,198.417 151.947 C 199.242 151.852,199.955 151.717,200.003 151.648 C 200.207 151.350,204.299 151.360,204.500 151.660 M96.039 190.667 C 96.039 190.987,96.073 191.119,96.115 190.958 C 96.157 190.798,96.157 190.535,96.115 190.375 C 96.073 190.215,96.039 190.346,96.039 190.667 M303.879 192.167 C 303.879 192.579,303.911 192.748,303.951 192.542 C 303.991 192.335,303.991 191.998,303.951 191.792 C 303.911 191.585,303.879 191.754,303.879 192.167 M95.881 193.417 C 95.882 193.875,95.915 194.043,95.953 193.789 C 95.991 193.536,95.990 193.161,95.951 192.956 C 95.911 192.751,95.880 192.958,95.881 193.417 M304.070 198.417 C 304.070 200.250,304.094 201.023,304.124 200.134 C 304.154 199.245,304.154 197.745,304.124 196.801 C 304.095 195.856,304.070 196.583,304.070 198.417 M95.881 203.250 C 95.882 203.708,95.915 203.876,95.953 203.623 C 95.991 203.369,95.990 202.994,95.951 202.789 C 95.911 202.584,95.880 202.792,95.881 203.250 M303.879 204.500 C 303.879 204.912,303.911 205.081,303.951 204.875 C 303.991 204.669,303.991 204.331,303.951 204.125 C 303.911 203.919,303.879 204.088,303.879 204.500 " stroke="none" fill="#fbdb6b" fill-rule="evenodd"></path><path id="path4" d="M191.750 60.853 C 190.833 60.931,189.108 61.073,187.917 61.169 C 184.622 61.435,180.303 61.950,178.167 62.331 C 171.674 63.489,170.689 63.694,166.417 64.777 C 163.569 65.498,162.662 65.739,161.583 66.061 C 161.125 66.197,160.450 66.395,160.083 66.500 C 159.154 66.766,153.490 68.645,153.083 68.822 C 152.900 68.902,152.262 69.137,151.667 69.344 C 151.071 69.551,150.508 69.772,150.417 69.833 C 150.325 69.895,149.762 70.123,149.167 70.340 C 148.571 70.557,147.896 70.831,147.667 70.949 C 147.438 71.068,147.201 71.165,147.140 71.166 C 146.900 71.168,141.918 73.437,139.167 74.797 C 125.928 81.341,113.742 90.036,103.238 100.432 C 99.705 103.929,98.553 105.164,95.150 109.097 C 89.790 115.293,84.010 123.589,79.715 131.250 C 78.070 134.185,78.074 134.182,80.706 130.667 C 100.705 103.952,130.094 84.287,162.500 75.936 C 189.028 69.100,217.711 69.720,243.583 77.690 C 248.592 79.233,254.827 81.502,258.417 83.088 C 259.880 83.734,260.859 84.165,261.833 84.591 C 283.545 94.095,308.240 114.289,320.840 132.844 C 321.694 134.101,321.850 134.117,321.154 132.875 C 317.811 126.910,315.698 123.514,312.391 118.794 C 311.016 116.831,306.863 111.417,306.083 110.570 C 305.992 110.470,305.579 109.985,305.167 109.492 C 303.567 107.580,303.084 107.044,299.493 103.199 C 297.562 101.132,295.012 98.654,291.655 95.583 C 287.163 91.473,280.263 86.238,274.000 82.189 C 261.592 74.168,245.547 67.388,231.750 64.338 C 230.833 64.136,229.858 63.906,229.583 63.827 C 228.884 63.627,226.189 63.108,223.083 62.575 C 219.502 61.961,215.477 61.450,212.000 61.169 C 210.854 61.077,208.979 60.925,207.833 60.833 C 205.391 60.635,194.166 60.650,191.750 60.853 M198.792 94.290 C 199.456 94.322,200.544 94.322,201.208 94.290 C 201.873 94.259,201.329 94.233,200.000 94.233 C 198.671 94.233,198.127 94.259,198.792 94.290 M194.295 94.454 C 194.594 94.491,195.044 94.490,195.295 94.452 C 195.545 94.414,195.300 94.384,194.750 94.385 C 194.200 94.386,193.995 94.417,194.295 94.454 M204.795 94.454 C 205.094 94.491,205.544 94.490,205.795 94.452 C 206.045 94.414,205.800 94.384,205.250 94.385 C 204.700 94.386,204.495 94.417,204.795 94.454 M211.208 94.948 C 211.369 94.990,211.631 94.990,211.792 94.948 C 211.952 94.906,211.821 94.872,211.500 94.872 C 211.179 94.872,211.048 94.906,211.208 94.948 M197.635 110.958 C 198.947 110.986,201.047 110.986,202.302 110.958 C 203.557 110.930,202.483 110.907,199.917 110.907 C 197.350 110.907,196.323 110.930,197.635 110.958 M192.629 111.122 C 193.021 111.157,193.621 111.157,193.963 111.121 C 194.304 111.085,193.983 111.057,193.250 111.057 C 192.517 111.058,192.237 111.087,192.629 111.122 M206.129 111.122 C 206.521 111.157,207.121 111.157,207.463 111.121 C 207.804 111.085,207.483 111.057,206.750 111.057 C 206.017 111.058,205.737 111.087,206.129 111.122 M189.127 111.451 C 189.334 111.491,189.634 111.490,189.794 111.448 C 189.953 111.406,189.783 111.374,189.417 111.375 C 189.050 111.377,188.920 111.411,189.127 111.451 M210.294 111.451 C 210.501 111.491,210.801 111.490,210.960 111.448 C 211.120 111.406,210.950 111.374,210.583 111.375 C 210.217 111.377,210.086 111.411,210.294 111.451 M187.292 111.618 C 187.498 111.657,187.835 111.657,188.042 111.618 C 188.248 111.578,188.079 111.545,187.667 111.545 C 187.254 111.545,187.085 111.578,187.292 111.618 M211.877 111.620 C 212.131 111.658,212.506 111.657,212.711 111.617 C 212.916 111.578,212.708 111.546,212.250 111.548 C 211.792 111.549,211.624 111.581,211.877 111.620 M214.375 111.948 C 214.535 111.990,214.798 111.990,214.958 111.948 C 215.119 111.906,214.987 111.872,214.667 111.872 C 214.346 111.872,214.215 111.906,214.375 111.948 M183.708 112.115 C 183.869 112.157,184.131 112.157,184.292 112.115 C 184.452 112.073,184.321 112.039,184.000 112.039 C 183.679 112.039,183.548 112.073,183.708 112.115 M215.627 112.118 C 215.834 112.158,216.134 112.156,216.294 112.115 C 216.453 112.073,216.283 112.040,215.917 112.042 C 215.550 112.044,215.420 112.078,215.627 112.118 M180.250 112.671 C 180.027 112.770,180.166 112.786,180.667 112.719 C 181.079 112.665,181.448 112.593,181.486 112.560 C 181.631 112.435,180.568 112.530,180.250 112.671 M177.833 113.169 C 177.657 113.284,177.756 113.301,178.167 113.226 C 178.885 113.094,179.021 112.999,178.486 113.003 C 178.265 113.004,177.971 113.079,177.833 113.169 M221.014 113.061 C 221.052 113.095,221.383 113.168,221.750 113.224 C 222.215 113.295,222.316 113.280,222.083 113.174 C 221.763 113.029,220.871 112.935,221.014 113.061 M139.583 113.598 L 139.083 114.028 139.625 113.669 C 139.923 113.472,140.167 113.278,140.167 113.239 C 140.167 113.114,140.096 113.157,139.583 113.598 M175.667 113.669 C 175.491 113.784,175.590 113.801,176.000 113.726 C 176.719 113.594,176.854 113.499,176.319 113.503 C 176.098 113.504,175.804 113.579,175.667 113.669 M225.000 114.000 C 225.229 114.073,225.567 114.133,225.750 114.133 C 226.014 114.133,225.997 114.106,225.667 114.000 C 225.438 113.927,225.100 113.867,224.917 113.867 C 224.653 113.867,224.670 113.894,225.000 114.000 M173.667 114.174 C 173.484 114.298,173.552 114.313,173.917 114.232 C 174.529 114.095,174.663 113.999,174.236 114.003 C 174.060 114.004,173.804 114.081,173.667 114.174 M171.833 114.674 C 171.651 114.798,171.718 114.813,172.083 114.732 C 172.696 114.595,172.829 114.499,172.403 114.503 C 172.227 114.504,171.971 114.581,171.833 114.674 M227.347 114.560 C 227.385 114.593,227.642 114.670,227.917 114.732 C 228.282 114.813,228.349 114.798,228.167 114.674 C 227.942 114.522,227.180 114.416,227.347 114.560 M228.750 114.974 C 229.265 115.195,230.129 115.365,229.833 115.188 C 229.696 115.106,229.321 114.992,229.000 114.935 C 228.606 114.865,228.525 114.878,228.750 114.974 M136.583 115.755 C 135.931 116.290,136.107 116.286,136.833 115.750 C 137.144 115.521,137.327 115.336,137.241 115.339 C 137.154 115.343,136.858 115.530,136.583 115.755 M230.167 115.380 C 230.213 115.427,230.544 115.545,230.902 115.643 C 231.261 115.741,231.486 115.757,231.402 115.678 C 231.242 115.527,230.023 115.233,230.167 115.380 M167.417 115.952 C 167.233 115.996,167.015 116.097,166.931 116.177 C 166.847 116.257,167.072 116.241,167.431 116.143 C 168.398 115.879,168.386 115.719,167.417 115.952 M232.333 116.083 C 233.094 116.376,233.394 116.372,232.750 116.077 C 232.475 115.951,232.137 115.851,232.000 115.854 C 231.862 115.856,232.012 115.960,232.333 116.083 M165.750 116.577 C 165.106 116.872,165.406 116.876,166.167 116.583 C 166.487 116.460,166.637 116.356,166.500 116.354 C 166.362 116.351,166.025 116.451,165.750 116.577 M233.333 116.368 C 233.379 116.414,233.677 116.539,233.996 116.646 C 234.315 116.754,234.502 116.771,234.413 116.683 C 234.323 116.595,234.025 116.470,233.750 116.405 C 233.475 116.340,233.287 116.323,233.333 116.368 M235.167 117.083 C 235.928 117.376,236.227 117.372,235.583 117.077 C 235.308 116.951,234.971 116.851,234.833 116.854 C 234.696 116.856,234.846 116.960,235.167 117.083 M163.042 117.505 C 162.465 117.737,162.598 117.839,163.208 117.633 C 163.506 117.533,163.781 117.424,163.819 117.392 C 163.955 117.278,163.411 117.357,163.042 117.505 M236.190 117.412 C 236.233 117.455,236.789 117.686,237.426 117.924 C 238.062 118.162,238.508 118.290,238.417 118.207 C 238.144 117.959,235.957 117.179,236.190 117.412 M161.684 118.014 C 161.465 118.102,161.322 118.211,161.367 118.256 C 161.413 118.301,161.705 118.228,162.016 118.092 C 162.634 117.824,162.335 117.754,161.684 118.014 M160.542 118.505 C 159.984 118.730,160.088 118.843,160.667 118.642 C 160.942 118.546,161.167 118.437,161.167 118.400 C 161.167 118.301,160.964 118.336,160.542 118.505 M239.181 118.569 C 239.314 118.702,242.390 119.999,242.444 119.945 C 242.498 119.891,241.140 119.249,239.938 118.762 C 239.294 118.501,239.049 118.438,239.181 118.569 M159.375 119.005 C 158.817 119.230,158.921 119.343,159.500 119.142 C 159.775 119.046,160.000 118.937,160.000 118.900 C 160.000 118.801,159.797 118.836,159.375 119.005 M267.509 119.292 C 267.514 119.360,267.758 119.599,268.051 119.823 L 268.583 120.229 268.094 119.698 C 267.585 119.145,267.494 119.082,267.509 119.292 M158.208 119.505 C 157.650 119.730,157.755 119.843,158.333 119.642 C 158.608 119.546,158.833 119.437,158.833 119.400 C 158.833 119.301,158.630 119.336,158.208 119.505 M131.155 120.294 L 130.583 120.916 131.166 120.416 C 131.486 120.142,131.780 119.898,131.819 119.875 C 131.857 119.852,131.853 119.797,131.808 119.752 C 131.764 119.708,131.470 119.952,131.155 120.294 M156.870 120.110 C 156.570 120.258,156.351 120.406,156.384 120.439 C 156.416 120.472,156.737 120.352,157.097 120.173 C 157.456 119.993,157.675 119.845,157.583 119.844 C 157.492 119.842,157.171 119.962,156.870 120.110 M244.000 120.721 C 245.802 121.612,246.333 121.846,246.333 121.747 C 246.333 121.654,242.856 119.995,242.694 120.011 C 242.633 120.016,243.221 120.336,244.000 120.721 M268.667 120.219 C 268.667 120.248,268.910 120.491,269.208 120.760 L 269.750 121.250 269.260 120.708 C 268.804 120.203,268.667 120.090,268.667 120.219 M153.625 121.677 C 152.365 122.314,151.333 122.873,151.333 122.919 C 151.333 122.993,155.983 120.722,156.153 120.564 C 156.420 120.317,155.603 120.676,153.625 121.677 M129.658 121.625 L 129.083 122.250 129.708 121.676 C 130.290 121.141,130.410 121.000,130.283 121.000 C 130.255 121.000,129.974 121.281,129.658 121.625 M246.514 121.895 C 246.552 121.929,247.183 122.275,247.917 122.664 C 248.650 123.053,249.644 123.593,250.125 123.865 C 250.606 124.136,251.000 124.320,251.000 124.274 C 251.000 124.141,246.805 121.833,246.562 121.833 C 246.498 121.833,246.476 121.861,246.514 121.895 M271.326 122.708 C 272.017 123.444,272.167 123.577,272.167 123.451 C 272.167 123.425,271.810 123.068,271.375 122.660 L 270.583 121.917 271.326 122.708 M150.457 123.319 C 149.791 123.746,149.668 123.919,150.250 123.611 C 150.948 123.240,151.280 123.003,151.083 123.015 C 150.992 123.020,150.710 123.157,150.457 123.319 M126.283 124.800 C 125.394 125.692,124.667 126.469,124.667 126.526 C 124.667 126.583,125.414 125.873,126.328 124.948 C 127.242 124.024,127.969 123.247,127.944 123.222 C 127.920 123.198,127.172 123.908,126.283 124.800 M148.790 124.229 C 147.836 124.816,147.807 124.955,148.750 124.422 C 149.709 123.880,149.778 123.831,149.569 123.839 C 149.485 123.841,149.135 124.017,148.790 124.229 M251.333 124.497 C 251.471 124.595,252.258 125.073,253.083 125.559 C 253.908 126.044,255.240 126.867,256.042 127.388 C 256.844 127.909,257.497 128.279,257.494 128.209 C 257.491 128.140,256.985 127.776,256.369 127.400 C 255.754 127.025,254.433 126.212,253.435 125.594 C 251.840 124.608,250.544 123.931,251.333 124.497 M275.497 126.917 C 276.087 127.558,276.601 128.121,276.640 128.167 C 276.680 128.212,276.632 128.100,276.535 127.917 C 276.438 127.733,275.923 127.171,275.392 126.667 L 274.426 125.750 275.497 126.917 M142.358 128.208 C 140.791 129.240,139.507 130.135,139.505 130.197 C 139.501 130.285,145.016 126.683,145.319 126.398 C 145.668 126.073,144.766 126.623,142.358 128.208 M122.906 128.375 L 122.417 128.917 122.958 128.427 C 123.256 128.158,123.500 127.914,123.500 127.885 C 123.500 127.757,123.362 127.870,122.906 128.375 M257.750 128.448 C 257.842 128.538,258.854 129.274,260.000 130.084 C 261.146 130.893,262.749 132.077,263.562 132.715 C 264.376 133.352,265.013 133.798,264.979 133.707 C 264.945 133.615,264.242 133.030,263.417 132.406 C 262.592 131.782,261.879 131.229,261.833 131.177 C 261.787 131.126,261.525 130.928,261.250 130.739 C 258.611 128.921,258.050 128.541,257.833 128.422 C 257.669 128.331,257.640 128.341,257.750 128.448 M121.753 129.664 C 121.397 130.029,121.138 130.352,121.177 130.383 C 121.217 130.413,121.541 130.114,121.897 129.719 C 122.709 128.816,122.616 128.780,121.753 129.664 M278.595 130.349 C 278.864 130.679,279.117 130.920,279.158 130.885 C 279.199 130.851,278.980 130.581,278.670 130.286 L 278.108 129.750 278.595 130.349 M120.635 130.958 C 120.341 131.300,120.121 131.667,120.209 131.667 C 120.243 131.667,120.437 131.442,120.640 131.167 C 121.042 130.623,121.038 130.488,120.635 130.958 M137.705 131.458 C 137.231 131.802,136.841 132.145,136.838 132.219 C 136.834 132.329,137.688 131.714,138.575 130.967 C 139.012 130.598,138.464 130.908,137.705 131.458 M136.250 132.594 C 135.273 133.327,131.500 136.436,131.333 136.645 C 131.287 136.703,130.541 137.387,129.675 138.167 C 127.786 139.865,124.195 143.466,122.775 145.083 C 122.212 145.725,123.289 144.683,125.167 142.767 C 128.715 139.150,131.013 137.037,134.417 134.259 C 135.517 133.362,136.488 132.561,136.575 132.480 C 136.827 132.246,136.615 132.320,136.250 132.594 M118.738 133.254 C 118.398 133.669,118.149 134.034,118.185 134.065 C 118.221 134.096,118.532 133.756,118.878 133.311 C 119.669 132.289,119.564 132.246,118.738 133.254 M265.599 134.273 C 265.882 134.536,267.103 135.602,268.311 136.644 C 270.710 138.713,274.573 142.464,277.001 145.083 C 277.851 146.000,278.218 146.337,277.817 145.833 C 277.066 144.890,270.779 138.531,269.575 137.496 C 269.204 137.178,268.454 136.529,267.908 136.056 C 266.728 135.033,264.859 133.590,265.599 134.273 M284.833 138.333 C 285.029 138.608,285.227 138.833,285.273 138.833 C 285.319 138.833,285.196 138.608,285.000 138.333 C 284.804 138.058,284.606 137.833,284.561 137.833 C 284.515 137.833,284.638 138.058,284.833 138.333 M113.205 140.792 C 112.774 141.415,112.634 141.667,112.718 141.667 C 112.757 141.667,112.988 141.367,113.230 141.000 C 113.723 140.255,113.702 140.075,113.205 140.792 M110.735 144.708 C 109.962 146.003,109.964 146.000,110.058 146.000 C 110.100 146.000,110.342 145.644,110.595 145.208 C 110.848 144.773,111.164 144.248,111.297 144.042 C 111.430 143.835,111.498 143.667,111.448 143.667 C 111.398 143.667,111.078 144.135,110.735 144.708 M120.619 147.504 C 119.377 149.002,119.489 149.000,120.822 147.500 C 121.392 146.858,121.797 146.335,121.721 146.337 C 121.645 146.340,121.149 146.865,120.619 147.504 M280.214 148.880 C 281.150 150.006,282.543 151.769,283.309 152.797 C 284.729 154.703,285.286 155.305,284.308 153.875 C 284.010 153.440,283.687 152.992,283.591 152.881 C 283.269 152.507,283.077 152.253,282.670 151.667 C 282.448 151.346,282.223 151.046,282.171 151.000 C 282.118 150.954,281.665 150.393,281.163 149.753 C 280.661 149.113,280.137 148.473,280.000 148.331 C 279.862 148.189,279.530 147.794,279.262 147.453 C 278.993 147.112,278.714 146.833,278.642 146.833 C 278.570 146.833,279.277 147.754,280.214 148.880 M118.886 149.623 C 118.536 150.058,118.113 150.564,117.945 150.748 C 117.777 150.933,117.564 151.233,117.472 151.417 C 117.288 151.781,117.740 151.276,118.924 149.792 C 119.345 149.265,119.651 148.833,119.606 148.833 C 119.560 148.833,119.236 149.189,118.886 149.623 M200.377 151.620 C 200.631 151.658,201.006 151.657,201.211 151.617 C 201.416 151.578,201.208 151.546,200.750 151.548 C 200.292 151.549,200.124 151.581,200.377 151.620 M203.377 151.620 C 203.631 151.658,204.006 151.657,204.211 151.617 C 204.416 151.578,204.208 151.546,203.750 151.548 C 203.292 151.549,203.124 151.581,203.377 151.620 M116.583 152.544 C 116.027 153.304,115.693 153.850,115.948 153.583 C 116.338 153.175,117.201 151.979,117.145 151.923 C 117.111 151.889,116.858 152.168,116.583 152.544 M114.354 155.634 C 113.539 156.881,113.774 156.722,114.736 155.375 C 115.080 154.894,115.299 154.504,115.223 154.509 C 115.146 154.514,114.755 155.020,114.354 155.634 M105.195 155.158 C 105.097 155.438,105.053 155.667,105.096 155.667 C 105.209 155.667,105.523 154.801,105.441 154.718 C 105.403 154.681,105.292 154.878,105.195 155.158 M286.464 157.276 C 288.827 160.823,290.637 163.915,292.693 167.917 C 293.683 169.842,294.493 171.342,294.493 171.250 C 294.496 170.918,291.649 165.403,290.396 163.312 C 290.086 162.795,289.833 162.289,289.833 162.187 C 289.833 162.084,289.758 162.000,289.667 162.000 C 289.575 162.000,289.500 161.934,289.500 161.853 C 289.500 161.714,287.513 158.438,287.213 158.083 C 287.136 157.992,286.892 157.617,286.670 157.250 C 286.449 156.883,286.226 156.546,286.175 156.500 C 286.124 156.454,285.864 156.095,285.597 155.701 C 285.330 155.307,285.045 154.944,284.963 154.894 C 284.882 154.844,285.557 155.916,286.464 157.276 M241.262 157.345 C 241.198 157.908,241.180 158.403,241.222 158.444 C 241.264 158.486,241.352 158.061,241.417 157.500 C 241.482 156.939,241.500 156.444,241.456 156.401 C 241.413 156.358,241.326 156.783,241.262 157.345 M112.969 157.708 C 111.914 159.303,111.794 159.500,111.874 159.500 C 111.943 159.500,112.400 158.843,113.407 157.292 C 113.571 157.040,113.669 156.833,113.626 156.833 C 113.583 156.833,113.287 157.227,112.969 157.708 M162.205 159.167 C 162.205 159.487,162.240 159.619,162.282 159.458 C 162.323 159.298,162.323 159.035,162.282 158.875 C 162.240 158.715,162.205 158.846,162.205 159.167 M103.195 159.825 C 103.097 160.105,103.053 160.333,103.096 160.333 C 103.209 160.333,103.523 159.468,103.441 159.385 C 103.403 159.347,103.292 159.545,103.195 159.825 M166.083 161.233 C 166.450 161.566,166.900 161.918,167.083 162.017 C 167.474 162.227,166.642 161.487,165.917 160.979 C 165.590 160.751,165.648 160.839,166.083 161.233 M110.272 161.996 C 109.856 162.626,109.673 163.081,109.973 162.742 C 110.205 162.480,110.866 161.333,110.786 161.333 C 110.745 161.333,110.513 161.632,110.272 161.996 M109.251 163.763 C 109.005 164.183,108.831 164.554,108.865 164.587 C 108.899 164.621,109.135 164.277,109.389 163.824 C 109.973 162.786,109.854 162.734,109.251 163.763 M169.667 163.734 C 169.667 163.768,169.854 163.918,170.083 164.068 C 170.313 164.218,170.500 164.276,170.500 164.197 C 170.500 164.118,170.313 163.968,170.083 163.864 C 169.854 163.759,169.667 163.701,169.667 163.734 M107.667 166.667 C 107.389 167.217,107.199 167.667,107.245 167.667 C 107.291 167.667,107.556 167.217,107.833 166.667 C 108.111 166.117,108.301 165.667,108.255 165.667 C 108.209 165.667,107.944 166.117,107.667 166.667 M181.039 167.000 C 181.039 167.321,181.073 167.452,181.115 167.292 C 181.157 167.131,181.157 166.869,181.115 166.708 C 181.073 166.548,181.039 166.679,181.039 167.000 M177.958 167.118 C 178.165 167.157,178.502 167.157,178.708 167.118 C 178.915 167.078,178.746 167.045,178.333 167.045 C 177.921 167.045,177.752 167.078,177.958 167.118 M224.460 167.118 C 224.668 167.158,224.968 167.156,225.127 167.115 C 225.286 167.073,225.117 167.040,224.750 167.042 C 224.383 167.044,224.253 167.078,224.460 167.118 M106.797 168.382 C 106.241 169.474,106.157 169.667,106.235 169.667 C 106.341 169.667,107.192 167.970,107.122 167.900 C 107.093 167.871,106.946 168.087,106.797 168.382 M105.698 170.591 C 105.196 171.625,105.252 171.770,105.769 170.775 C 106.000 170.331,106.161 169.939,106.126 169.904 C 106.091 169.869,105.899 170.179,105.698 170.591 M295.107 172.875 C 295.435 173.631,296.088 175.205,296.559 176.373 C 297.031 177.540,297.441 178.425,297.470 178.339 C 297.499 178.252,297.409 177.935,297.269 177.633 C 297.129 177.330,296.860 176.671,296.670 176.167 C 296.480 175.662,296.255 175.100,296.171 174.917 C 295.971 174.479,295.365 173.099,294.982 172.208 C 294.815 171.819,294.641 171.500,294.596 171.500 C 294.550 171.500,294.780 172.119,295.107 172.875 M104.991 172.106 C 104.899 172.348,104.855 172.577,104.893 172.615 C 104.931 172.653,105.041 172.455,105.139 172.175 C 105.355 171.553,105.225 171.493,104.991 172.106 M103.841 174.758 C 103.549 175.459,103.338 176.061,103.373 176.095 C 103.407 176.130,103.673 175.582,103.962 174.879 C 104.252 174.175,104.462 173.573,104.430 173.541 C 104.398 173.509,104.133 174.056,103.841 174.758 M98.686 174.028 C 98.675 174.181,98.624 174.443,98.571 174.611 C 98.480 174.901,98.485 174.901,98.665 174.620 C 98.770 174.456,98.822 174.194,98.781 174.036 C 98.713 173.778,98.703 173.778,98.686 174.028 M103.052 176.625 C 102.994 176.785,102.806 177.283,102.634 177.730 C 102.462 178.177,102.361 178.584,102.411 178.633 C 102.460 178.682,102.500 178.681,102.500 178.631 C 102.500 178.581,102.687 178.043,102.915 177.437 C 103.144 176.830,103.291 176.333,103.243 176.333 C 103.195 176.333,103.109 176.465,103.052 176.625 M224.444 176.944 C 224.292 177.097,224.304 178.462,224.458 178.558 C 224.527 178.600,224.556 178.295,224.523 177.880 C 224.483 177.371,224.537 177.079,224.690 176.982 C 224.815 176.903,224.835 176.837,224.736 176.836 C 224.637 176.834,224.506 176.883,224.444 176.944 M102.019 179.350 C 101.917 179.643,101.839 179.966,101.845 180.067 C 101.852 180.167,101.964 179.957,102.096 179.598 C 102.227 179.239,102.306 178.917,102.270 178.881 C 102.234 178.845,102.122 179.056,102.019 179.350 M297.843 179.583 C 297.838 179.675,297.980 180.125,298.159 180.583 C 298.338 181.042,298.484 181.304,298.483 181.167 C 298.481 180.878,297.857 179.333,297.843 179.583 M179.573 181.218 C 179.527 181.338,179.511 182.332,179.537 183.426 L 179.585 185.417 179.668 183.208 C 179.749 181.030,179.737 180.789,179.573 181.218 M298.526 181.583 C 298.526 181.675,298.626 182.012,298.750 182.333 C 298.874 182.654,298.977 182.804,298.980 182.667 C 298.983 182.529,298.882 182.192,298.756 181.917 C 298.630 181.642,298.527 181.492,298.526 181.583 M101.019 182.183 C 100.917 182.476,100.839 182.799,100.845 182.900 C 100.852 183.001,100.964 182.790,101.096 182.431 C 101.227 182.073,101.306 181.750,101.270 181.714 C 101.234 181.679,101.122 181.890,101.019 182.183 M299.043 183.208 C 299.086 183.323,299.372 184.271,299.678 185.315 C 299.984 186.360,300.264 187.124,300.301 187.015 C 300.337 186.906,300.290 186.614,300.196 186.367 C 300.103 186.119,299.828 185.260,299.586 184.458 C 299.344 183.656,299.106 183.000,299.055 183.000 C 299.005 183.000,299.000 183.094,299.043 183.208 M100.613 183.458 C 100.497 183.654,100.284 184.760,100.380 184.667 C 100.489 184.560,100.826 183.333,100.746 183.333 C 100.713 183.333,100.653 183.390,100.613 183.458 M96.705 185.000 C 96.705 185.321,96.740 185.452,96.782 185.292 C 96.823 185.131,96.823 184.869,96.782 184.708 C 96.740 184.548,96.705 184.679,96.705 185.000 M100.000 185.500 C 99.896 185.885,99.844 186.233,99.884 186.273 C 99.924 186.313,100.037 186.026,100.136 185.636 C 100.235 185.246,100.288 184.899,100.252 184.864 C 100.217 184.828,100.104 185.115,100.000 185.500 M224.892 186.250 C 224.892 187.075,224.920 187.434,224.955 187.047 C 224.990 186.660,224.990 185.985,224.956 185.547 C 224.922 185.109,224.893 185.425,224.892 186.250 M99.513 187.109 C 99.415 187.462,99.341 187.862,99.349 188.000 C 99.357 188.137,99.465 187.878,99.590 187.422 C 99.715 186.967,99.789 186.567,99.754 186.532 C 99.719 186.497,99.611 186.757,99.513 187.109 M300.514 188.167 C 300.519 188.304,300.588 188.567,300.667 188.750 L 300.810 189.083 300.819 188.750 C 300.824 188.567,300.756 188.304,300.667 188.167 C 300.523 187.944,300.506 187.944,300.514 188.167 M303.542 188.750 C 303.544 189.117,303.578 189.247,303.618 189.040 C 303.658 188.832,303.656 188.532,303.615 188.373 C 303.573 188.214,303.540 188.383,303.542 188.750 M96.217 189.667 C 96.217 190.171,96.248 190.377,96.286 190.125 C 96.324 189.873,96.324 189.460,96.286 189.208 C 96.248 188.956,96.217 189.162,96.217 189.667 M301.008 190.083 C 301.007 190.175,301.116 190.625,301.249 191.083 L 301.492 191.917 301.394 191.167 C 301.306 190.493,301.013 189.670,301.008 190.083 M98.426 191.426 C 98.363 191.760,98.345 192.067,98.386 192.108 C 98.427 192.149,98.511 191.909,98.574 191.574 C 98.637 191.240,98.655 190.933,98.614 190.892 C 98.573 190.851,98.489 191.091,98.426 191.426 M301.528 192.250 C 301.531 192.433,301.593 192.771,301.667 193.000 L 301.800 193.417 301.805 193.000 C 301.808 192.771,301.745 192.433,301.667 192.250 L 301.523 191.917 301.528 192.250 M303.875 193.417 C 303.877 193.783,303.911 193.914,303.951 193.706 C 303.991 193.499,303.990 193.199,303.948 193.040 C 303.906 192.880,303.874 193.050,303.875 193.417 M178.474 194.250 C 178.442 194.755,178.473 195.167,178.542 195.167 C 178.610 195.167,178.667 194.754,178.667 194.250 C 178.667 193.067,178.547 193.067,178.474 194.250 M95.906 198.333 C 95.906 200.671,95.929 201.627,95.958 200.458 C 95.987 199.290,95.987 197.377,95.958 196.208 C 95.929 195.040,95.906 195.996,95.906 198.333 M302.031 194.583 C 302.036 194.767,302.097 195.142,302.167 195.417 L 302.294 195.917 302.302 195.417 C 302.306 195.142,302.245 194.767,302.167 194.583 L 302.023 194.250 302.031 194.583 M97.607 195.202 C 97.551 195.412,97.512 195.771,97.521 196.000 C 97.530 196.246,97.596 196.113,97.682 195.677 C 97.835 194.897,97.781 194.553,97.607 195.202 M229.121 195.120 C 229.417 195.157,229.942 195.158,230.288 195.122 C 230.634 195.086,230.392 195.055,229.750 195.055 C 229.108 195.054,228.825 195.083,229.121 195.120 M161.583 196.500 L 158.750 196.596 161.532 196.631 C 163.246 196.653,164.353 196.603,164.417 196.500 C 164.473 196.408,164.496 196.349,164.468 196.369 C 164.440 196.388,163.142 196.447,161.583 196.500 M302.613 197.750 C 302.666 198.208,302.737 198.615,302.771 198.653 C 302.888 198.784,302.800 197.750,302.658 197.333 C 302.563 197.052,302.548 197.188,302.613 197.750 M281.109 198.042 C 281.152 198.110,281.744 198.167,282.427 198.167 C 283.109 198.167,283.667 198.110,283.667 198.042 C 283.667 197.973,283.074 197.917,282.349 197.917 C 281.625 197.917,281.067 197.973,281.109 198.042 M97.039 198.833 C 97.039 199.154,97.073 199.285,97.115 199.125 C 97.157 198.965,97.157 198.702,97.115 198.542 C 97.073 198.381,97.039 198.512,97.039 198.833 M302.875 199.417 C 302.877 199.783,302.911 199.914,302.951 199.706 C 302.991 199.499,302.990 199.199,302.948 199.040 C 302.906 198.880,302.874 199.050,302.875 199.417 M303.117 201.167 C 303.169 201.671,303.239 202.115,303.273 202.153 C 303.389 202.286,303.299 201.080,303.161 200.667 C 303.071 200.398,303.056 200.575,303.117 201.167 M96.545 202.333 C 96.545 202.746,96.578 202.915,96.618 202.708 C 96.657 202.502,96.657 202.165,96.618 201.958 C 96.578 201.752,96.545 201.921,96.545 202.333 M303.379 203.167 C 303.379 203.579,303.411 203.748,303.451 203.542 C 303.491 203.335,303.491 202.998,303.451 202.792 C 303.411 202.585,303.379 202.754,303.379 203.167 M303.875 203.250 C 303.877 203.617,303.911 203.747,303.951 203.540 C 303.991 203.332,303.990 203.032,303.948 202.873 C 303.906 202.714,303.874 202.883,303.875 203.250 M96.375 203.917 C 96.377 204.283,96.411 204.414,96.451 204.206 C 96.491 203.999,96.490 203.699,96.448 203.540 C 96.406 203.380,96.374 203.550,96.375 203.917 M303.529 204.750 C 303.524 205.025,303.581 205.550,303.657 205.917 C 303.777 206.497,303.796 206.518,303.805 206.083 C 303.810 205.808,303.752 205.283,303.676 204.917 C 303.556 204.337,303.537 204.315,303.529 204.750 M96.033 205.000 C 96.033 205.229,96.093 205.604,96.167 205.833 L 96.300 206.250 96.300 205.833 C 96.300 205.604,96.240 205.229,96.167 205.000 L 96.033 204.583 96.033 205.000 M261.651 205.885 C 261.725 205.959,262.190 205.995,262.685 205.966 L 263.583 205.912 262.549 205.831 C 261.981 205.786,261.576 205.811,261.651 205.885 M237.375 205.948 C 237.535 205.990,237.798 205.990,237.958 205.948 C 238.119 205.906,237.987 205.872,237.667 205.872 C 237.346 205.872,237.215 205.906,237.375 205.948 M234.375 206.448 C 234.535 206.490,234.798 206.490,234.958 206.448 C 235.119 206.406,234.987 206.372,234.667 206.372 C 234.346 206.372,234.215 206.406,234.375 206.448 M142.792 207.451 C 142.998 207.491,143.335 207.491,143.542 207.451 C 143.748 207.411,143.579 207.379,143.167 207.379 C 142.754 207.379,142.585 207.411,142.792 207.451 M168.294 207.451 C 168.501 207.491,168.801 207.490,168.960 207.448 C 169.120 207.406,168.950 207.374,168.583 207.375 C 168.217 207.377,168.086 207.411,168.294 207.451 M138.377 207.953 C 138.631 207.991,139.006 207.990,139.211 207.951 C 139.416 207.911,139.208 207.880,138.750 207.881 C 138.292 207.882,138.124 207.915,138.377 207.953 M271.127 207.951 C 271.334 207.991,271.634 207.990,271.794 207.948 C 271.953 207.906,271.783 207.874,271.417 207.875 C 271.050 207.877,270.920 207.911,271.127 207.951 M128.941 210.461 C 128.897 210.532,129.155 210.561,129.514 210.527 C 129.873 210.493,130.167 210.435,130.167 210.399 C 130.167 210.275,129.020 210.333,128.941 210.461 M175.473 212.167 C 175.442 212.717,175.473 213.167,175.542 213.167 C 175.610 213.167,175.667 212.717,175.667 212.167 C 175.667 210.876,175.546 210.876,175.473 212.167 M228.831 214.216 L 228.913 215.417 228.965 214.350 C 228.994 213.764,228.957 213.223,228.884 213.149 C 228.810 213.076,228.787 213.555,228.831 214.216 M174.559 222.583 C 174.559 223.408,174.587 223.767,174.622 223.380 C 174.657 222.993,174.657 222.318,174.623 221.880 C 174.588 221.442,174.560 221.758,174.559 222.583 M229.888 225.250 C 229.889 225.892,229.919 226.134,229.955 225.788 C 229.991 225.442,229.990 224.917,229.954 224.621 C 229.917 224.325,229.887 224.608,229.888 225.250 M230.388 231.417 C 230.389 232.058,230.419 232.300,230.455 231.955 C 230.491 231.609,230.490 231.084,230.454 230.788 C 230.417 230.492,230.387 230.775,230.388 231.417 M174.519 233.032 C 174.509 233.462,174.559 233.850,174.632 233.895 C 174.704 233.940,174.738 233.701,174.706 233.363 C 174.608 232.333,174.540 232.211,174.519 233.032 M175.480 237.536 C 175.557 237.999,175.580 238.023,175.633 237.689 C 175.667 237.472,175.626 237.226,175.542 237.142 C 175.450 237.050,175.425 237.205,175.480 237.536 M186.570 255.000 C 186.570 256.787,186.594 257.519,186.624 256.625 C 186.654 255.731,186.654 254.269,186.624 253.375 C 186.594 252.481,186.570 253.213,186.570 255.000 M209.109 252.458 C 209.066 252.527,209.418 252.562,209.891 252.536 C 211.423 252.451,211.610 252.384,210.385 252.358 C 209.726 252.345,209.151 252.390,209.109 252.458 " stroke="none" fill="#fce494" fill-rule="evenodd"></path><path id="path5" d="M195.461 60.621 C 195.761 60.658,196.211 60.657,196.461 60.619 C 196.712 60.581,196.467 60.551,195.917 60.552 C 195.367 60.553,195.162 60.584,195.461 60.621 M203.542 60.619 C 203.794 60.658,204.206 60.658,204.458 60.619 C 204.710 60.581,204.504 60.550,204.000 60.550 C 203.496 60.550,203.290 60.581,203.542 60.619 M297.167 100.750 C 297.665 101.254,298.109 101.667,298.155 101.667 C 298.201 101.667,297.831 101.254,297.333 100.750 C 296.835 100.246,296.391 99.833,296.345 99.833 C 296.299 99.833,296.669 100.246,297.167 100.750 M62.209 192.917 C 62.211 193.283,62.245 193.414,62.285 193.206 C 62.324 192.999,62.323 192.699,62.281 192.540 C 62.239 192.380,62.207 192.550,62.209 192.917 M337.720 196.667 C 337.720 197.262,337.750 197.506,337.787 197.208 C 337.824 196.910,337.824 196.423,337.787 196.125 C 337.750 195.827,337.720 196.071,337.720 196.667 M337.720 200.167 C 337.720 200.762,337.750 201.006,337.787 200.708 C 337.824 200.410,337.824 199.923,337.787 199.625 C 337.750 199.327,337.720 199.571,337.720 200.167 M62.205 203.500 C 62.205 203.821,62.240 203.952,62.282 203.792 C 62.323 203.631,62.323 203.369,62.282 203.208 C 62.240 203.048,62.205 203.179,62.205 203.500 M300.573 292.375 L 300.083 292.917 300.625 292.427 C 301.130 291.971,301.243 291.833,301.115 291.833 C 301.086 291.833,300.842 292.077,300.573 292.375 M102.417 295.833 C 102.775 296.200,103.105 296.500,103.151 296.500 C 103.197 296.500,102.941 296.200,102.583 295.833 C 102.225 295.467,101.895 295.167,101.849 295.167 C 101.803 295.167,102.059 295.467,102.417 295.833 M293.740 299.208 L 293.250 299.750 293.792 299.260 C 294.297 298.804,294.410 298.667,294.281 298.667 C 294.252 298.667,294.009 298.910,293.740 299.208 " stroke="none" fill="#745c3c" fill-rule="evenodd"></path><path id="path6" d="" stroke="none" fill="#978257" fill-rule="evenodd"></path><path id="path7" d="M197.127 60.618 C 197.334 60.658,197.634 60.656,197.794 60.615 C 197.953 60.573,197.783 60.540,197.417 60.542 C 197.050 60.544,196.920 60.578,197.127 60.618 M202.125 60.618 C 202.331 60.657,202.669 60.657,202.875 60.618 C 203.081 60.578,202.912 60.545,202.500 60.545 C 202.088 60.545,201.919 60.578,202.125 60.618 M337.714 198.417 C 337.716 198.875,337.748 199.043,337.786 198.789 C 337.825 198.536,337.824 198.161,337.784 197.956 C 337.744 197.751,337.713 197.958,337.714 198.417 " stroke="none" fill="#7c6c44" fill-rule="evenodd"></path><path id="path8" d="M199.048 60.623 C 199.578 60.657,200.403 60.656,200.881 60.623 C 201.359 60.589,200.925 60.562,199.917 60.562 C 198.908 60.563,198.517 60.590,199.048 60.623 M190.208 60.948 C 190.369 60.990,190.631 60.990,190.792 60.948 C 190.952 60.906,190.821 60.872,190.500 60.872 C 190.179 60.872,190.048 60.906,190.208 60.948 M209.042 60.948 C 209.202 60.990,209.465 60.990,209.625 60.948 C 209.785 60.906,209.654 60.872,209.333 60.872 C 209.012 60.872,208.881 60.906,209.042 60.948 M105.406 98.208 L 104.917 98.750 105.458 98.260 C 105.756 97.991,106.000 97.748,106.000 97.719 C 106.000 97.590,105.862 97.703,105.406 98.208 M99.740 103.875 L 99.250 104.417 99.792 103.927 C 100.090 103.658,100.333 103.414,100.333 103.385 C 100.333 103.257,100.196 103.370,99.740 103.875 M196.460 336.118 C 196.668 336.158,196.968 336.156,197.127 336.115 C 197.286 336.073,197.117 336.040,196.750 336.042 C 196.383 336.044,196.253 336.078,196.460 336.118 M202.875 336.115 C 203.035 336.157,203.298 336.157,203.458 336.115 C 203.619 336.073,203.487 336.039,203.167 336.039 C 202.846 336.039,202.715 336.073,202.875 336.115 " stroke="none" fill="#b4a46c" fill-rule="evenodd"></path></g></svg>
